{"glyphs":{"0":{"ha":422,"x_min":0,"x_max":389,"o":"m 111 189 q 34 229 64 195 q 2 289 9 254 q 0 314 0 300 q 0 334 0 328 q 1 357 0 346 q 43 490 9 420 q 112 583 70 543 q 202 637 155 622 q 254 646 227 646 q 320 625 303 646 q 322 622 321 623 q 324 621 323 621 q 334 616 328 621 q 347 606 341 612 q 361 589 354 600 q 374 567 369 578 q 389 493 389 535 q 388 474 389 481 q 385 457 387 468 q 283 273 361 365 q 162 190 223 205 q 141 188 151 188 q 127 188 132 188 q 111 189 118 188 m 155 224 q 247 300 201 244 q 330 465 311 382 q 332 492 332 477 q 331 519 332 505 q 318 572 327 550 q 310 587 313 582 q 303 595 307 591 l 298 597 l 288 591 q 263 572 275 582 q 237 548 252 562 q 139 411 174 483 q 115 349 122 376 q 106 296 107 323 l 106 288 q 113 249 106 264 q 128 228 119 236 q 142 219 136 219 l 142 219 q 148 221 144 220 q 155 224 151 222 z "},"1":{"ha":381,"x_min":0,"x_max":381,"o":"m 16 176 q 3 182 7 178 q 0 192 0 186 q 6 210 0 198 q 25 243 12 221 q 62 302 39 266 q 103 363 84 336 q 149 428 121 391 l 155 437 q 179 470 167 453 q 199 496 191 486 q 233 544 219 526 q 269 589 248 563 q 277 600 273 595 q 290 615 286 610 q 296 623 294 621 q 297 625 297 625 l 297 626 l 295 625 q 294 625 294 625 q 261 609 283 620 q 224 590 239 598 q 201 576 216 585 q 172 559 186 568 q 140 539 151 546 q 122 531 128 533 q 112 528 117 528 q 104 527 108 527 q 96 528 100 527 q 85 531 87 529 q 83 536 83 534 q 84 539 83 537 q 104 551 86 541 q 145 575 122 562 q 188 599 169 588 q 261 634 222 617 q 320 658 299 652 q 339 661 330 661 q 349 660 344 661 q 372 652 363 658 q 381 629 381 645 l 381 625 q 380 615 381 621 q 378 608 380 610 q 366 581 375 598 q 347 545 357 563 q 189 321 281 434 q 110 221 136 254 q 92 199 99 207 q 77 186 85 192 q 59 176 68 178 q 37 173 50 173 q 16 176 24 173 z "},"2":{"ha":469,"x_min":0,"x_max":469,"o":"m 229 170 q 198 177 212 172 q 163 193 183 182 l 144 202 l 126 197 q 57 184 89 184 l 54 184 q 5 197 20 184 q 2 202 3 200 q 0 205 1 203 q 0 210 0 207 q 43 251 0 237 q 63 254 52 253 q 82 255 75 255 l 89 255 l 99 254 l 116 265 q 370 537 294 385 q 388 604 388 578 q 385 622 388 614 q 379 632 383 627 q 370 639 374 637 q 360 640 366 640 q 297 619 340 640 q 164 486 188 562 q 162 474 162 478 l 162 472 q 165 465 162 467 q 168 460 168 463 q 165 456 168 458 q 149 452 161 452 q 123 464 132 452 q 121 475 121 469 q 122 486 121 480 q 132 517 124 501 q 179 575 146 545 q 255 630 213 606 q 339 663 299 654 q 365 665 351 665 l 372 665 q 404 661 391 665 q 445 639 428 654 q 454 629 451 633 q 460 618 458 625 q 469 583 469 600 q 469 576 469 579 q 436 471 464 528 q 394 400 417 432 q 335 334 370 369 q 216 241 279 279 q 201 232 208 236 q 193 227 194 228 l 193 227 q 197 224 193 226 q 215 214 202 220 q 249 199 237 203 q 275 194 261 195 q 292 193 285 193 q 311 195 299 193 q 328 197 320 196 q 339 199 336 198 q 350 201 345 201 q 360 199 355 201 q 372 192 370 197 l 372 191 q 330 175 372 181 q 311 172 321 173 q 296 170 301 170 q 275 169 287 169 l 262 169 q 229 170 242 169 z "},"3":{"ha":398,"x_min":0,"x_max":398,"o":"m 83 180 q 26 205 45 186 q 13 224 18 213 q 3 254 7 235 q 0 269 0 266 q 0 273 0 273 q 2 279 0 277 q 22 284 9 284 l 25 284 q 36 282 32 283 q 43 275 39 280 q 51 260 46 271 q 80 222 64 232 q 92 215 87 216 q 99 214 96 214 q 105 215 102 214 q 131 226 117 217 q 159 248 146 235 q 207 312 191 279 q 218 353 218 336 q 214 372 218 364 q 183 387 204 387 q 166 385 176 387 q 153 384 159 384 q 144 385 148 384 q 128 391 134 386 q 125 395 126 393 l 125 395 q 126 398 125 397 q 138 408 127 401 q 164 425 149 415 q 250 486 213 452 q 305 555 294 526 q 316 597 316 583 q 305 625 316 614 q 281 634 296 634 q 252 629 269 634 q 200 606 224 620 q 186 596 193 601 q 175 587 179 591 q 172 582 172 583 l 172 581 q 172 579 172 581 q 172 577 172 578 q 166 574 170 575 q 155 572 161 572 q 142 574 148 572 q 136 577 138 575 q 134 584 134 580 q 134 588 134 586 q 137 592 135 589 q 143 597 139 594 q 191 630 161 615 q 250 652 220 645 q 284 655 264 655 q 317 653 303 656 q 389 605 370 642 q 398 567 398 587 q 350 475 398 523 q 245 411 311 437 l 228 404 l 235 401 q 284 376 262 395 q 312 333 305 357 q 314 317 314 325 q 292 256 314 289 q 253 218 279 237 q 195 189 226 200 q 162 181 178 183 q 124 178 146 178 q 99 178 108 178 q 83 180 91 178 z "},"4":{"ha":572,"x_min":0,"x_max":572,"o":"m 238 193 q 222 203 224 197 l 222 203 q 233 228 222 209 q 245 248 237 235 q 260 272 252 260 q 273 294 268 285 q 279 304 279 303 q 280 306 280 305 q 279 307 280 307 q 275 307 277 307 q 270 307 273 307 q 265 307 268 307 l 240 307 q 195 309 214 307 q 138 326 172 313 l 105 336 l 98 334 q 58 325 79 327 q 43 324 50 324 q 26 326 34 324 q 4 335 11 329 q 1 340 1 338 q 0 345 0 342 q 21 367 0 357 q 63 377 41 377 l 73 377 l 81 385 q 106 416 92 397 q 143 469 120 435 q 191 547 168 505 q 222 601 210 582 q 242 628 233 619 q 259 639 250 636 q 281 643 270 643 q 302 640 292 643 q 330 617 323 633 q 332 603 332 611 q 330 583 332 594 q 247 453 315 536 q 162 368 197 393 q 155 362 157 364 l 151 359 q 160 356 152 359 q 179 349 168 353 q 211 337 200 340 q 237 332 222 334 q 258 332 245 332 q 283 332 272 332 q 296 334 294 333 q 301 341 297 335 q 309 358 304 348 q 366 451 330 400 q 384 477 374 464 q 398 498 393 490 q 460 583 438 556 q 496 616 482 610 q 528 623 511 623 q 543 621 535 623 q 572 600 566 616 q 572 595 572 598 q 553 545 572 579 q 468 424 529 505 q 443 391 453 404 q 431 376 433 377 q 431 374 431 374 l 434 374 q 441 374 437 374 q 448 374 444 374 q 458 369 454 372 q 461 366 460 367 q 460 361 461 364 q 417 340 458 355 q 401 334 408 336 q 393 330 394 331 q 331 252 387 325 q 284 197 294 204 q 268 192 276 193 q 254 191 259 191 q 238 193 246 191 z "},"5":{"ha":426,"x_min":0,"x_max":426,"o":"m 98 182 q 39 208 60 187 q 28 220 34 212 q 17 236 22 229 q 12 247 12 244 q 36 257 12 257 q 53 254 47 257 q 68 239 58 250 q 101 216 87 220 q 107 214 104 214 q 113 215 110 214 q 133 224 119 217 q 165 245 152 234 q 193 275 178 256 q 244 357 231 324 q 258 410 258 391 q 255 427 258 420 q 213 447 244 447 q 155 436 190 447 q 120 421 136 429 q 95 406 104 413 q 50 376 68 381 q 35 374 43 374 l 29 374 q 10 378 18 375 q 2 384 5 380 q 0 392 0 387 q 5 412 0 400 q 22 445 10 425 q 32 462 26 453 q 41 477 37 471 q 144 612 85 554 q 176 640 164 632 q 201 650 188 648 q 223 651 211 652 q 245 648 236 651 q 288 627 262 644 q 314 612 302 618 q 333 605 326 606 l 336 605 q 354 608 342 605 q 382 617 368 611 q 395 622 389 620 q 404 625 401 625 l 408 625 q 415 625 412 625 q 423 622 420 623 q 426 617 426 620 l 426 616 q 417 611 425 615 q 399 601 410 606 q 381 592 389 595 q 363 586 375 589 q 340 581 351 583 q 322 580 332 580 q 272 588 298 580 q 263 591 266 590 q 259 591 260 591 q 258 590 258 591 q 245 572 256 587 q 220 541 234 557 q 164 476 192 505 q 154 466 158 470 q 151 460 151 461 l 153 461 q 159 462 156 461 q 219 469 186 468 q 253 467 239 469 q 281 459 267 465 q 341 408 328 445 q 344 400 343 404 q 345 393 345 397 q 345 379 345 388 q 345 362 345 368 q 342 350 344 356 q 284 252 325 293 q 224 209 260 227 q 155 185 189 191 q 130 182 140 183 q 115 182 119 182 q 98 182 105 182 z "},"6":{"ha":418,"x_min":0,"x_max":418,"o":"m 117 175 q 2 276 16 188 q 0 302 0 289 q 40 437 0 366 q 126 544 74 494 q 357 659 243 652 l 363 659 q 399 654 383 659 q 418 643 418 650 q 414 637 418 640 q 401 631 410 635 q 298 570 349 611 q 275 548 289 562 q 247 520 260 534 q 224 496 233 506 q 216 486 216 487 q 231 484 220 486 q 250 479 242 481 q 347 385 324 460 q 351 357 351 371 q 311 262 351 311 q 226 197 278 222 q 182 180 201 185 q 140 175 163 175 q 125 174 132 174 q 117 175 119 174 m 170 209 q 243 252 208 222 q 296 326 283 286 q 302 359 302 343 q 296 392 302 376 q 269 435 288 416 q 242 455 255 449 q 210 461 229 461 l 197 461 l 186 447 q 146 382 165 416 q 118 321 127 347 q 109 289 111 302 q 106 258 106 276 q 107 242 106 248 q 108 234 107 237 q 110 228 109 231 q 119 215 113 221 q 131 206 125 209 q 144 204 137 204 q 170 209 155 204 z "},"7":{"ha":460,"x_min":0,"x_max":460,"o":"m 32 194 q 14 199 22 195 q 2 208 5 203 l 2 208 q 0 213 0 211 l 0 214 q 3 220 0 216 q 13 234 5 225 q 35 258 21 243 q 50 275 42 267 q 62 288 57 283 q 76 303 66 293 q 95 324 85 313 q 119 350 104 335 q 144 378 133 366 q 163 398 156 390 q 172 408 171 407 q 162 412 172 409 q 141 417 153 414 q 121 420 130 420 q 114 419 117 420 q 87 410 102 418 q 54 401 67 401 l 49 401 q 24 410 31 402 q 20 416 20 413 q 25 425 20 420 q 60 444 35 435 q 90 451 76 449 q 125 452 104 452 q 157 450 144 452 q 186 442 170 448 l 199 437 l 228 467 q 323 558 268 508 q 354 587 339 572 q 377 610 368 601 q 387 621 387 620 l 385 621 q 328 609 378 621 q 228 586 264 593 q 163 580 192 580 q 77 605 103 580 q 67 621 67 614 q 72 630 67 626 q 93 637 78 637 l 98 637 q 113 634 107 637 q 128 624 118 632 q 153 609 142 612 q 183 605 163 605 q 240 610 208 605 q 330 628 272 615 q 390 640 376 638 q 412 642 405 642 q 429 640 421 642 q 460 607 460 631 q 458 592 460 600 q 333 432 439 548 q 317 415 323 422 q 311 407 311 408 l 312 407 q 317 408 313 407 q 330 410 323 408 q 343 413 338 412 q 404 442 360 418 q 418 446 410 446 l 421 446 q 436 440 431 445 q 439 435 439 438 q 437 431 439 433 q 418 416 433 426 q 307 383 371 389 l 286 382 l 274 368 l 262 357 q 243 337 253 347 q 223 316 236 329 q 200 292 211 303 q 181 272 189 280 q 172 263 173 264 q 164 256 170 262 q 148 241 157 250 q 104 207 122 217 q 66 193 87 197 q 49 192 56 192 q 32 194 41 192 z "},"8":{"ha":404,"x_min":0,"x_max":404,"o":"m 96 172 q 32 199 54 179 q 2 244 4 226 q 0 267 0 262 q 20 317 0 294 q 39 333 26 324 q 68 350 52 342 q 82 356 75 353 q 103 365 89 359 q 146 382 118 371 q 166 390 158 387 q 176 393 175 393 q 173 400 176 394 q 166 416 170 407 q 135 493 140 471 q 130 528 130 515 q 134 555 130 542 q 148 589 138 571 q 172 621 159 608 q 248 661 203 653 q 271 662 257 662 l 280 662 q 313 659 300 661 q 363 633 349 650 q 368 629 366 631 q 372 626 371 627 q 376 624 374 625 q 380 621 378 623 q 388 605 382 618 q 399 579 394 592 q 402 566 401 571 q 404 554 404 561 q 403 546 404 549 q 401 539 403 543 q 397 528 400 535 q 381 499 390 511 q 353 466 372 487 q 282 411 320 433 q 273 406 277 408 q 268 404 269 404 l 265 401 l 269 389 q 277 359 273 376 q 282 331 281 343 q 283 317 283 323 q 240 218 283 260 q 161 174 203 183 q 142 172 155 173 q 116 171 129 171 q 96 172 103 171 m 270 441 q 309 474 292 456 q 334 510 326 493 q 341 529 338 518 q 345 547 344 540 l 345 551 q 345 564 345 556 q 340 589 343 576 l 338 601 l 332 601 q 295 582 317 601 q 256 539 272 564 q 244 490 244 518 q 254 435 244 465 q 255 433 254 433 q 256 433 256 433 q 260 434 257 433 q 270 441 262 435 m 122 199 q 149 215 134 203 q 174 240 163 227 q 195 292 190 260 q 196 316 196 302 q 195 340 196 330 q 192 349 194 343 q 189 361 191 355 q 187 368 188 366 q 178 364 186 368 q 157 355 170 360 q 134 345 145 350 q 118 338 123 340 q 60 289 72 315 q 53 271 54 277 q 52 262 52 265 q 54 247 52 255 q 67 219 58 233 q 86 200 76 206 q 103 197 93 197 q 122 199 113 197 z "},"9":{"ha":471,"x_min":0,"x_max":471,"o":"m 90 178 q 35 191 57 180 q 5 220 14 201 q 2 228 3 225 q 0 235 1 231 q 0 245 0 238 q 0 254 0 251 q 1 260 0 258 q 3 266 2 262 q 8 273 5 271 q 15 277 10 275 q 23 280 19 279 q 34 281 26 281 q 51 278 46 281 q 58 266 55 275 q 60 258 59 262 q 60 252 60 254 q 63 240 60 246 q 69 229 65 233 q 88 215 76 218 q 96 214 93 214 q 105 215 100 214 q 214 297 152 227 q 248 339 230 315 q 279 385 266 363 q 288 400 283 391 q 299 419 294 409 q 309 436 305 429 q 313 444 313 444 q 309 441 313 444 q 299 432 305 438 q 208 384 253 391 q 191 383 200 383 l 180 383 q 155 387 165 384 q 102 439 113 399 q 100 463 100 448 q 101 488 100 477 q 165 601 113 549 q 186 620 176 612 q 209 633 197 627 q 299 656 250 654 l 305 656 q 410 606 385 656 q 414 598 413 602 q 415 592 415 595 q 416 581 416 589 l 416 566 l 421 566 q 467 543 452 566 q 471 524 471 535 q 461 481 471 506 q 309 267 414 365 q 158 182 234 197 q 106 177 130 177 q 90 178 98 177 m 220 420 q 324 492 258 435 q 343 508 336 502 q 353 517 349 513 q 360 527 356 522 q 368 544 366 536 q 370 565 370 552 q 370 577 370 573 q 368 584 369 581 q 332 613 359 602 l 323 616 l 315 612 q 241 525 281 592 q 205 433 205 464 q 206 426 205 429 q 208 419 206 422 l 208 416 q 212 418 209 416 q 220 420 215 419 z "},"\u0000":{"ha":0,"x_min":0,"x_max":0,"o":""},"\u001d":{"ha":0,"x_min":0,"x_max":0,"o":""}," ":{"ha":271,"x_min":0,"x_max":0,"o":""}," ":{"ha":271,"x_min":0,"x_max":0,"o":""},"!":{"ha":707,"x_min":68,"x_max":639,"o":"m 68 158 q 94 190 73 179 q 131 201 115 201 q 149 199 140 201 q 177 182 170 192 q 184 167 184 172 q 170 145 184 157 q 137 133 154 135 q 112 130 120 130 q 85 134 97 130 q 68 155 68 140 l 68 158 m 178 247 q 164 251 172 248 q 154 257 157 254 q 151 261 151 259 q 151 264 151 262 l 151 267 q 160 289 151 273 q 191 338 169 304 q 217 377 203 357 q 239 410 231 397 q 406 649 331 555 q 441 693 417 663 q 490 752 465 722 q 526 795 514 781 q 566 836 553 828 q 586 841 577 841 q 598 842 595 842 q 623 838 612 842 q 639 819 639 833 q 635 802 639 812 q 618 774 630 791 q 583 723 607 756 q 516 632 559 690 q 464 563 490 597 q 424 509 437 528 q 392 466 410 490 q 358 420 373 441 q 314 362 330 382 q 290 327 299 341 q 264 292 276 308 q 247 271 253 277 q 195 247 226 248 l 178 247 z "},"\"":{"ha":450,"x_min":68,"x_max":382,"o":"m 85 833 q 70 840 71 836 q 68 846 68 844 q 73 860 68 852 q 99 894 79 871 q 141 937 119 916 q 171 963 162 957 q 177 966 173 964 q 184 969 180 968 q 203 972 193 972 q 215 972 212 972 q 242 969 229 972 q 262 955 257 965 q 262 952 262 954 q 261 947 262 949 q 254 939 259 943 q 192 895 224 919 q 136 846 160 871 q 100 831 120 831 q 85 833 93 831 m 205 774 q 190 781 191 777 q 188 787 188 785 q 192 802 188 793 q 219 835 199 812 q 261 878 239 857 q 291 904 282 898 q 297 907 293 905 q 304 910 300 909 q 323 913 313 913 q 335 913 332 913 q 362 910 349 913 q 382 896 377 906 q 382 893 382 895 q 381 888 382 890 q 374 880 379 884 q 312 836 345 860 q 256 787 280 812 q 220 772 240 772 q 205 774 213 772 z "},"#":{"ha":808,"x_min":68,"x_max":741,"o":"m 87 137 q 76 142 80 139 q 69 147 71 144 q 68 153 68 150 q 73 172 68 161 q 101 229 80 191 q 120 262 108 241 q 144 302 133 283 q 159 326 156 321 l 161 330 l 163 332 q 162 332 163 332 q 160 333 162 333 q 155 334 158 334 q 132 338 142 334 q 121 349 121 343 q 176 372 121 365 l 189 373 l 198 388 q 207 401 202 395 q 213 412 211 408 q 221 424 215 415 q 234 444 227 433 q 237 449 235 447 q 254 479 254 476 q 252 479 254 479 q 248 479 251 479 q 238 477 244 478 q 212 475 224 475 q 180 481 192 475 q 169 493 169 487 q 172 500 169 496 q 194 510 177 507 q 245 515 210 513 q 264 515 257 515 q 274 516 271 516 q 279 517 277 517 q 281 519 280 518 q 288 529 282 520 q 302 551 294 538 q 390 664 353 627 q 449 686 412 686 q 486 680 471 686 q 502 661 500 673 l 502 659 q 490 630 502 650 q 437 558 476 608 q 416 532 425 543 l 408 521 q 419 520 409 520 q 438 520 430 520 l 456 520 q 495 521 476 520 l 518 522 l 546 561 q 581 611 568 593 q 606 642 595 629 q 644 682 629 670 q 675 696 659 694 q 692 698 684 698 q 713 696 703 698 q 738 683 730 692 q 741 674 741 680 q 732 652 741 665 q 671 578 718 630 q 652 555 662 567 q 637 538 642 544 l 625 523 l 646 522 q 699 516 692 520 q 705 509 705 513 q 703 505 705 507 q 692 500 700 501 q 669 498 685 498 q 656 498 664 498 l 606 498 l 579 463 q 553 429 566 446 q 532 401 541 412 l 524 389 l 536 389 q 568 388 549 388 q 598 387 588 387 q 613 386 608 387 q 623 384 618 385 q 639 379 635 381 q 643 373 643 376 l 643 372 q 634 365 642 367 q 619 362 626 362 q 610 363 615 362 q 598 364 606 363 q 582 365 590 365 q 552 364 570 365 q 520 362 534 363 q 504 361 506 361 q 475 323 500 358 q 419 244 450 288 q 369 171 389 201 q 354 149 359 156 q 345 140 349 142 q 335 136 341 138 q 324 136 330 136 l 317 136 q 298 138 305 136 q 294 140 296 139 q 290 143 291 142 q 287 147 287 146 q 286 150 286 149 l 286 153 q 311 207 288 168 q 385 326 334 247 q 398 346 393 338 q 403 354 403 353 l 401 354 q 299 346 392 354 q 280 343 282 345 q 277 339 279 342 q 270 329 275 336 q 255 307 264 321 q 229 270 245 293 q 190 213 213 247 q 165 177 174 191 q 150 156 155 163 q 142 145 145 149 q 138 142 140 142 q 119 136 129 137 q 104 135 109 135 q 87 137 94 135 m 370 380 q 408 382 393 382 q 424 384 423 383 q 430 392 425 385 q 441 410 435 399 q 459 436 449 420 q 478 463 470 451 q 492 484 487 476 q 498 493 498 492 q 494 494 498 494 q 481 493 490 494 q 442 492 465 492 q 402 490 419 491 q 385 490 386 490 q 372 473 385 490 q 344 435 359 456 q 316 396 328 413 q 304 377 304 378 l 311 377 q 331 378 315 377 q 370 380 348 379 z "},"$":{"ha":661,"x_min":68,"x_max":593,"o":"m 81 43 q 71 47 75 45 q 68 52 68 50 q 73 61 68 52 q 85 81 78 69 q 130 151 108 117 q 161 199 153 186 q 167 208 164 204 q 170 213 170 212 q 169 216 170 214 q 167 220 168 218 q 162 239 163 227 q 160 262 160 251 q 162 277 160 273 q 185 286 166 286 l 189 286 q 210 281 204 286 l 212 279 l 214 279 q 229 302 215 281 q 264 355 243 324 q 303 414 284 386 q 330 456 321 442 l 340 471 l 325 498 q 305 534 312 520 q 295 559 298 548 q 292 572 293 567 q 292 590 292 578 l 292 597 q 293 614 292 608 q 301 635 295 623 q 430 719 338 699 q 456 722 444 722 q 473 722 468 722 q 494 720 486 722 q 496 720 495 720 l 503 720 q 508 724 505 720 q 517 738 511 728 q 521 743 519 740 q 554 786 545 779 q 573 791 562 791 l 577 791 q 592 785 590 790 q 593 783 593 784 q 587 768 593 779 q 560 725 579 755 l 543 699 l 549 692 q 572 630 572 665 q 571 618 572 625 q 565 590 570 607 q 556 558 561 572 q 552 543 552 547 l 552 540 q 536 530 552 530 l 532 530 q 520 534 524 531 q 518 536 519 535 q 517 539 517 537 q 517 545 517 541 q 518 556 517 549 q 521 571 519 564 q 525 610 525 593 q 524 628 525 620 q 520 638 522 633 q 517 648 519 644 q 514 652 515 652 q 500 632 513 652 q 471 588 487 612 q 441 543 454 563 q 429 522 429 523 q 432 515 429 521 q 440 500 435 509 q 477 413 467 452 q 486 354 486 380 q 480 315 486 332 q 469 289 477 304 q 454 262 461 273 q 319 173 406 193 q 273 168 296 168 q 206 181 237 168 q 205 182 205 182 q 201 178 203 182 q 186 155 199 174 q 156 111 173 135 q 127 68 140 87 q 113 48 115 50 q 103 43 110 45 q 90 41 96 41 q 86 42 89 41 q 81 43 83 43 m 411 577 q 422 596 412 581 q 447 632 433 611 q 470 668 460 653 q 479 683 479 682 q 479 684 479 684 q 477 685 478 684 l 475 685 q 456 677 469 685 q 431 659 443 670 q 402 596 402 629 q 403 587 402 591 q 405 575 404 578 q 406 572 406 572 q 408 573 407 572 q 411 577 409 575 m 273 208 q 308 229 289 212 q 340 265 326 245 q 357 297 348 277 q 370 328 367 317 q 373 348 373 338 q 374 363 374 358 q 373 380 374 372 q 370 396 372 387 q 366 413 368 406 q 363 422 364 420 l 363 422 l 361 421 q 360 419 361 420 q 358 416 359 418 q 355 412 357 414 q 351 405 353 409 q 345 396 348 401 q 339 387 342 392 l 320 359 q 275 289 298 325 l 232 224 l 237 219 q 263 205 250 205 q 273 208 268 205 z "},"%":{"ha":676,"x_min":68,"x_max":608,"o":"m 144 181 q 125 192 130 184 q 124 195 124 194 q 124 197 124 196 l 124 198 q 125 202 124 199 q 135 218 127 208 q 152 243 142 229 q 161 256 155 248 q 170 270 166 264 q 194 303 176 279 q 232 353 212 327 q 264 394 252 378 q 483 623 351 503 q 498 636 492 631 q 505 643 505 642 l 496 640 q 473 633 487 637 l 469 632 q 387 609 414 615 q 332 604 359 604 l 313 604 l 312 578 q 311 555 312 562 q 308 541 310 548 q 267 471 298 502 q 222 436 243 446 q 157 422 191 422 l 151 422 q 89 442 115 424 q 68 490 68 458 q 75 533 68 509 q 115 605 88 573 q 173 650 141 636 q 224 662 195 659 q 240 663 232 663 q 288 656 267 663 q 321 632 316 648 q 324 627 322 629 q 329 626 326 626 q 342 625 333 625 q 495 660 387 625 q 524 669 515 667 q 538 673 534 672 q 551 673 543 673 q 583 664 574 673 q 590 646 590 658 q 585 626 590 637 q 538 552 575 600 q 459 455 507 510 q 366 351 412 399 q 315 300 343 328 q 277 262 288 272 q 261 246 273 258 q 235 221 249 235 q 211 198 222 208 q 197 186 200 189 q 191 184 195 185 q 184 181 187 182 q 169 180 176 180 q 159 180 162 180 q 144 181 151 180 m 410 161 q 371 176 387 165 q 350 202 356 186 q 347 222 347 210 q 350 247 347 235 q 421 364 367 309 q 506 405 457 399 q 524 406 515 406 q 560 401 543 406 q 588 382 585 394 q 590 378 589 380 q 592 374 591 376 q 608 321 606 361 q 608 306 608 311 q 606 296 608 300 q 577 245 600 273 q 528 197 555 217 q 488 172 506 180 q 450 161 471 164 q 431 160 441 160 q 410 161 420 160 m 473 206 q 525 252 505 224 q 543 286 538 268 q 546 298 545 291 q 547 320 547 304 l 547 345 l 543 342 q 537 336 541 341 q 527 326 532 332 q 472 254 496 292 q 449 200 449 216 l 449 195 l 456 197 q 464 201 459 199 q 473 206 469 203 m 211 475 q 267 550 256 501 q 269 563 269 555 q 269 578 269 570 q 269 592 269 587 q 267 597 268 597 l 263 595 q 254 587 259 591 q 211 530 230 564 q 189 472 192 496 l 189 463 l 196 467 q 203 470 199 468 q 211 475 208 473 z "},"&":{"ha":747,"x_min":68,"x_max":680,"o":"m 169 56 q 73 126 94 68 q 68 162 68 144 q 147 321 68 233 q 203 374 170 345 q 272 427 237 404 l 284 436 l 284 451 q 313 575 284 512 q 393 690 341 638 q 566 779 477 774 l 574 779 q 658 752 627 779 q 680 704 680 732 q 678 690 680 697 q 629 597 671 648 q 414 418 571 524 q 388 400 403 411 q 360 382 372 390 q 347 372 349 374 q 349 365 347 372 q 354 349 351 358 q 359 334 357 340 q 422 237 381 279 q 425 234 424 235 q 435 225 433 225 l 436 225 q 443 235 439 225 q 445 239 444 237 q 453 260 450 249 q 460 294 456 271 q 463 311 462 304 q 466 320 465 317 q 468 325 467 323 q 471 327 469 326 q 485 330 477 330 l 488 330 q 504 324 498 329 q 506 321 505 323 q 507 317 507 319 q 507 308 507 314 q 476 208 507 252 q 471 200 473 203 q 469 196 469 197 q 469 194 469 195 l 469 193 q 481 183 471 191 q 501 167 490 176 q 519 155 512 159 q 530 148 524 151 q 541 142 536 144 q 551 137 547 138 q 563 136 556 136 q 585 127 585 133 q 584 124 585 125 q 555 117 579 117 l 551 117 q 456 160 511 118 l 445 168 l 431 154 q 416 141 425 149 q 401 129 408 134 q 246 58 327 73 q 215 55 229 55 q 195 54 201 54 q 169 56 180 54 m 363 490 q 457 562 412 523 q 583 725 581 668 l 583 728 q 564 749 583 749 q 533 741 553 749 q 493 720 512 732 q 349 515 382 644 q 343 489 345 498 q 341 477 341 480 q 342 475 341 475 q 349 480 342 476 q 363 490 355 484 m 237 85 q 298 107 264 92 q 359 141 332 122 q 386 164 372 151 q 409 187 400 176 l 414 193 l 406 201 q 313 326 348 253 l 305 342 l 288 327 q 247 289 271 313 q 211 251 224 266 q 159 136 159 184 q 176 95 159 113 q 184 88 180 90 q 194 84 188 85 q 213 83 200 83 q 237 85 227 83 z "},"'":{"ha":330,"x_min":68,"x_max":262,"o":"m 85 833 q 70 840 71 836 q 68 846 68 844 q 73 860 68 852 q 99 894 79 871 q 141 937 119 916 q 171 963 162 957 q 177 966 173 964 q 184 969 181 968 q 203 972 193 972 q 215 972 213 972 q 242 969 229 972 q 262 955 258 965 l 262 953 q 261 947 262 950 q 254 939 259 943 q 192 895 224 919 q 136 846 160 871 q 100 831 120 831 q 85 833 93 831 z "},"(":{"ha":622,"x_min":68,"x_max":554,"o":"m 119 1 q 110 6 113 2 q 101 23 106 10 q 90 64 97 36 q 79 100 83 87 q 74 127 76 114 q 71 164 73 141 q 68 228 68 200 l 68 239 q 74 304 68 269 q 184 616 97 455 q 321 818 248 729 q 460 948 394 907 q 484 961 470 955 q 509 970 497 966 q 530 972 521 972 q 547 970 539 972 q 554 962 554 967 q 538 943 554 955 q 504 910 528 933 q 463 867 481 886 q 422 818 444 846 q 382 768 399 791 q 149 186 161 455 q 149 157 149 171 q 156 62 149 98 q 159 48 157 57 q 161 32 160 40 l 163 14 l 159 9 q 155 6 157 7 q 150 3 152 4 q 138 1 144 1 q 128 0 131 0 q 119 1 123 0 z "},")":{"ha":652,"x_min":68,"x_max":585,"o":"m 79 2 q 74 4 76 3 q 70 7 71 5 q 68 11 68 9 q 69 14 68 12 q 83 26 72 18 q 118 57 98 37 q 153 97 138 77 q 170 122 158 104 q 196 160 182 140 q 216 193 209 180 q 304 366 265 273 q 344 472 319 403 q 395 614 370 541 q 411 661 401 633 q 423 696 418 680 q 479 854 456 791 q 491 890 486 871 q 500 926 497 909 q 517 966 508 958 q 532 972 525 971 q 543 972 540 972 q 561 970 553 972 q 584 918 580 963 q 585 907 585 913 q 583 880 585 895 q 569 816 579 858 q 413 376 512 587 q 276 150 358 258 q 242 108 258 125 q 199 64 227 91 q 164 32 178 42 q 133 13 151 22 q 121 7 127 9 q 111 3 115 4 q 94 0 103 0 q 79 2 85 0 z "},"*":{"ha":426,"x_min":68,"x_max":358,"o":"m 146 754 q 130 764 133 756 q 128 767 128 766 q 128 769 128 768 l 128 771 q 129 777 128 773 q 157 834 134 793 q 167 851 165 846 q 169 857 169 856 l 169 858 q 162 859 168 859 q 142 858 156 859 q 125 857 132 857 l 119 857 q 103 859 111 857 q 68 879 68 865 q 76 890 68 884 q 99 898 85 895 q 107 899 101 899 q 122 900 114 899 l 140 901 l 135 909 q 130 918 133 913 q 125 925 127 922 q 118 937 121 931 q 116 946 116 943 q 122 954 116 949 q 136 962 127 959 q 146 964 141 963 q 161 964 151 964 q 196 958 184 964 q 214 935 208 951 l 215 930 l 221 940 q 233 956 227 949 q 246 966 240 962 q 277 972 260 972 l 284 972 q 316 962 306 971 q 320 954 320 958 l 320 953 q 313 938 320 947 q 289 909 305 928 l 275 894 l 279 893 q 291 891 282 892 q 312 890 300 890 q 333 887 323 888 q 345 885 342 886 q 354 880 351 883 q 358 873 358 876 q 354 867 358 870 q 343 861 349 863 q 335 860 340 860 q 321 859 331 859 q 293 859 311 859 l 250 859 q 257 846 250 858 q 273 820 264 834 q 290 795 282 806 q 294 788 293 790 q 295 785 295 785 l 295 783 q 284 775 294 778 q 264 772 275 772 q 245 777 253 772 q 236 783 241 778 q 224 793 230 787 l 210 806 l 204 798 q 191 779 197 787 q 184 765 186 770 q 178 758 182 760 q 165 754 174 755 q 156 753 159 753 q 146 754 152 753 z "},"+":{"ha":420,"x_min":68,"x_max":352,"o":"m 131 320 q 119 326 120 323 q 117 331 117 329 q 121 342 117 335 q 132 362 125 349 q 148 386 140 374 q 159 402 155 397 q 160 404 160 404 l 160 405 q 159 406 160 406 q 155 405 157 406 q 139 401 150 404 q 125 398 132 399 q 106 397 119 397 q 93 397 98 397 q 86 398 89 397 q 81 400 83 399 q 68 412 68 406 q 71 419 68 416 q 98 431 77 427 q 163 439 118 435 l 188 441 l 209 469 q 233 500 224 491 q 251 512 242 510 q 275 515 260 515 q 299 512 290 515 q 312 504 307 510 q 316 498 315 500 l 316 496 q 312 488 316 492 q 298 470 308 481 q 285 455 290 462 q 279 448 279 449 q 279 447 279 447 q 283 446 280 446 q 292 446 286 446 q 344 441 334 446 q 352 433 352 437 q 345 425 352 429 q 336 423 342 424 q 319 421 331 422 q 286 418 307 420 l 281 418 q 260 417 267 418 q 251 415 254 416 q 245 410 248 413 q 245 408 245 409 q 238 401 243 406 q 218 378 229 391 q 216 376 217 377 q 199 355 208 366 q 185 339 191 345 q 174 327 178 330 q 167 321 170 323 q 153 319 161 319 q 142 319 146 319 q 131 320 136 319 z "},",":{"ha":320,"x_min":68,"x_max":184,"o":"m 72 202 q 84 222 79 213 q 99 257 96 242 q 102 285 102 272 q 100 307 102 295 q 99 323 99 317 q 103 342 99 336 q 136 353 109 353 q 174 341 163 353 q 184 313 184 329 q 182 295 184 305 q 169 260 178 277 q 153 232 160 243 q 126 197 141 213 q 88 181 111 182 l 85 181 q 71 185 77 181 q 68 191 68 187 q 72 202 68 196 z "},"-":{"ha":491,"x_min":68,"x_max":423,"o":"m 102 395 q 86 400 92 397 q 75 406 80 402 q 68 418 68 412 q 81 434 68 426 l 88 439 l 135 439 q 180 438 155 439 q 223 437 205 437 q 272 435 241 435 q 333 433 303 434 q 384 432 362 433 q 410 431 406 431 q 421 424 419 428 q 423 418 423 420 q 419 410 423 414 q 409 406 416 408 q 383 403 401 404 q 332 401 365 402 q 276 399 306 400 q 227 397 247 398 q 123 395 155 395 q 102 395 108 395 z "},"­":{"ha":491,"x_min":68,"x_max":423,"o":"m 102 395 q 86 400 92 397 q 75 406 80 402 q 68 418 68 412 q 81 434 68 426 l 88 439 l 135 439 q 180 438 155 439 q 223 437 205 437 q 272 435 241 435 q 333 433 303 434 q 384 432 362 433 q 410 431 406 431 q 421 424 419 428 q 423 418 423 420 q 419 410 423 414 q 409 406 416 408 q 383 403 401 404 q 332 401 365 402 q 276 399 306 400 q 227 397 247 398 q 123 395 155 395 q 102 395 108 395 z "},".":{"ha":294,"x_min":68,"x_max":158,"o":"m 68 314 q 83 341 73 336 q 106 347 92 347 l 116 347 q 148 340 134 347 q 158 323 158 335 q 155 309 158 317 q 109 278 142 278 l 108 278 q 79 286 90 278 q 68 307 68 293 q 68 314 68 310 z "},"/":{"ha":940,"x_min":0,"x_max":940,"o":"m 13 1 q 4 5 8 2 q 0 10 1 7 q 6 18 0 12 q 21 33 12 24 q 40 53 30 43 q 57 71 51 64 q 87 104 70 85 q 123 143 105 124 q 173 197 136 157 q 251 284 209 237 q 327 368 294 331 q 451 506 410 459 q 539 606 493 553 q 606 681 584 656 q 659 740 628 706 q 681 765 671 755 q 701 788 690 775 q 732 822 713 800 q 863 956 839 939 q 872 963 867 960 q 882 968 878 966 q 888 971 886 970 q 895 972 891 972 q 907 972 899 972 q 938 966 935 972 q 940 958 940 960 q 924 926 940 947 q 633 614 869 856 q 553 531 593 572 q 446 416 514 489 q 425 393 435 404 q 389 355 401 368 q 357 320 380 345 q 309 269 334 296 q 186 138 229 183 q 105 54 143 93 q 68 19 81 31 q 47 4 56 7 q 29 0 39 0 q 19 0 24 0 q 13 1 15 1 z "},":":{"ha":226,"x_min":68,"x_max":158,"o":"m 68 314 q 83 341 73 336 q 107 347 93 347 l 116 347 q 148 340 134 347 q 158 323 158 335 q 155 309 158 317 q 109 278 142 278 l 108 278 q 79 286 90 278 q 68 307 68 293 q 68 314 68 310 m 68 557 q 83 585 73 578 q 110 591 94 591 l 113 591 q 145 584 133 591 q 158 566 158 578 q 155 552 158 560 q 108 521 142 521 q 79 528 90 521 q 68 549 68 536 q 68 557 68 553 z "},";":{"ha":252,"x_min":68,"x_max":184,"o":"m 71 202 q 83 222 78 213 q 98 257 95 242 q 101 285 101 272 q 100 307 101 295 q 98 323 98 317 q 102 342 98 336 q 136 353 109 353 q 173 341 162 353 q 184 313 184 329 q 182 295 184 305 q 168 260 177 277 q 152 232 159 243 q 125 197 140 213 q 87 181 111 182 l 85 181 q 71 185 76 181 q 68 191 68 187 q 71 202 68 196 m 81 557 q 96 585 86 578 q 122 591 106 591 l 125 591 q 158 584 146 591 q 171 566 171 578 q 168 552 171 559 q 121 521 155 521 q 92 528 103 521 q 81 549 81 536 q 81 557 81 553 z "},";":{"ha":252,"x_min":68,"x_max":184,"o":"m 71 202 q 83 222 78 213 q 98 257 95 242 q 101 285 101 272 q 100 307 101 295 q 98 323 98 317 q 102 342 98 336 q 136 353 109 353 q 173 341 162 353 q 184 313 184 329 q 182 295 184 305 q 168 260 177 277 q 152 232 159 243 q 125 197 140 213 q 87 181 111 182 l 85 181 q 71 185 76 181 q 68 191 68 187 q 71 202 68 196 m 81 557 q 96 585 86 578 q 122 591 106 591 l 125 591 q 158 584 146 591 q 171 566 171 578 q 168 552 171 559 q 121 521 155 521 q 92 528 103 521 q 81 549 81 536 q 81 557 81 553 z "},"<":{"ha":438,"x_min":68,"x_max":370,"o":"m 146 280 q 87 342 122 295 q 68 387 68 368 q 74 408 68 399 q 131 460 90 433 q 169 488 149 472 q 200 511 180 496 q 238 538 219 526 q 264 556 256 551 q 314 569 286 569 q 326 568 320 569 q 358 559 347 566 q 370 544 370 553 q 355 520 370 534 q 297 473 337 503 q 206 410 256 443 q 184 396 194 403 q 170 386 174 389 q 161 370 161 379 l 161 367 q 170 345 163 357 q 212 288 191 304 q 220 278 220 282 q 218 273 220 275 q 194 264 208 264 q 182 266 189 264 q 146 280 160 271 z "},"=":{"ha":399,"x_min":68,"x_max":331,"o":"m 106 357 q 84 372 84 363 q 87 378 84 375 q 119 389 96 387 q 156 390 127 389 q 224 391 185 391 q 271 392 252 391 q 300 392 290 392 q 316 391 311 392 q 324 389 321 391 q 328 386 326 388 q 331 380 331 383 q 322 372 331 376 q 297 367 317 369 q 235 362 277 365 q 191 359 212 360 q 159 357 170 357 q 126 355 138 355 q 106 357 114 355 m 92 435 q 75 442 81 437 q 68 452 68 447 q 75 462 68 457 q 93 469 82 467 q 133 473 100 471 q 206 477 165 475 q 234 478 220 478 q 258 479 249 479 q 275 478 267 479 q 296 478 288 478 q 309 478 304 478 q 315 477 313 477 q 319 475 317 476 q 327 465 327 470 q 316 456 327 460 q 303 454 313 455 q 279 451 293 452 q 136 435 193 444 q 113 433 125 433 q 92 435 101 433 z "},">":{"ha":363,"x_min":68,"x_max":296,"o":"m 82 256 q 68 264 71 260 q 68 266 68 265 q 68 269 68 267 q 75 276 69 271 q 92 292 80 281 q 123 318 103 302 q 201 385 176 362 q 214 395 209 391 q 222 402 220 400 q 224 406 224 405 q 222 410 224 408 q 212 422 220 414 q 199 436 205 429 q 187 450 192 444 q 125 517 165 476 q 103 541 111 532 q 96 552 96 549 q 96 556 96 555 q 100 565 96 561 q 130 578 113 578 q 149 579 146 579 q 197 569 175 579 q 231 543 214 560 q 259 507 248 526 q 271 481 264 499 q 285 445 278 464 q 295 416 294 422 q 296 406 296 409 q 291 393 296 399 q 270 375 285 386 q 249 359 261 369 q 133 271 176 302 q 112 258 121 263 q 94 254 102 254 q 82 256 88 254 z "},"?":{"ha":664,"x_min":68,"x_max":596,"o":"m 106 96 q 68 130 68 102 q 79 160 68 149 q 104 174 91 171 q 127 178 117 178 q 140 176 134 178 q 171 162 162 173 q 180 139 180 151 q 180 134 180 136 q 155 102 175 109 q 120 94 136 94 q 106 96 113 94 m 155 242 q 136 260 136 247 q 137 270 136 264 q 142 287 138 275 q 153 317 146 298 q 163 342 159 330 q 169 360 168 355 q 173 372 170 366 q 177 384 175 379 q 202 432 185 401 q 233 483 220 463 q 366 623 272 538 q 413 668 388 642 q 450 708 439 694 q 504 817 504 778 q 501 833 504 825 q 462 851 492 851 q 448 850 456 851 q 340 814 400 846 q 171 663 218 748 q 160 632 161 643 q 158 617 158 621 q 162 606 158 608 q 165 602 165 604 l 165 601 q 161 595 165 597 q 155 592 158 593 q 144 592 152 592 q 129 594 134 592 q 118 602 123 596 q 112 625 112 610 l 112 629 q 121 667 113 646 q 262 809 155 740 q 306 833 281 820 q 350 854 332 846 q 439 877 393 871 q 475 878 454 878 q 510 876 497 878 q 584 838 563 867 q 596 793 596 819 q 539 663 596 741 q 475 591 519 635 q 369 478 408 523 q 300 389 330 433 q 287 370 294 380 q 273 353 279 360 q 254 326 264 342 q 226 282 243 309 q 201 247 207 251 q 184 241 194 242 q 171 240 175 240 q 155 242 163 240 z "},"@":{"ha":692,"x_min":71,"x_max":621,"o":"m 186 125 q 155 141 170 132 q 129 159 139 150 q 71 279 71 214 q 72 316 71 281 q 80 383 73 351 q 144 532 96 456 q 216 622 174 581 q 302 685 257 661 q 421 719 363 718 q 529 694 481 719 q 602 622 577 669 q 621 549 621 584 q 618 516 621 541 q 611 471 616 492 q 583 387 602 429 q 511 279 554 325 q 419 222 469 233 q 411 220 414 220 q 407 220 409 220 l 404 220 l 393 222 q 384 225 387 224 q 379 228 381 227 q 374 231 376 229 q 353 294 353 251 q 354 323 353 308 q 358 350 355 338 l 359 355 l 359 357 q 356 354 359 357 q 351 349 354 352 q 342 339 348 345 q 332 328 337 334 q 268 281 292 289 q 233 274 243 274 q 199 288 213 274 q 182 337 182 305 q 187 374 182 353 q 199 413 191 392 q 256 513 220 468 q 326 579 292 557 q 386 602 361 602 q 398 600 392 602 q 436 539 435 591 l 437 530 l 450 549 q 471 575 461 563 q 488 593 481 587 q 498 601 492 597 q 508 605 505 605 q 518 602 510 605 q 533 595 526 599 q 543 589 541 591 q 545 582 545 587 q 546 578 546 580 q 545 574 546 576 l 544 571 q 540 566 543 570 q 532 556 536 562 q 488 496 511 532 q 460 444 475 476 q 437 389 445 412 q 422 338 428 361 q 416 301 418 318 l 416 292 q 427 256 416 264 l 431 254 l 442 260 q 531 351 494 292 q 583 472 568 410 l 584 479 q 590 532 590 507 q 578 595 590 566 q 513 663 558 644 q 484 670 503 667 q 453 673 466 673 q 316 624 386 670 q 193 500 245 577 q 136 388 155 444 q 129 359 132 374 q 121 293 121 323 q 161 180 121 224 q 177 167 169 172 q 195 158 184 162 q 204 155 201 157 q 208 152 208 153 q 215 149 209 151 q 230 146 222 147 q 245 144 238 144 l 252 144 q 351 168 300 144 q 365 174 360 172 q 372 176 370 176 q 376 176 374 176 q 385 169 384 174 q 385 165 385 167 q 385 161 385 163 q 378 152 383 157 q 371 148 377 151 q 359 141 366 144 q 247 115 300 115 l 241 115 q 213 118 229 115 q 186 125 197 121 m 269 313 q 367 415 321 342 q 385 451 376 430 q 397 484 394 471 q 403 505 401 495 q 407 527 406 518 q 404 552 407 541 q 395 566 401 563 q 393 567 394 567 q 375 557 387 567 q 342 524 360 546 q 279 428 306 479 q 245 342 253 377 q 243 330 244 336 q 243 321 243 325 q 248 308 243 311 q 251 307 250 307 q 254 307 253 307 q 258 308 255 307 q 269 313 262 309 z "},"A":{"ha":878,"x_min":-47,"x_max":925,"o":"m 481 19 q 407 121 407 30 q 418 204 407 157 q 614 612 448 351 q 630 639 624 628 q 637 650 637 650 l 631 652 q 618 653 626 652 q 585 659 602 656 q 545 667 568 661 q 500 675 525 671 q 454 682 475 679 q 428 685 433 685 q 425 684 427 685 q 419 680 422 683 q 410 670 416 676 q 393 654 404 664 q 74 273 222 476 q 39 225 53 244 q 16 194 24 205 q 2 176 7 182 q -5 168 -3 170 q -9 165 -7 165 q -22 163 -15 163 l -25 163 q -41 166 -34 163 q -47 174 -47 170 q -26 209 -47 178 q 27 282 -5 239 q 93 369 59 326 q 223 526 151 444 q 288 598 257 565 q 361 675 318 631 l 373 688 l 357 687 q 229 655 310 685 q 211 649 217 651 q 202 647 205 647 q 192 646 198 646 l 187 646 q 176 648 180 646 q 165 653 170 649 q 162 659 162 656 q 165 665 162 661 q 197 681 172 670 q 245 699 221 691 q 372 719 310 719 l 404 719 l 409 724 q 420 734 414 728 q 751 960 608 910 q 819 972 788 972 q 875 960 850 972 q 911 901 911 944 q 896 834 911 873 q 833 707 871 772 q 827 695 829 700 q 823 690 824 690 q 824 689 823 689 q 850 696 828 689 q 873 704 866 702 q 886 706 880 706 q 908 700 902 706 q 910 696 910 698 q 902 688 910 692 q 877 679 894 685 q 842 666 859 672 q 817 659 825 661 l 802 654 l 796 645 q 785 629 792 639 q 779 621 782 625 q 762 593 775 613 q 734 551 749 574 q 593 328 637 404 q 523 186 549 252 q 504 131 509 152 q 499 89 499 110 q 500 67 499 75 q 505 54 502 60 l 507 52 l 516 56 q 639 157 564 81 q 768 311 709 232 q 879 443 821 380 q 890 452 885 450 q 901 454 895 454 l 904 454 q 913 452 909 454 q 922 449 918 451 q 925 445 925 446 q 908 422 925 444 q 870 374 892 401 q 831 326 849 347 q 802 290 819 311 q 770 254 784 270 q 737 215 756 237 q 702 174 718 193 q 650 115 671 138 q 612 77 629 93 q 559 35 581 48 q 516 19 538 22 q 503 18 509 18 l 499 18 q 481 19 492 18 m 655 677 q 662 688 656 679 q 675 710 668 698 q 793 930 786 889 l 793 931 q 794 934 794 933 q 793 936 794 935 q 791 937 793 937 l 790 937 q 779 934 787 936 l 778 934 q 714 909 752 928 q 543 795 633 870 q 506 762 526 780 q 471 730 486 744 q 455 714 456 717 q 466 711 455 713 q 515 703 484 709 q 568 692 546 696 q 589 687 579 689 l 600 684 q 610 683 602 684 q 626 680 617 682 q 643 677 635 678 q 652 675 650 675 q 653 676 652 675 q 655 677 654 677 z "},"B":{"ha":935,"x_min":-47,"x_max":1036,"o":"m 214 223 q 523 367 307 319 q 549 373 532 369 q 583 380 566 376 q 654 395 626 389 q 684 401 682 401 q 687 410 685 403 q 692 427 690 417 q 697 444 695 436 q 701 466 701 456 q 702 481 702 476 q 701 496 702 489 q 672 537 694 524 q 614 547 652 547 q 593 547 604 547 l 568 545 l 545 537 q 420 506 454 506 q 391 510 404 506 q 374 520 378 514 q 371 526 371 523 q 373 530 371 528 q 394 543 377 535 q 414 553 402 547 q 435 562 426 558 q 711 717 611 638 q 831 839 783 775 q 863 901 857 871 q 864 916 864 909 q 853 941 864 932 q 847 943 850 942 q 838 943 844 943 q 766 928 811 942 q 671 892 720 914 q 452 746 569 845 q 433 729 439 735 q 424 720 427 724 q 418 710 420 715 q 322 561 380 646 q 210 407 263 475 q 124 310 164 350 q 61 258 84 269 q 43 251 52 253 q 22 250 35 250 q -27 266 -14 250 q -28 269 -28 268 q -28 271 -28 270 l -28 272 q -27 276 -28 273 q -22 284 -26 278 q -14 298 -18 290 q -3 314 -9 304 q 8 330 3 323 q 138 530 98 467 q 232 671 188 607 q 354 861 332 817 q 373 924 373 901 q 367 943 373 936 q 343 948 359 948 q 300 943 326 948 q 197 906 250 931 q 97 839 144 879 q 22 760 50 800 q 7 731 12 745 q 3 709 3 718 l 3 706 q 4 703 3 704 q 6 701 5 702 q 12 700 8 701 q 16 698 14 699 q 18 696 18 697 q 20 693 20 695 q 19 691 20 692 q 10 685 18 689 q 3 682 6 683 q -8 682 -1 682 q -24 683 -18 682 q -35 690 -30 685 q -47 722 -47 703 q -41 753 -47 736 q 36 845 -22 795 q 161 928 93 895 q 306 974 231 962 q 349 976 323 976 q 389 973 374 976 q 449 949 426 966 q 480 904 473 932 q 482 879 482 894 q 479 852 481 865 q 474 835 477 846 q 468 815 471 825 q 463 802 465 806 q 462 799 462 800 q 465 800 463 799 q 475 808 468 803 q 760 961 614 915 q 850 975 802 975 q 880 973 864 975 q 961 937 945 964 q 977 890 977 910 q 961 833 977 865 q 790 655 913 739 q 741 624 765 637 q 684 595 717 610 q 667 586 673 589 q 659 581 661 583 l 656 580 q 659 579 657 579 q 678 577 665 579 q 703 573 691 575 q 824 486 794 551 q 830 468 827 478 q 834 450 833 458 q 835 446 834 448 q 836 445 836 445 q 865 456 839 445 q 923 484 890 468 l 931 488 q 971 508 957 500 q 994 518 986 515 q 1004 522 1001 521 q 1008 522 1006 522 l 1012 522 l 1013 522 q 1036 515 1029 522 q 1036 513 1036 514 l 1036 512 q 1033 508 1036 511 q 1021 501 1029 505 q 999 489 1013 496 q 962 471 984 481 q 906 443 928 453 q 858 422 884 433 q 842 416 848 419 q 836 412 836 413 q 805 311 829 359 q 692 160 767 228 q 517 48 616 92 q 391 16 457 23 q 353 14 372 14 q 281 22 316 14 q 198 62 230 34 q 165 130 165 90 l 165 131 q 214 223 166 172 m 359 66 q 454 110 401 77 q 634 297 566 174 q 648 323 640 308 q 662 351 656 338 q 670 368 669 364 l 671 370 l 663 368 q 589 352 638 363 q 448 315 504 335 q 285 225 342 280 q 241 161 241 182 q 240 138 240 140 q 271 77 240 98 q 323 62 292 62 q 359 66 340 62 z "},"C":{"ha":627,"x_min":-47,"x_max":674,"o":"m 119 20 q -3 100 41 33 q -40 195 -28 138 q -46 229 -44 214 q -47 267 -47 244 l -47 306 q -43 346 -47 322 q 8 515 -31 422 q 104 691 47 608 q 217 829 155 768 q 417 958 315 927 q 504 972 458 971 l 517 972 q 596 960 562 972 q 672 892 660 940 q 674 868 674 883 q 671 838 673 852 q 638 747 664 798 q 579 656 612 696 q 547 625 557 629 q 536 623 542 623 q 530 624 533 623 q 516 629 519 625 q 515 631 515 631 q 517 634 515 633 q 521 639 518 635 q 551 676 534 652 q 581 723 568 701 q 615 814 606 773 q 617 836 617 824 l 617 842 q 614 869 617 859 q 551 926 602 916 q 534 928 543 928 q 446 895 497 928 q 209 627 319 808 q 77 296 103 446 q 72 232 72 262 q 108 92 72 148 q 129 68 117 78 q 154 54 142 58 q 166 53 159 53 q 241 75 193 53 q 465 241 319 110 q 516 292 479 256 q 593 370 553 328 q 614 390 605 381 q 625 399 623 398 q 640 402 630 402 q 655 399 650 402 q 660 396 659 397 q 661 393 661 395 q 598 324 661 389 q 537 261 565 288 q 460 190 509 234 q 352 97 394 130 q 270 46 309 65 q 193 20 231 26 q 165 18 181 18 l 156 18 q 119 20 134 18 z "},"D":{"ha":1036,"x_min":-47,"x_max":1104,"o":"m 385 18 q 309 48 333 24 q 288 96 290 66 l 288 102 q 322 199 288 147 q 531 353 387 296 q 753 406 623 388 l 781 410 l 785 418 q 821 504 804 455 q 850 596 839 553 q 865 707 865 659 q 857 767 865 740 q 846 791 853 780 q 833 807 840 802 q 823 811 827 811 q 817 812 819 812 q 802 810 811 812 q 534 661 696 789 q 413 553 481 618 q 382 523 392 533 q 367 505 372 513 q 354 485 361 498 q 218 294 294 387 q 87 159 142 201 q 57 140 68 145 q 28 136 45 136 l 25 136 q -6 144 3 136 q -10 149 -9 147 q -10 151 -10 150 l -10 154 q 7 187 -9 159 q 48 254 23 215 q 91 323 69 288 q 160 435 113 358 q 177 463 166 444 q 200 499 189 481 q 294 662 263 600 q 345 782 326 723 q 366 882 366 844 l 366 889 q 337 941 366 931 q 313 943 329 943 q 283 941 298 943 q 91 819 179 916 q 31 732 54 778 q 0 618 0 671 l 0 613 q 1 591 0 600 q 5 577 3 583 q 8 573 7 574 q 12 572 9 572 q 16 572 14 572 q 21 570 19 571 q 26 565 26 568 q 25 562 26 564 q 12 556 20 557 q -1 555 4 555 q -15 557 -8 555 q -47 608 -43 564 q -47 621 -47 614 q -24 713 -47 661 q 159 919 31 837 q 268 966 224 959 q 332 972 312 972 q 412 957 375 972 q 437 941 425 951 q 458 920 450 931 q 483 833 483 886 q 475 766 483 802 q 454 696 468 734 q 426 623 441 657 l 422 614 l 428 619 q 461 649 450 640 q 478 663 471 658 q 690 808 592 758 q 796 845 747 837 q 836 847 813 847 q 874 845 859 847 q 984 764 951 830 q 1005 664 1005 722 q 981 525 1005 602 q 969 490 977 509 q 956 456 962 471 q 952 449 954 452 q 951 446 951 446 q 965 450 952 446 q 994 460 977 454 q 1023 472 1010 467 q 1050 483 1038 478 q 1065 488 1061 487 q 1078 490 1072 490 q 1091 488 1085 490 q 1104 478 1104 485 q 1102 474 1104 476 q 1097 470 1101 473 q 1084 464 1093 468 q 949 414 1020 433 q 937 410 942 412 q 932 408 932 409 q 927 401 931 408 q 918 385 924 395 q 557 52 777 149 q 407 18 475 18 q 385 18 395 18 m 422 59 q 575 145 497 80 q 722 308 653 210 q 741 338 731 322 q 758 367 751 355 q 765 380 765 378 l 763 380 q 752 380 760 380 q 724 375 740 378 q 694 371 707 373 q 627 355 663 365 q 565 335 591 345 q 527 317 550 329 q 489 298 503 306 q 357 146 381 230 q 354 132 355 138 q 353 117 353 126 l 353 114 q 369 68 353 84 q 386 56 378 58 q 398 55 394 55 q 422 59 408 55 z "},"E":{"ha":751,"x_min":-47,"x_max":832,"o":"m 156 1 q 112 9 135 3 q -33 136 9 40 q -47 212 -46 170 l -47 222 q -28 330 -47 275 q 54 465 0 412 q 262 551 132 546 q 282 552 271 552 q 304 551 293 552 q 346 549 328 551 q 355 548 351 548 q 359 547 358 547 l 356 551 q 347 562 353 555 q 295 653 305 612 q 284 718 284 694 q 298 793 284 755 q 383 903 324 858 q 513 969 441 947 q 651 990 587 990 q 763 970 712 990 q 818 924 803 951 q 832 873 832 897 q 829 846 832 860 q 811 806 824 829 q 781 764 798 783 q 739 721 762 741 q 698 693 715 702 q 689 690 692 691 q 678 689 685 689 q 653 696 659 689 q 652 699 652 698 q 653 702 652 701 q 663 709 655 705 q 683 723 673 714 q 709 746 693 731 q 775 853 770 806 l 775 859 q 759 906 775 883 q 713 941 741 932 q 692 944 704 944 q 614 922 660 944 q 515 842 555 893 q 460 728 474 790 q 457 699 458 713 q 457 680 457 685 q 458 650 457 663 q 475 594 462 621 q 519 524 488 568 q 543 485 540 494 q 547 473 547 477 q 543 463 547 467 q 499 450 532 450 q 446 465 467 450 q 426 475 439 469 q 403 485 413 481 q 372 492 385 490 q 345 494 359 494 l 333 494 q 230 450 271 494 q 123 246 157 372 q 111 165 111 200 q 119 115 111 136 q 170 52 134 70 q 177 48 174 50 q 183 47 180 47 q 193 47 186 47 q 246 56 214 47 q 555 244 381 95 q 636 317 610 292 q 665 348 648 330 q 715 402 682 365 q 726 413 721 408 q 733 419 731 418 q 751 422 741 422 q 769 419 761 422 q 779 412 778 416 q 780 410 780 411 q 779 408 780 409 q 776 401 779 406 q 767 389 773 397 q 722 335 750 367 q 671 279 694 302 q 585 199 638 245 q 481 119 531 154 q 234 2 345 19 q 211 1 226 1 q 185 0 195 0 q 170 0 174 0 q 156 1 161 0 z "},"F":{"ha":676,"x_min":-47,"x_max":676,"o":"m 66 18 q 41 30 50 21 q 36 35 37 33 q 35 41 35 37 q 38 55 35 47 q 51 80 41 63 q 81 128 61 97 q 101 161 92 145 q 114 183 111 176 q 122 198 119 193 q 130 212 125 204 q 144 233 135 219 q 237 363 178 284 q 272 411 254 387 q 302 453 290 435 q 315 471 315 471 q 312 473 315 472 q 304 474 310 473 q 287 477 298 475 q 257 478 278 478 q 216 478 236 479 q 189 477 195 478 q 94 440 131 467 q 73 428 81 431 q 52 425 66 425 q 18 443 18 426 q 39 469 18 454 q 90 494 60 484 q 219 514 149 514 q 315 505 265 514 q 329 503 323 504 q 336 502 335 502 q 356 528 337 502 q 397 590 374 555 q 437 652 420 625 q 534 859 516 780 q 537 873 536 867 q 538 888 538 880 q 536 907 538 900 q 530 921 534 915 q 521 928 526 927 q 507 930 516 930 l 500 930 q 302 873 425 927 q 77 744 180 820 q 51 724 62 733 q 28 703 40 714 q 16 690 22 696 q 6 679 10 684 q 3 672 3 673 q 4 670 3 671 q 6 668 5 669 q 9 665 8 666 q 9 663 9 664 q 9 662 9 663 q -10 656 7 656 l -14 656 q -25 656 -21 656 q -33 659 -29 657 q -47 676 -47 665 q -47 682 -47 679 q -13 725 -43 696 q 224 885 71 808 q 421 960 334 939 q 522 972 476 972 q 599 962 564 972 q 673 859 673 937 q 672 838 673 849 q 659 783 668 810 q 591 648 637 726 q 494 500 546 570 q 482 483 487 490 q 477 475 477 476 q 482 474 477 475 q 493 473 488 473 q 502 473 498 473 l 509 473 q 559 479 540 475 q 583 486 568 481 q 612 496 598 491 q 631 503 626 500 q 651 508 639 507 q 671 504 664 508 q 676 496 676 500 q 675 492 676 494 q 651 478 672 487 q 606 462 630 469 q 553 451 577 454 q 493 448 528 448 l 456 448 l 446 433 q 410 384 435 418 q 358 316 384 350 q 324 271 333 283 q 277 213 295 234 q 238 170 260 193 q 217 148 227 159 q 201 131 206 136 q 140 59 158 80 q 121 36 122 37 q 118 28 119 31 q 113 24 116 26 q 95 18 104 20 q 81 17 86 17 q 66 18 74 17 z "},"G":{"ha":795,"x_min":-47,"x_max":863,"o":"m 83 18 q -43 80 -19 26 q -46 88 -45 85 q -47 95 -47 91 q -47 106 -47 99 q -47 121 -47 116 q -44 131 -46 125 q -34 151 -40 142 q -16 172 -27 161 q 129 245 29 218 q 326 281 207 267 q 383 290 355 286 q 429 297 411 294 q 449 301 448 300 l 451 304 q 457 311 454 307 q 526 409 492 354 q 545 441 534 421 q 569 481 557 460 q 589 516 581 501 q 597 532 597 530 l 597 532 q 594 531 595 532 q 493 473 551 503 q 399 429 435 444 q 357 417 375 420 q 317 412 339 413 l 311 412 q 174 502 203 412 q 168 528 170 515 q 167 557 167 540 l 167 559 q 210 708 167 631 l 220 726 l 216 732 q 212 739 214 734 q 207 748 209 743 q 196 779 199 764 q 193 814 193 794 q 210 885 194 866 q 233 892 218 892 q 256 884 249 892 q 258 881 258 883 q 259 876 259 880 q 258 866 259 872 q 256 847 258 859 q 254 819 254 831 q 254 803 254 807 q 256 785 254 791 l 257 777 l 277 797 q 465 920 351 872 q 701 972 591 972 q 792 962 753 972 q 848 931 831 951 q 854 925 851 929 q 859 916 857 920 q 862 909 861 912 q 863 903 863 907 q 863 895 863 900 q 861 876 863 883 q 853 857 859 868 q 762 767 829 814 q 608 688 694 721 q 433 652 524 656 q 418 651 426 651 q 383 653 402 651 q 338 659 355 655 l 337 659 q 336 659 336 659 q 333 655 334 658 q 328 647 331 652 q 285 543 297 596 q 282 527 283 534 q 281 505 281 520 q 282 490 281 496 q 282 481 282 485 q 284 474 283 478 q 320 443 294 443 l 326 443 q 589 564 420 456 q 610 577 601 571 q 623 584 620 583 q 637 586 630 586 q 648 587 644 587 q 660 586 654 587 q 692 564 684 581 q 699 529 699 549 q 690 474 699 505 q 673 427 684 453 q 650 378 662 400 q 645 369 646 372 q 601 302 643 366 q 445 146 538 215 q 158 22 307 42 q 139 20 151 21 q 118 18 126 18 q 106 18 109 18 l 102 18 q 96 18 101 18 q 83 18 90 18 m 451 673 q 690 758 579 687 q 777 852 764 808 q 779 868 779 861 q 774 891 779 880 q 765 904 771 898 q 753 912 758 910 q 743 913 749 913 q 726 912 736 913 q 680 903 707 909 q 465 798 565 872 q 357 690 402 751 q 355 688 356 689 q 351 681 351 684 l 351 680 q 363 677 353 679 q 368 676 366 676 q 418 671 391 671 q 451 673 434 671 m 121 66 q 345 193 221 90 q 383 230 361 208 q 414 262 406 252 l 420 269 l 416 268 q 395 265 413 267 q 356 259 378 262 q 316 254 334 256 q 136 213 205 238 q 24 113 24 172 l 24 109 q 72 62 27 67 l 95 62 q 121 66 109 64 z "},"H":{"ha":966,"x_min":-47,"x_max":1014,"o":"m 552 19 q 467 113 476 32 q 465 138 465 122 l 465 149 q 469 186 466 172 q 582 464 488 298 q 666 602 625 538 l 677 618 l 661 620 q 630 624 649 621 q 577 631 612 626 q 539 637 562 634 q 511 642 524 640 q 485 645 496 644 q 471 647 473 647 l 470 648 l 469 647 q 466 644 468 646 q 460 637 464 642 q 452 625 457 633 q 436 603 445 615 q 420 582 427 591 q 356 498 375 523 q 327 460 337 473 q 308 436 319 451 q 285 408 296 420 q 215 320 243 353 q 159 259 186 287 q 132 229 148 247 q 102 196 115 212 q 74 165 84 176 q 59 149 64 154 q 50 141 54 144 q 18 134 38 134 l 14 134 q -18 144 -7 135 q -21 150 -21 146 l -21 153 q -11 175 -20 160 q 16 218 -3 190 q 39 255 31 242 q 54 282 47 268 q 97 349 70 311 q 148 419 117 376 q 197 485 178 461 q 243 549 215 510 q 301 630 272 589 q 306 637 304 634 q 321 662 321 658 q 315 665 321 665 q 305 664 311 665 l 300 664 q 243 655 269 661 q 185 635 217 648 q 158 624 166 627 q 143 622 149 622 l 140 622 q 115 635 115 625 q 140 657 115 642 q 258 694 184 682 q 280 696 269 696 q 312 697 292 697 q 338 697 328 697 q 349 699 349 698 q 359 712 351 700 q 377 739 367 724 q 394 766 387 755 q 456 896 452 859 q 457 907 457 902 q 446 932 457 924 q 427 935 441 935 q 397 932 412 935 q 186 833 306 910 q 43 707 99 777 q 10 660 24 684 q -5 625 -3 637 q -8 616 -5 619 q -16 612 -10 614 q -25 612 -20 612 q -33 612 -29 612 q -45 621 -41 615 q -47 633 -47 625 l -47 637 q -43 659 -47 647 q -36 676 -40 669 q -24 696 -33 684 q 29 760 -5 726 q 184 880 96 827 q 356 959 273 934 q 446 972 404 972 q 477 970 462 972 q 559 934 532 964 q 577 882 577 914 q 574 850 577 865 q 562 812 570 835 q 536 756 554 791 q 498 692 517 722 q 493 684 495 687 q 491 680 491 680 q 513 676 492 680 q 564 669 534 673 q 619 661 593 665 q 697 650 690 650 l 698 650 q 702 656 699 650 q 711 669 706 661 q 840 828 775 757 q 859 848 852 841 q 870 860 865 856 q 880 869 875 865 q 909 888 896 883 q 939 894 922 894 q 990 867 986 893 q 991 863 991 865 q 989 854 991 859 q 979 832 986 846 q 957 795 972 819 q 908 727 941 772 q 871 673 871 675 q 880 675 873 673 q 896 680 886 677 l 913 685 q 930 690 924 688 q 955 694 944 694 l 959 694 q 977 686 972 692 q 979 682 979 684 q 977 679 979 681 q 963 671 974 675 q 853 635 926 652 l 841 632 l 833 621 q 812 590 828 614 q 781 543 797 567 q 760 510 765 519 q 577 145 602 262 q 573 104 573 123 q 574 84 573 94 q 583 62 578 70 q 591 54 587 54 l 593 54 q 739 165 644 68 q 777 204 762 187 q 813 246 792 221 q 908 370 873 318 q 915 379 911 375 q 921 387 918 382 q 930 399 924 391 q 959 435 949 423 q 976 450 968 446 q 991 454 983 454 l 996 454 q 1006 452 1002 454 q 1014 448 1013 451 q 1014 446 1014 447 q 1013 444 1014 445 q 1011 439 1013 442 q 1006 432 1009 437 q 998 420 1003 427 q 985 402 993 412 q 972 384 977 391 q 964 373 968 378 q 956 362 961 369 q 922 320 947 351 q 887 275 906 300 q 854 233 867 250 q 791 157 815 184 q 742 104 768 130 q 652 33 689 53 q 607 19 631 23 q 585 18 595 18 q 571 18 574 18 q 552 19 559 18 z "},"I":{"ha":505,"x_min":-47,"x_max":573,"o":"m 15 18 q -16 39 -16 25 q -2 81 -16 47 q 19 120 5 98 q 34 144 25 130 q 52 172 43 159 q 69 199 60 185 q 83 223 78 214 q 142 313 123 283 q 171 357 161 342 q 188 383 178 367 q 208 414 199 399 q 234 453 218 429 q 264 500 250 478 q 392 704 351 633 q 448 817 433 774 q 463 885 463 857 q 437 937 463 922 q 401 943 425 943 q 344 937 378 943 q 58 806 195 908 q 32 783 45 795 q 13 762 20 770 q 6 751 6 754 q 7 751 6 751 q 9 749 8 751 q 12 747 11 748 q 13 745 13 746 q 8 740 13 743 q -4 736 3 738 q -18 735 -12 735 q -38 740 -29 735 q -47 750 -47 745 q -44 761 -47 753 q -37 774 -41 768 q 28 835 -19 800 q 135 899 76 869 q 369 970 255 958 q 394 972 378 972 q 425 972 410 972 q 446 972 439 972 q 530 941 500 964 q 572 866 567 913 q 573 853 573 860 q 488 617 573 770 q 409 484 459 565 q 326 356 358 403 q 268 275 303 324 q 200 183 232 226 q 164 135 181 157 q 142 103 148 112 q 121 76 132 88 q 90 46 110 64 q 62 24 71 28 q 30 17 48 17 q 15 18 22 17 z "},"J":{"ha":797,"x_min":-47,"x_max":777,"o":"m 64 18 q -23 52 5 25 q -47 108 -45 73 l -47 115 q -8 227 -47 165 q 232 404 66 338 q 488 465 338 444 l 519 469 l 524 477 q 566 577 545 521 q 598 683 586 633 q 615 810 615 755 q 607 880 615 849 q 587 918 600 907 q 556 930 575 930 q 544 929 550 930 q 442 882 500 920 q 318 795 384 844 q 287 771 302 783 q 278 764 279 766 q 277 761 277 762 q 280 755 277 758 q 283 750 283 752 q 281 747 283 749 q 273 744 277 744 q 267 744 268 744 q 254 747 260 744 q 244 764 244 754 q 249 780 244 771 q 290 825 262 801 q 349 870 319 849 q 397 903 379 891 q 406 909 403 907 q 512 960 462 947 q 593 972 562 972 q 656 963 625 972 q 753 876 716 945 q 777 760 777 827 q 750 601 777 690 q 736 561 744 583 q 706 495 728 538 q 677 440 684 451 q 262 56 515 168 q 89 17 168 17 q 64 18 76 17 m 108 66 q 283 163 193 89 q 451 352 372 238 q 474 387 462 368 q 493 419 486 406 q 501 435 501 433 l 499 435 q 486 434 495 435 q 453 429 472 432 q 420 424 435 427 q 342 406 384 417 q 271 382 300 394 q 227 362 254 376 q 184 339 200 349 q 31 165 60 262 q 28 150 29 157 q 27 132 27 142 l 27 127 q 45 75 27 94 q 65 62 56 64 q 79 61 75 61 q 108 66 91 61 z "},"K":{"ha":756,"x_min":-47,"x_max":905,"o":"m 375 19 q 302 78 321 29 q 296 103 298 90 q 293 136 294 117 l 293 149 q 298 207 293 177 q 320 305 304 244 q 328 334 324 320 q 334 355 332 349 q 352 430 347 398 q 357 475 357 461 q 355 490 357 485 q 340 492 354 492 q 318 496 326 493 l 311 498 l 304 490 q 275 453 294 477 q 236 404 256 429 q 215 379 224 391 q 201 362 205 366 q 192 350 198 358 q 179 334 185 342 q 144 289 160 309 q 120 260 128 269 q 100 239 113 252 q 75 217 87 227 q 58 204 63 207 q 31 199 46 199 l 24 199 q -6 207 5 199 q -11 213 -11 210 q -11 216 -11 216 q -7 230 -11 221 q -4 240 -6 235 q -1 249 -2 245 q 30 302 3 268 q 42 319 35 308 q 57 340 50 330 q 81 374 71 361 q 107 411 91 388 q 155 480 130 444 q 197 539 180 516 q 211 561 204 551 q 220 574 218 570 q 262 636 236 597 q 304 700 289 676 q 406 907 406 859 l 406 911 q 386 941 406 937 q 376 941 382 941 q 362 941 370 941 q 330 936 347 939 q 164 861 252 918 q 24 736 77 804 q 2 701 11 718 q -9 673 -7 684 l -9 668 q -7 666 -9 667 q -4 661 -4 664 l -4 661 q -8 656 -4 658 q -18 654 -12 654 l -22 654 q -37 656 -31 654 q -45 663 -43 659 q -47 674 -47 667 q -23 733 -47 695 q 30 794 -4 762 q 101 855 63 827 q 282 953 195 922 q 394 972 340 972 q 410 971 402 972 q 519 908 498 964 q 523 880 523 895 q 479 747 523 829 q 430 665 456 705 q 366 571 404 625 q 355 556 359 563 q 349 549 351 551 l 347 545 l 354 548 q 405 569 376 556 q 457 594 435 582 q 651 735 553 644 q 769 856 708 788 q 854 958 831 923 q 860 966 858 964 q 865 970 863 968 q 880 972 872 972 q 886 972 882 972 q 902 964 897 970 q 905 961 904 962 q 905 958 905 960 q 905 956 905 957 q 871 896 902 937 q 798 810 844 860 q 709 722 751 761 q 544 601 633 654 q 496 575 526 590 q 441 549 467 561 q 426 543 432 545 l 419 539 q 422 538 419 538 q 431 536 426 537 q 505 492 488 526 q 511 472 509 482 q 513 443 513 463 q 511 407 513 423 q 503 368 509 391 q 485 311 500 355 q 450 210 470 267 q 425 142 433 165 q 415 107 417 118 q 414 88 414 97 l 414 82 q 420 57 415 57 q 427 60 421 57 q 441 68 433 63 q 455 77 449 73 q 571 193 505 114 q 631 271 591 217 q 653 302 640 283 l 679 338 q 735 417 718 392 q 756 449 753 442 q 762 454 756 452 q 776 456 768 456 q 790 454 784 456 q 795 447 795 452 q 794 441 795 445 q 778 416 791 437 q 743 366 764 395 q 719 331 733 351 q 693 292 705 311 q 625 198 652 233 q 564 123 598 162 q 486 47 516 70 q 424 19 455 24 q 399 18 413 18 q 375 19 385 18 z "},"L":{"ha":709,"x_min":-47,"x_max":756,"o":"m 469 18 q 305 90 385 25 q 288 106 300 94 q 262 131 276 117 l 231 163 l 227 160 q 199 145 208 150 q 180 136 189 140 q 68 102 120 109 q 43 100 56 100 l 34 100 q 3 104 16 100 q -19 111 -8 106 q -35 120 -29 115 q -47 151 -47 132 q -47 161 -47 155 q -19 212 -42 186 q 54 254 12 244 q 127 264 96 264 q 183 258 155 264 l 197 256 l 201 260 q 216 274 205 263 q 239 298 227 285 q 260 320 252 311 q 435 553 347 414 q 464 600 453 582 q 491 648 475 618 q 524 714 507 678 q 552 775 541 749 q 569 818 559 789 q 583 867 579 847 q 587 895 587 886 q 580 920 587 911 q 553 932 570 932 q 545 931 549 932 q 497 919 522 929 q 455 900 472 909 q 253 716 332 831 q 225 655 225 675 q 226 649 225 650 q 229 645 227 647 q 231 640 231 642 q 229 636 231 639 q 226 635 228 635 q 222 634 224 634 q 214 634 219 634 q 202 634 205 634 q 194 637 198 635 q 179 661 179 643 l 179 664 q 192 707 179 681 q 269 811 218 757 q 380 907 320 866 q 500 963 443 949 q 530 970 517 968 q 559 972 543 972 l 566 972 q 660 948 629 972 q 695 895 692 922 q 697 857 697 867 q 685 774 697 819 q 670 724 680 753 q 650 675 659 695 q 625 622 640 650 q 601 576 611 593 q 553 497 581 541 q 505 426 526 454 q 323 230 422 314 q 304 215 314 222 q 290 204 295 208 l 294 200 q 304 189 298 195 q 320 172 311 182 q 338 151 330 161 q 494 47 423 47 q 503 48 498 47 q 563 59 536 49 q 630 96 589 69 q 684 128 659 113 q 715 146 709 143 q 729 148 720 148 q 745 146 739 148 q 753 141 750 144 q 756 136 756 138 q 755 134 756 135 q 751 130 754 132 q 742 123 748 127 q 727 113 736 119 q 701 96 716 106 q 672 77 685 86 q 609 41 635 53 q 555 24 583 29 q 516 19 534 20 q 488 18 499 18 q 469 18 478 18 m 56 155 q 155 218 104 175 l 159 222 l 151 224 q 134 225 142 225 q 62 201 96 225 q 43 179 51 193 q 35 152 35 165 q 35 148 35 149 q 37 148 36 148 l 39 148 q 45 150 40 148 q 56 155 50 152 z "},"M":{"ha":1109,"x_min":-47,"x_max":1211,"o":"m 722 38 q 675 83 683 45 q 673 91 673 86 q 672 104 673 96 q 672 126 672 112 q 673 157 672 148 q 675 177 673 167 q 770 404 694 274 q 945 648 824 495 q 977 689 958 665 q 1013 736 996 713 q 1037 768 1030 758 q 1060 802 1048 784 q 1080 836 1072 821 q 1081 838 1080 836 q 1085 846 1085 844 q 1084 847 1085 847 l 1083 847 q 1063 838 1080 847 q 1059 836 1061 837 q 816 663 945 779 q 760 608 792 641 q 703 549 727 575 q 687 531 692 538 q 677 519 681 524 q 671 508 674 515 q 624 434 654 477 q 564 355 593 391 q 543 331 551 339 q 528 319 534 323 q 513 313 522 315 q 494 311 505 311 l 488 311 q 463 313 473 311 q 438 338 438 321 q 448 373 438 347 q 472 427 455 395 q 532 530 490 458 q 564 582 550 559 q 580 612 577 605 q 588 628 585 622 q 590 637 590 635 l 590 637 l 589 637 q 577 633 587 637 q 550 621 566 629 q 519 604 534 613 q 284 432 415 545 q 256 407 265 416 q 239 388 246 397 q 220 363 231 379 q 110 231 162 284 q 86 208 95 216 q 69 197 77 200 q 50 193 61 194 q 38 193 43 193 q 11 197 24 193 q -7 214 -7 203 q 10 259 -7 224 q 52 335 27 295 q 93 401 77 376 q 131 463 109 427 q 185 548 164 514 q 236 635 205 582 q 345 875 334 804 q 347 888 347 884 q 346 897 347 892 l 344 905 l 337 905 q 277 892 318 905 q 199 860 236 878 q 68 761 127 822 q 19 706 39 731 q -1 671 -1 680 q 0 670 -1 671 q 4 667 2 669 q 9 663 9 665 q 7 660 9 661 q -14 655 1 656 q -31 657 -24 655 q -43 664 -38 659 q -46 668 -45 667 q -47 671 -47 669 q -47 676 -47 673 q 7 768 -41 708 q 35 797 17 778 q 64 825 54 816 q 245 932 140 893 q 363 954 309 954 q 432 944 399 954 q 492 867 492 925 q 491 854 492 861 q 350 551 484 751 q 339 535 342 540 q 336 529 336 530 q 340 532 337 529 q 396 575 366 553 q 449 612 427 597 q 591 680 542 671 q 620 681 602 681 q 648 680 637 682 q 703 646 690 672 q 707 637 706 642 q 708 623 707 633 l 709 607 l 728 625 q 819 711 769 666 q 977 837 909 793 q 1098 894 1053 888 q 1121 895 1109 895 l 1129 895 q 1159 892 1147 895 q 1211 838 1211 878 q 1208 815 1211 827 q 1019 538 1187 740 q 975 483 993 506 q 939 438 956 460 q 757 108 775 222 q 756 96 756 102 q 756 87 756 90 l 756 80 q 758 73 757 73 l 758 73 q 764 75 760 73 q 776 82 769 77 q 790 92 783 86 q 1019 332 870 154 q 1028 343 1024 338 q 1067 389 1041 358 q 1098 426 1085 410 q 1113 445 1111 442 q 1120 452 1116 450 q 1135 454 1124 454 q 1146 453 1143 454 q 1151 451 1149 453 q 1155 444 1155 448 q 1150 432 1155 439 q 1110 380 1143 421 q 1006 256 1077 340 q 869 104 919 152 q 788 44 819 56 q 760 37 772 38 q 742 36 748 36 q 722 38 731 36 z "},"N":{"ha":1095,"x_min":-47,"x_max":1143,"o":"m 587 19 q 509 66 528 26 q 497 117 497 88 q 570 306 497 190 q 636 399 591 340 q 784 587 681 458 q 899 740 856 677 q 963 847 947 808 q 979 892 977 878 q 981 910 981 906 q 968 935 981 927 q 954 938 963 938 q 910 927 938 938 q 661 738 808 886 q 445 494 592 669 q 429 474 437 485 q 414 458 420 464 q 334 363 366 399 q 273 299 302 328 q 196 225 225 248 q 146 197 167 201 q 121 194 136 194 q 96 197 106 194 q 62 224 68 204 q 60 243 60 231 l 60 250 q 62 280 60 266 q 104 386 71 323 q 208 560 137 449 q 236 604 220 580 q 254 631 246 620 q 271 659 263 647 q 280 673 278 670 q 304 713 286 682 q 343 777 323 744 q 372 822 363 809 q 393 862 385 844 q 410 915 410 897 q 406 929 410 924 q 380 938 399 938 q 342 932 365 938 q 231 888 288 919 q 36 741 124 829 q 13 715 21 726 q 1 696 5 705 q -3 686 -3 688 q -3 684 -3 684 q -1 677 -3 680 l 1 675 l -2 672 q -18 667 -7 667 q -37 671 -28 667 q -47 688 -47 677 q -31 725 -47 702 q 2 760 -21 737 q 44 799 24 782 q 327 957 196 924 q 403 966 359 966 l 409 966 q 489 946 456 966 q 521 882 521 926 q 520 871 521 876 q 449 701 516 817 q 384 593 416 643 q 304 476 351 543 q 267 424 280 444 q 242 388 253 404 q 214 348 231 372 q 189 308 201 328 q 170 275 176 288 q 163 261 163 263 q 205 300 167 261 q 292 388 244 338 q 373 474 339 437 q 399 504 388 491 q 425 533 410 516 q 465 581 440 551 q 622 751 546 676 q 806 911 732 862 q 901 960 854 944 q 950 971 929 970 q 977 972 971 972 q 1030 963 1005 972 q 1076 922 1061 952 q 1086 878 1086 903 q 1055 772 1086 835 q 836 463 1016 684 q 810 431 824 448 q 787 402 797 414 q 595 102 609 182 q 594 94 594 99 q 593 83 593 88 l 593 81 q 602 54 593 62 l 607 49 l 616 50 q 649 59 629 51 q 688 77 669 66 q 837 189 749 113 q 1006 351 930 273 q 1080 425 1040 385 q 1095 440 1089 433 l 1101 447 q 1106 451 1101 450 q 1118 454 1112 453 l 1122 454 q 1135 452 1130 454 q 1143 443 1143 448 q 1098 390 1143 435 q 994 287 1054 344 q 881 181 933 229 q 809 117 829 133 q 625 20 700 30 q 606 18 617 18 q 587 19 594 18 z "},"O":{"ha":781,"x_min":-47,"x_max":700,"o":"m -47 192 q -32 300 -47 253 q 23 424 -14 361 l 33 441 l 30 448 q -4 573 -2 500 l -4 588 q 26 722 -4 661 q 60 776 41 751 q 106 829 78 800 q 139 859 125 847 q 172 884 153 871 q 303 950 231 927 q 438 972 376 972 q 475 971 456 972 q 612 906 555 964 q 685 772 669 842 q 700 648 700 703 q 696 583 700 616 q 655 418 685 494 q 635 375 648 401 q 612 330 623 349 q 402 97 531 191 q 271 28 345 55 q 128 1 197 1 l 121 1 q 2 46 50 1 q -47 192 -45 90 m 177 41 q 401 160 281 61 q 445 200 418 174 q 485 242 471 226 q 615 480 579 355 q 636 632 636 557 q 630 713 636 673 q 560 877 609 836 q 461 917 511 917 q 413 910 438 917 q 251 798 334 888 q 131 604 155 694 q 126 583 128 595 q 122 563 123 570 q 121 553 121 556 q 122 551 121 551 l 125 553 q 134 560 130 556 q 160 578 145 570 q 185 590 174 586 q 233 597 207 597 l 241 597 q 304 578 286 596 q 311 564 311 572 q 309 554 311 559 q 277 506 304 539 q 237 453 258 481 q 201 405 216 425 q 186 382 186 384 q 192 377 186 380 q 204 373 197 375 q 220 370 212 370 q 231 369 225 369 q 331 396 265 369 l 353 405 l 370 405 q 391 397 389 405 l 391 395 q 389 392 391 393 q 380 386 387 389 q 359 375 373 382 q 310 353 330 360 q 263 342 290 346 q 247 340 256 340 q 221 339 238 339 q 191 340 201 339 q 165 345 181 341 q 139 300 161 344 q 90 165 100 224 q 88 136 88 152 l 88 128 q 91 94 88 107 q 111 55 98 68 q 154 38 126 38 q 177 41 164 38 z "},"P":{"ha":935,"x_min":-47,"x_max":989,"o":"m -19 0 q -47 8 -46 2 q -47 16 -47 14 q -38 43 -47 26 q 8 123 -21 75 q 64 212 37 170 q 102 270 91 254 q 363 713 279 531 q 389 773 379 749 q 405 819 398 796 q 417 873 417 857 q 418 890 418 888 q 401 928 418 916 q 376 935 392 935 q 338 928 360 935 q 132 809 227 895 q 51 713 90 768 q -3 619 12 659 q -6 608 -6 611 q -6 604 -6 605 q -5 599 -6 601 q -3 595 -3 597 q -7 591 -3 593 q -24 587 -12 587 q -45 596 -41 587 q -47 605 -47 600 q -19 678 -47 627 q 77 806 17 743 q 206 908 134 865 q 317 958 266 943 q 381 971 356 970 q 412 972 407 972 q 488 958 453 972 q 542 896 526 941 q 547 856 547 878 q 545 831 547 844 q 532 766 541 794 q 531 762 532 764 l 531 760 l 536 764 q 547 773 541 768 q 739 905 665 872 q 779 920 762 915 q 815 927 795 925 q 835 928 825 928 q 944 883 901 928 q 989 763 989 835 l 989 751 q 982 707 987 728 q 962 658 976 687 q 804 447 907 543 q 699 375 762 406 q 600 342 635 344 q 561 340 565 340 q 452 380 499 340 q 408 432 425 405 q 389 458 398 446 q 384 452 388 458 q 374 437 380 446 q 310 335 338 378 q 246 245 281 292 q 184 169 229 223 q 92 65 138 115 q 24 5 45 15 q 13 2 18 3 q -4 0 7 1 q -10 -1 -6 -1 q -19 0 -14 -1 m 711 495 q 813 667 770 571 q 829 703 825 692 q 837 728 833 715 q 848 804 848 770 q 843 846 848 827 q 805 886 831 886 q 800 885 803 886 q 730 858 770 882 q 629 792 685 833 q 520 702 572 750 l 507 690 l 486 645 q 467 605 477 625 q 451 572 457 585 q 432 538 443 557 q 413 504 422 519 q 402 484 404 488 l 399 481 l 418 481 q 435 474 433 481 q 447 457 437 469 q 471 433 457 446 q 559 387 518 387 l 561 387 q 640 418 603 387 q 711 495 677 450 z "},"Q":{"ha":869,"x_min":-47,"x_max":788,"o":"m 210 12 q 187 15 201 12 q 163 21 174 18 q 48 201 49 59 q 51 250 48 227 q 24 245 39 248 q -28 237 3 241 q -36 237 -33 237 q -47 243 -47 237 l -47 243 q -36 260 -47 251 q -4 276 -24 271 q 21 282 10 279 q 59 290 44 288 q 64 308 61 299 q 118 430 82 368 l 128 448 l 125 453 q 92 578 94 505 q 91 595 91 587 q 121 724 91 665 q 154 778 136 753 q 201 830 172 802 q 233 861 219 848 q 265 886 247 873 q 523 972 389 972 q 543 972 533 972 q 780 739 738 959 q 788 648 788 694 q 743 425 788 541 q 723 381 736 407 q 701 338 711 355 q 493 106 620 199 q 420 60 456 80 q 496 32 457 33 q 509 31 503 31 q 559 38 536 31 q 635 69 589 45 q 695 98 668 85 q 730 113 723 111 q 738 115 733 115 q 745 114 741 115 q 762 110 755 113 q 769 105 766 108 q 772 99 772 102 q 771 96 772 98 q 766 93 770 95 q 756 87 763 91 q 739 78 749 83 q 704 60 725 71 q 677 45 690 52 q 608 14 636 24 q 549 1 579 4 q 513 0 532 0 l 500 0 q 456 4 475 1 q 369 37 411 13 q 279 13 323 18 q 251 12 267 12 q 226 12 235 12 l 210 12 m 326 67 q 291 98 308 81 q 275 116 286 102 q 250 145 263 130 q 193 209 217 186 q 184 174 187 191 q 182 145 182 161 l 182 138 q 185 104 182 117 q 205 65 191 79 q 246 49 219 49 q 271 52 257 49 q 326 67 296 56 m 217 274 q 300 201 260 253 q 315 182 307 194 q 332 159 324 170 q 383 94 359 120 q 492 169 438 123 q 535 209 509 183 q 575 250 560 234 q 704 486 668 362 q 724 635 724 561 q 718 717 724 676 q 642 877 703 817 q 547 924 595 924 q 523 921 535 924 q 344 800 433 895 q 224 608 249 696 q 220 587 222 599 q 216 567 217 574 q 216 557 216 559 l 216 555 q 220 558 216 555 q 228 565 223 561 q 253 582 239 574 q 279 594 267 590 q 323 602 299 602 q 334 602 329 602 q 395 583 378 600 q 404 568 404 576 q 401 559 404 564 q 370 511 396 544 q 289 401 331 463 q 217 274 248 340 z "},"R":{"ha":854,"x_min":-47,"x_max":922,"o":"m 437 1 q 362 38 386 9 q 352 55 357 44 q 343 74 346 65 q 337 123 337 96 q 348 203 337 159 q 368 263 355 232 q 401 341 380 294 q 427 403 420 381 q 434 438 434 425 l 434 441 q 434 452 434 448 q 431 456 433 455 q 422 457 428 457 q 382 464 393 460 q 361 482 361 472 q 365 492 361 487 q 386 501 371 497 q 417 505 400 505 q 428 505 424 505 q 434 506 431 505 q 443 509 437 507 q 546 564 492 529 q 762 783 667 644 q 799 847 787 819 q 810 891 810 875 q 810 899 810 895 q 797 913 806 913 q 767 907 788 913 q 725 893 747 901 q 504 760 621 851 q 487 745 498 754 q 465 728 475 736 q 450 715 455 720 q 420 689 431 699 q 401 672 410 679 l 389 660 l 372 627 q 336 562 351 587 q 293 497 321 536 q 222 398 254 439 q 149 309 190 356 q 123 282 140 300 q 89 248 106 264 q 64 224 72 231 q 38 206 50 212 q 9 199 25 200 l 3 199 q -30 205 -15 199 q -40 212 -35 208 q -44 219 -44 216 q -43 224 -44 220 q -39 233 -41 228 q -27 257 -36 240 q -9 293 -18 275 q 5 319 0 311 q 27 354 13 332 q 51 389 41 375 q 140 519 96 451 q 214 640 184 587 q 298 795 274 745 q 321 851 314 830 q 330 888 329 873 l 330 895 q 308 935 330 925 q 302 937 305 936 q 295 937 300 937 q 281 937 290 937 q 254 936 265 937 q 225 930 243 935 q 75 863 145 910 q 27 825 48 845 q -2 791 6 805 q -4 785 -4 787 q -1 781 -4 783 q 1 778 1 779 l 1 777 q -2 774 1 776 q -11 771 -6 772 q -18 770 -16 770 q -28 771 -23 770 q -47 789 -47 774 q -1 852 -47 812 q 106 924 45 893 q 211 962 158 947 q 294 972 255 972 q 354 966 326 972 q 443 907 419 951 q 451 885 449 896 q 454 860 454 875 q 435 766 454 820 q 431 753 432 758 l 429 749 q 436 754 430 749 q 451 766 442 759 q 637 891 549 844 q 785 947 725 939 q 808 948 797 948 q 900 918 865 948 q 918 888 913 906 q 922 878 921 882 q 922 863 922 873 q 920 840 922 851 q 913 814 918 829 q 835 683 891 753 q 728 581 791 628 q 532 475 631 507 l 518 471 l 525 463 q 544 425 538 445 q 547 405 547 415 q 547 391 547 395 q 547 375 547 382 q 513 264 541 338 q 493 208 503 237 q 479 163 484 179 q 463 73 463 106 q 468 43 463 54 q 471 39 469 40 q 474 38 473 38 q 477 39 475 38 q 488 42 481 39 q 623 144 553 71 q 690 223 650 174 q 763 317 730 272 q 796 362 783 344 q 818 392 810 380 q 831 409 826 403 q 838 416 836 414 q 842 419 841 418 q 857 422 848 422 l 860 422 q 876 418 869 421 q 882 411 882 415 l 882 410 q 874 396 881 408 q 857 370 867 385 q 838 342 846 355 q 813 310 825 325 q 781 271 801 294 q 762 247 774 262 q 738 217 749 232 q 677 145 703 175 q 619 85 650 116 q 584 52 598 64 q 555 30 569 39 q 492 3 524 9 q 470 0 482 1 q 453 0 458 0 q 437 1 443 0 z "},"S":{"ha":680,"x_min":-47,"x_max":789,"o":"m -45 137 q -47 160 -47 149 q -24 233 -47 198 q -16 244 -20 238 q -7 254 -11 250 q 180 345 57 320 q 215 350 199 349 q 252 353 231 352 q 312 354 274 353 l 382 355 l 382 360 q 379 388 382 368 q 374 422 377 408 q 361 480 370 448 q 336 566 353 512 q 311 656 316 630 q 310 665 311 661 q 309 669 309 669 q 304 671 308 669 q 296 673 301 672 q 181 741 226 696 q 127 855 130 791 l 127 871 q 129 886 127 878 q 149 924 135 918 q 163 926 154 926 q 179 923 172 926 q 187 919 186 920 q 188 916 188 917 q 186 911 188 914 q 183 904 185 909 q 180 893 182 899 q 179 880 179 884 q 178 870 178 875 l 178 860 q 199 785 179 821 q 288 701 228 731 q 299 696 294 699 q 304 694 303 694 q 306 721 306 694 q 311 765 307 747 q 324 803 315 783 q 366 863 339 834 q 509 952 435 932 q 631 972 583 972 q 699 964 667 972 q 771 923 753 951 q 789 872 789 896 q 777 817 789 847 q 627 697 740 745 q 467 658 549 666 q 454 656 458 657 q 449 655 450 656 q 448 654 448 654 q 471 538 448 631 q 491 450 485 484 q 501 381 498 416 q 503 366 502 372 l 504 360 l 505 360 q 511 361 507 360 q 528 363 518 361 q 547 367 538 365 q 669 408 608 380 q 678 412 675 411 q 684 414 681 414 q 690 414 686 414 q 703 410 696 412 q 711 404 709 408 q 712 401 712 403 q 699 388 712 395 q 663 370 686 380 q 627 355 641 360 q 522 332 581 340 l 504 330 l 503 313 q 414 112 496 195 q 283 29 357 56 q 141 1 210 1 q 121 2 131 1 q 12 39 56 5 q -45 137 -33 72 m 474 682 q 669 764 593 703 q 717 847 717 803 q 692 909 715 902 q 657 916 670 916 q 606 903 633 916 q 507 831 551 880 q 452 724 465 783 q 449 707 450 716 q 447 691 448 697 q 447 683 447 686 l 447 680 q 450 679 448 679 l 452 679 q 460 680 454 679 q 474 682 466 681 m 234 89 q 335 189 297 132 q 372 275 361 229 q 378 302 376 288 q 380 322 380 317 l 380 326 l 338 326 q 301 325 320 326 q 273 324 283 325 q 52 240 125 315 q 13 154 13 199 l 13 153 q 46 68 14 87 q 112 49 78 49 q 140 52 125 49 q 234 89 191 60 z "},"T":{"ha":511,"x_min":-48,"x_max":986,"o":"m -10 24 q -43 37 -32 27 q -48 45 -48 41 q -45 52 -48 49 q -44 56 -45 54 q -43 58 -43 58 q -39 71 -43 60 q -28 95 -34 82 q -17 117 -22 108 q 80 291 26 196 q 193 473 134 385 q 297 626 235 537 q 410 789 358 715 q 445 838 428 814 q 473 878 462 862 q 485 896 484 895 l 485 897 l 484 897 q 477 899 482 898 q 464 901 473 900 q 439 905 454 903 q 358 911 396 911 q 291 905 322 911 q 144 846 192 888 q 115 825 130 832 q 108 823 111 824 q 101 822 105 822 q 88 822 96 822 q 76 822 81 822 q 69 823 72 822 q 64 825 66 824 q 52 840 52 830 q 102 889 52 863 q 224 931 151 916 q 357 945 290 945 q 380 945 369 945 q 432 942 410 944 q 488 935 454 941 l 515 932 l 521 936 q 567 949 541 949 l 574 949 q 618 931 606 947 q 621 926 620 929 q 622 922 622 924 l 623 916 l 640 914 q 734 908 692 908 q 772 909 754 908 q 924 939 826 914 q 960 944 945 944 q 978 941 971 944 q 986 934 985 937 l 986 932 q 979 923 986 928 q 941 909 969 918 q 798 878 869 886 q 727 875 774 875 q 649 878 680 875 q 640 878 644 878 q 621 880 627 880 q 613 878 615 880 q 608 870 610 876 q 606 866 607 868 q 541 758 589 832 q 430 594 492 684 q 323 441 380 523 l 322 439 q 296 401 316 430 q 251 334 277 372 q 149 174 192 246 q 100 96 117 122 q 85 75 93 86 q 72 56 77 64 q 62 42 65 47 q 56 35 58 37 q 48 31 53 33 q 4 23 27 23 q -10 24 -3 23 z "},"U":{"ha":803,"x_min":-47,"x_max":850,"o":"m 317 50 q 302 127 302 82 q 385 403 302 232 q 436 498 402 439 q 505 610 470 556 q 516 627 513 622 q 518 632 519 632 q 515 629 518 633 q 476 586 505 618 q 413 515 447 553 q 355 446 380 476 q 311 396 332 420 q 281 361 290 372 q 202 279 244 321 q 120 208 151 228 q 59 186 90 189 q 45 185 52 185 q -6 196 18 185 q -47 268 -47 214 l -47 274 q -33 349 -47 308 q 54 522 -5 431 q 87 569 69 544 q 145 647 105 593 q 232 768 200 720 q 282 853 263 815 q 301 898 298 883 q 305 918 305 912 q 297 937 305 930 q 276 942 290 942 q 245 938 263 942 q 123 888 185 924 q 32 810 62 851 q 23 806 28 806 q 16 806 18 806 q 3 808 9 806 q -1 813 -1 810 q 3 824 -1 817 q 52 878 15 848 q 220 962 127 939 q 274 971 250 970 q 307 973 299 973 q 370 963 340 973 q 417 914 406 951 q 419 893 419 907 q 416 869 418 880 q 313 669 401 795 l 302 654 q 292 641 296 646 q 280 623 289 636 q 260 596 271 610 q 158 451 191 499 q 102 359 125 403 q 56 251 62 286 l 56 233 q 58 222 56 224 l 59 222 q 79 232 64 222 q 116 257 97 243 q 334 479 186 310 q 399 553 359 509 q 474 637 439 597 q 522 690 509 676 q 557 728 534 703 q 593 769 579 753 q 690 874 631 810 l 698 882 q 720 905 708 893 q 764 929 743 929 q 772 928 768 929 q 808 904 796 924 q 821 867 821 884 q 820 861 821 864 q 806 822 817 844 q 768 753 795 799 q 686 622 740 707 q 675 605 681 615 q 625 525 650 566 q 596 479 609 500 q 578 452 583 458 q 504 325 541 394 q 440 197 466 256 q 408 91 412 134 q 407 71 407 80 q 412 43 407 50 q 422 39 416 39 q 436 43 428 39 q 475 72 453 54 q 478 74 477 73 q 722 334 573 147 q 772 396 754 374 q 798 426 789 418 q 811 437 806 435 q 828 440 818 440 q 845 437 839 440 q 850 431 850 434 q 846 424 850 427 q 837 413 844 422 q 822 392 830 404 q 780 338 795 358 q 746 296 764 317 q 695 237 728 275 q 641 174 661 196 q 608 138 622 152 q 578 106 595 123 q 474 18 512 40 q 408 0 443 0 q 388 1 398 0 q 317 50 341 7 z "},"V":{"ha":696,"x_min":-47,"x_max":954,"o":"m 79 1 q -3 60 20 11 q -14 91 -11 76 q -18 130 -18 106 l -18 137 q -14 186 -18 162 q 2 250 -9 214 q 70 404 24 320 q 197 616 115 488 q 276 741 250 697 q 321 821 302 784 q 350 907 350 880 q 339 930 350 924 q 319 935 332 935 q 218 903 286 935 q 43 783 123 858 q 24 763 33 773 q 10 747 15 753 q 5 738 5 740 l 5 737 q 8 736 6 737 q 14 735 10 736 q 19 734 16 735 q 23 732 22 732 q 26 728 26 730 q 7 718 26 722 q -14 715 -4 715 q -43 725 -33 715 q -47 729 -47 728 q -47 732 -47 731 l -47 736 q -43 748 -46 741 q -32 764 -40 754 q 99 880 12 821 q 300 970 208 952 q 345 974 323 974 q 414 963 381 974 q 485 891 467 945 q 490 852 490 872 q 484 804 490 829 q 447 714 471 758 q 402 635 424 669 q 394 621 398 627 q 377 593 386 607 q 355 558 369 579 q 319 499 342 536 q 198 296 250 390 q 130 153 147 203 q 119 113 122 132 q 116 80 116 93 l 116 73 q 119 55 117 63 q 123 47 121 47 q 133 53 125 47 q 152 66 142 58 q 170 79 162 73 q 296 206 225 124 q 382 309 323 238 q 509 464 440 379 q 554 519 529 489 q 596 571 578 550 q 630 613 614 592 q 656 646 647 634 q 708 711 687 685 q 762 778 730 738 q 858 896 818 846 q 904 954 898 946 q 909 960 907 958 q 916 964 911 962 q 931 966 924 966 q 942 964 937 966 q 954 954 954 961 q 938 927 954 949 q 882 853 923 905 q 747 678 822 777 q 486 342 623 513 q 239 64 350 171 q 138 3 184 12 q 114 0 125 1 q 100 0 104 0 q 79 1 88 0 z "},"W":{"ha":954,"x_min":-47,"x_max":1144,"o":"m 403 1 q 326 32 356 4 q 286 115 296 61 q 284 159 284 132 q 287 208 284 188 q 365 448 300 308 q 373 466 370 458 l 376 473 q 369 467 376 473 q 350 449 361 460 q 225 335 268 367 q 151 300 183 304 q 127 298 138 298 q 60 322 86 298 q 43 353 48 334 q 41 382 41 362 q 43 416 41 402 q 109 576 58 491 q 123 600 116 588 q 148 636 131 612 q 199 709 165 660 q 299 875 272 812 q 314 921 314 908 q 312 928 314 926 q 307 929 310 929 q 264 914 295 929 q 204 884 233 901 q 148 848 178 869 q 95 806 119 827 q 60 772 80 793 q 28 739 39 752 q 11 716 19 728 q -1 697 3 704 l -5 690 l 1 689 q 8 686 6 688 q 10 683 10 684 q 9 682 10 682 q 3 677 9 679 q -9 673 -3 675 q -20 672 -16 672 l -24 672 q -47 684 -43 673 q -47 689 -47 686 q 28 798 -47 721 q 137 887 76 846 q 289 964 220 943 q 344 972 315 972 q 356 972 350 972 q 415 950 391 969 q 439 892 439 932 q 349 693 439 822 q 325 660 339 679 q 284 608 311 642 q 222 524 243 555 q 184 467 200 494 q 144 380 153 416 q 140 349 140 363 q 144 335 140 335 q 153 339 146 335 q 170 348 161 342 q 186 358 179 353 q 268 424 219 380 q 359 512 317 468 q 380 535 370 524 q 396 552 391 547 q 438 596 425 581 q 458 620 452 612 q 468 632 463 626 q 476 641 473 638 q 511 668 497 663 q 536 673 526 673 q 566 668 550 673 q 602 628 602 659 l 602 623 q 589 577 600 606 q 549 488 578 548 q 432 216 469 322 q 420 182 424 194 q 413 157 416 171 q 406 104 406 128 q 412 62 406 81 q 416 54 414 58 q 422 45 419 49 q 426 41 425 41 l 427 41 q 435 43 429 41 q 449 52 441 46 q 465 62 458 57 q 493 84 481 74 q 520 111 505 95 q 749 404 600 188 q 912 644 848 547 q 1057 874 976 741 q 1063 886 1061 880 q 1082 916 1074 903 q 1095 936 1090 928 q 1102 948 1099 943 q 1107 955 1105 953 q 1110 958 1109 957 q 1112 959 1111 958 l 1113 959 q 1126 961 1118 961 q 1138 959 1133 961 q 1144 954 1144 957 q 1143 951 1144 953 q 1140 944 1143 949 q 1133 931 1137 940 q 1120 909 1128 923 q 1100 876 1112 896 q 1043 782 1069 824 q 982 686 1017 740 q 956 646 971 669 q 918 589 935 614 q 890 545 905 567 q 867 509 876 522 q 835 460 847 479 q 804 411 823 441 q 740 312 763 348 q 703 257 716 277 q 679 221 690 237 q 563 74 611 121 q 487 16 520 31 q 419 0 453 0 q 403 1 411 0 z "},"X":{"ha":687,"x_min":-47,"x_max":836,"o":"m 311 1 q 238 26 266 5 q 196 102 207 52 q 192 150 192 123 q 217 304 192 213 q 229 342 222 320 q 240 377 235 364 q 214 352 239 377 q 151 290 189 328 q 71 210 101 239 q 25 167 41 181 q -2 150 8 153 q -21 146 -12 146 q -40 149 -33 146 q -47 157 -47 153 q -41 166 -47 160 q -28 179 -35 173 q -17 186 -20 184 q 1 199 -13 186 q 17 215 5 204 q 41 239 28 226 q 50 246 46 242 q 140 333 90 284 q 230 420 191 382 q 273 463 269 458 q 286 491 275 466 q 312 552 296 516 q 341 621 327 587 q 363 675 355 654 q 410 825 400 768 q 415 867 415 850 q 405 899 415 892 q 391 903 399 903 q 337 885 372 903 q 276 850 309 871 q 117 691 171 783 q 96 649 104 670 q 87 618 87 627 q 87 615 87 616 q 89 613 87 614 q 92 612 90 612 q 101 605 101 610 l 101 603 q 79 597 100 597 q 42 623 42 597 q 43 629 42 626 q 74 708 46 662 q 144 796 102 754 q 207 850 169 822 q 332 927 279 905 q 391 944 368 942 q 422 946 414 946 q 475 937 450 946 q 528 898 508 926 q 548 821 548 869 q 530 717 548 777 q 528 709 528 710 q 528 708 528 708 q 562 740 531 710 q 640 815 593 770 q 764 936 728 902 q 801 969 799 969 q 816 972 808 972 q 830 969 825 972 q 836 964 836 967 l 836 963 q 806 931 834 960 q 738 863 778 903 q 660 787 698 823 q 602 731 623 750 q 559 691 581 711 q 527 660 538 671 l 503 636 l 486 595 q 464 542 475 570 q 429 458 452 513 q 339 206 363 305 q 325 109 325 149 q 336 54 325 75 q 338 49 337 51 q 340 47 340 47 q 347 50 341 47 q 359 57 352 53 q 372 66 366 62 q 477 169 412 92 q 528 231 496 190 q 595 317 559 271 q 654 393 627 359 q 692 441 680 427 q 699 443 695 443 q 709 444 702 444 q 720 443 717 444 q 726 441 724 443 q 731 435 731 438 q 728 428 731 431 q 686 366 717 411 q 621 273 654 321 q 568 199 587 225 q 469 73 507 113 q 397 17 431 33 q 324 0 363 0 q 311 1 317 0 z "},"Y":{"ha":699,"x_min":-47,"x_max":665,"o":"m -31 47 q -47 92 -47 66 l -47 94 q -24 153 -47 121 q 43 212 0 184 q 116 249 75 231 q 223 290 157 267 q 302 318 271 307 q 385 349 333 329 q 397 353 392 351 q 402 355 401 355 q 415 377 404 357 q 443 425 427 396 q 475 484 458 454 q 489 511 479 492 q 509 552 498 530 q 528 590 520 574 l 536 606 q 538 611 536 606 q 543 623 540 616 q 559 656 551 640 q 571 684 566 673 q 575 695 575 694 l 574 695 l 574 694 q 572 693 573 694 q 569 691 570 692 q 564 687 567 689 q 557 681 562 684 q 549 673 553 677 q 537 662 544 668 q 523 650 531 656 l 517 644 q 475 606 493 622 q 422 557 457 589 q 208 381 267 411 q 176 368 189 371 q 140 364 163 364 q 124 365 130 364 q 115 366 119 365 q 105 368 111 366 q 39 442 45 384 q 39 454 39 448 q 132 649 39 534 q 171 694 145 666 q 220 747 196 722 q 325 869 290 822 q 331 878 328 873 q 352 910 346 898 q 359 927 359 922 q 355 935 359 932 q 346 937 352 937 q 311 930 334 937 q 138 830 207 901 q 86 758 94 787 q 85 753 85 754 l 85 751 q 87 749 85 749 q 90 749 88 749 q 92 747 91 748 q 93 744 93 745 q 90 740 93 741 q 73 736 84 737 q 41 762 41 736 l 41 764 q 62 814 41 785 q 176 910 105 869 q 250 944 209 928 q 324 967 291 960 q 374 973 351 973 q 410 969 393 973 q 456 940 448 960 q 465 905 465 919 q 448 842 465 879 q 313 654 424 789 q 193 495 227 550 q 159 417 159 442 q 159 414 159 415 q 159 412 159 412 q 168 417 160 412 q 186 427 176 421 q 204 437 196 432 q 359 556 267 475 q 421 611 387 580 q 485 669 455 642 q 576 751 561 740 q 593 760 585 758 q 611 762 600 762 q 659 741 648 762 q 665 711 665 730 q 635 579 665 668 q 612 514 623 544 q 584 447 600 484 q 379 137 480 237 q 248 42 317 76 q 165 11 208 22 q 88 1 122 1 q 54 3 71 1 q -31 47 3 9 m 158 81 q 199 111 179 94 q 248 157 220 128 q 285 195 269 178 q 320 237 301 213 q 343 266 331 250 q 364 295 355 282 q 372 308 372 307 q 350 300 371 308 q 300 280 330 292 q 245 258 271 269 q 207 241 219 247 q 155 218 180 231 q 114 196 130 205 q 38 125 47 153 q 29 86 29 97 q 52 52 29 62 q 71 49 60 49 q 158 81 102 49 z "},"Z":{"ha":694,"x_min":-47,"x_max":783,"o":"m -18 31 q -47 88 -47 56 q -43 114 -47 100 q 34 205 -27 162 q 91 236 59 220 q 166 266 121 251 q 302 307 212 281 q 366 326 340 318 q 416 342 391 334 l 444 353 l 446 359 q 451 379 449 366 q 454 401 454 392 q 452 421 454 413 q 446 438 450 429 q 414 472 435 460 q 377 485 400 479 q 330 495 355 492 q 313 498 321 496 q 302 500 306 499 q 286 509 292 503 q 279 521 279 515 q 286 537 279 528 q 311 559 293 545 q 329 574 320 568 q 350 589 337 581 q 385 614 362 598 q 603 802 527 713 q 648 894 648 855 q 643 918 648 907 q 588 943 629 943 l 580 943 q 521 933 551 941 q 484 918 492 926 q 463 911 477 911 q 443 916 448 912 q 439 922 439 920 q 442 930 439 926 q 532 965 463 951 q 603 972 570 972 q 665 965 636 972 q 743 910 722 950 q 747 900 745 905 q 750 890 749 895 q 751 879 751 885 q 715 783 751 838 q 591 650 673 720 q 425 536 501 572 q 407 527 414 530 q 400 522 400 523 l 406 520 q 421 515 412 518 q 440 509 431 512 q 456 503 450 505 q 557 410 536 471 l 562 400 q 579 408 566 401 q 609 423 593 414 q 637 439 625 432 q 697 479 666 458 q 739 508 728 500 q 750 515 745 513 q 762 516 755 516 l 766 516 q 783 507 781 515 l 783 507 q 716 456 783 499 q 672 427 689 437 q 632 404 654 416 q 567 372 609 393 q 564 371 565 372 q 563 367 563 370 q 562 359 562 365 q 520 256 557 315 q 431 147 484 197 q 186 9 313 37 q 102 -1 147 -1 q 80 0 91 -1 q -18 31 22 3 m 172 73 q 232 106 201 85 q 274 138 254 121 q 321 182 294 155 q 408 286 378 240 q 421 307 416 298 q 427 317 427 317 q 418 315 426 317 q 394 307 408 312 q 357 295 380 302 q 313 281 334 288 q 202 245 240 259 q 140 219 165 232 q 98 194 116 207 q 43 133 47 156 q 39 103 39 109 q 67 59 39 73 q 96 53 79 53 q 172 73 127 53 z "},"[":{"ha":918,"x_min":68,"x_max":850,"o":"m 100 2 q 68 26 68 11 q 73 43 68 30 q 94 88 79 56 q 137 177 109 119 q 212 326 166 235 q 292 484 262 427 q 336 573 321 542 q 363 623 352 604 q 430 738 391 674 q 502 853 468 801 q 549 924 535 905 q 573 947 560 936 q 595 962 585 958 q 613 969 604 967 q 636 972 622 972 q 676 972 651 972 q 805 964 756 970 q 836 959 827 962 q 847 952 844 957 q 849 949 849 950 q 849 947 850 948 q 847 945 849 946 q 838 938 844 941 q 821 934 833 936 q 808 932 815 932 q 789 932 801 932 q 755 932 777 932 q 722 933 741 932 q 689 935 703 934 q 673 935 675 935 q 672 935 673 935 q 671 931 671 934 q 670 922 671 928 q 637 827 667 886 q 597 754 623 798 q 520 629 571 709 q 362 363 440 498 q 170 43 269 199 l 187 44 q 238 48 213 46 q 298 54 264 50 q 359 61 332 58 q 372 64 366 62 q 380 66 378 65 q 388 69 384 68 q 401 69 393 69 q 420 67 414 69 q 429 60 426 65 q 431 56 431 57 q 429 52 431 54 q 413 42 427 46 q 363 31 399 37 q 259 16 327 25 q 211 9 233 12 q 180 4 189 6 q 146 1 160 1 q 127 0 132 0 q 100 2 109 0 z "},"\\":{"ha":941,"x_min":0,"x_max":941,"o":"m 928 1 q 921 0 926 1 q 911 0 916 0 q 893 4 901 0 q 871 19 884 7 q 836 54 859 31 q 754 138 797 93 q 632 269 711 183 q 600 303 615 286 q 551 355 565 340 q 517 391 540 368 q 495 416 506 404 q 387 531 427 489 q 307 614 347 572 q 16 926 71 856 q 0 958 0 947 q 3 966 0 960 q 34 972 5 972 q 45 972 41 972 q 52 971 49 972 q 59 968 55 970 q 68 963 63 966 q 77 956 73 960 q 208 822 102 939 l 215 814 q 252 774 239 787 q 282 740 264 760 q 335 681 313 706 q 401 606 357 656 q 489 506 447 553 q 614 368 531 459 q 689 284 646 331 q 768 197 732 237 q 817 143 804 157 q 872 83 847 111 l 883 71 q 900 53 890 64 q 920 33 910 43 q 935 18 929 24 q 941 10 941 12 q 936 5 940 7 q 928 1 932 2 z "},"]":{"ha":867,"x_min":68,"x_max":799,"o":"m 167 6 q 114 12 132 9 q 86 17 95 15 q 74 22 78 20 q 68 33 68 28 q 68 37 68 35 q 86 50 73 45 q 107 52 96 52 q 126 50 119 52 q 141 46 130 47 q 175 45 152 45 q 205 44 193 44 q 219 43 217 43 q 239 85 221 43 q 256 125 249 109 q 274 162 264 142 q 301 218 283 182 q 395 396 344 301 q 443 485 423 448 q 485 569 462 522 q 548 693 526 651 q 596 781 570 736 q 690 924 652 877 l 707 945 l 678 944 q 628 942 656 943 q 585 941 601 941 q 562 941 568 941 l 551 941 q 537 944 543 942 q 529 948 532 945 q 525 954 525 951 q 536 964 525 959 q 562 967 541 966 q 613 970 584 969 q 668 972 642 971 q 700 972 685 972 q 720 972 714 972 q 739 971 727 972 q 763 967 751 970 q 778 963 774 965 q 799 926 799 954 q 781 859 799 900 q 649 608 748 784 q 580 489 618 554 q 521 390 542 424 q 488 336 505 363 q 479 321 482 328 q 455 282 471 308 q 425 232 440 257 q 396 182 410 206 q 375 149 382 159 q 362 125 369 138 q 351 104 355 113 q 323 50 334 73 q 309 23 311 28 q 277 4 301 11 q 258 1 267 1 q 241 0 250 0 q 223 1 233 0 q 167 6 202 3 z "},"_":{"ha":549,"x_min":68,"x_max":413,"o":"m 119 278 q 78 287 89 281 q 68 298 68 292 q 71 304 68 300 q 95 313 77 309 q 130 317 113 317 q 146 317 135 317 q 169 316 157 317 q 208 315 184 315 q 278 316 231 315 q 333 317 313 317 q 362 318 353 318 q 374 317 370 318 q 407 312 401 317 q 413 305 413 307 q 402 296 413 300 q 257 283 380 290 q 213 280 237 281 q 143 278 189 279 l 119 278 z "},"a":{"ha":439,"x_min":-47,"x_max":486,"o":"m 129 203 q 127 222 127 212 q 155 326 127 266 q 159 335 159 334 q 159 337 159 336 l 159 338 q 158 336 159 338 q 152 332 157 336 q 139 321 146 327 q 130 313 134 317 q 82 277 99 288 q 42 262 58 263 q 22 262 25 262 q -24 275 -3 262 q -47 323 -45 289 q -37 382 -47 355 q 85 538 2 481 q 139 563 109 554 q 198 572 170 572 l 209 572 q 264 549 241 570 q 277 516 277 535 q 277 509 277 513 q 264 467 274 486 q 262 463 262 465 q 261 461 261 462 l 264 463 q 271 465 267 463 q 294 471 283 471 q 313 467 304 471 q 326 443 326 459 q 323 426 326 435 q 314 404 320 416 q 294 364 309 391 q 275 330 286 349 q 258 294 265 310 q 222 206 227 234 q 219 184 219 192 q 222 177 219 178 l 222 177 q 245 191 229 177 l 247 193 q 335 284 288 226 q 342 293 339 289 q 369 327 355 310 q 404 377 382 345 q 421 403 411 389 q 439 430 431 418 q 451 446 448 442 q 462 453 456 452 q 472 454 468 454 l 477 454 q 486 448 484 452 q 478 431 486 445 q 460 401 471 418 q 442 374 449 385 q 437 367 439 370 q 415 336 429 354 q 373 281 402 319 q 327 224 345 246 q 291 186 309 203 q 238 151 264 160 q 196 142 212 142 q 167 147 181 142 q 129 203 138 159 m 84 321 q 151 370 114 341 q 176 391 161 380 q 201 412 190 403 l 212 422 q 212 423 212 422 q 210 425 211 424 q 210 429 210 426 q 211 439 210 433 q 213 458 213 450 q 214 469 214 467 q 211 492 214 480 q 198 507 207 507 l 197 507 q 178 496 188 507 q 124 427 149 468 q 83 349 100 385 q 74 333 77 340 q 68 321 71 326 q 66 314 66 317 q 65 311 65 312 q 66 310 65 310 l 71 313 q 84 321 77 317 z "},"b":{"ha":469,"x_min":-47,"x_max":516,"o":"m 5 242 q 118 351 33 307 q 170 374 143 364 q 237 393 197 383 q 259 399 250 397 q 271 402 269 401 q 278 415 274 404 q 286 441 282 426 q 292 469 290 456 q 294 486 294 476 l 294 492 q 290 513 293 505 q 286 523 289 519 q 279 528 282 527 q 274 529 277 529 q 266 528 271 528 q 115 437 201 515 q 103 425 109 431 q 90 406 97 418 q 52 356 64 370 q 30 340 40 342 q 5 336 18 336 q -14 338 -3 336 q -45 353 -37 342 q -47 356 -47 355 q -47 360 -47 357 q -47 367 -47 362 q -7 474 -43 396 q 72 623 28 551 q 230 829 149 747 q 315 897 276 875 q 375 919 349 914 q 414 923 401 923 q 452 918 435 923 q 487 891 481 908 q 492 867 492 874 q 472 805 492 842 q 440 756 459 781 q 328 643 394 696 q 196 561 262 590 l 178 553 l 168 536 q 161 524 163 529 l 159 519 q 162 520 159 519 q 170 524 165 522 q 276 558 225 556 l 283 558 q 374 528 340 558 q 396 492 390 513 q 399 479 398 486 q 401 462 400 473 l 401 442 l 422 450 q 468 467 454 463 q 490 471 482 471 l 496 471 q 511 467 505 470 q 516 460 516 463 l 516 458 q 500 450 515 455 q 482 443 496 449 q 449 430 467 437 q 420 418 433 423 q 400 410 404 411 q 397 408 398 409 q 394 403 395 407 q 390 392 393 399 q 289 230 364 305 q 198 163 245 186 q 135 144 165 149 q 87 139 106 139 q 52 142 68 139 q 7 167 18 150 q -3 199 -3 184 q 5 242 -3 218 m 247 627 q 336 697 294 659 q 402 770 378 736 q 431 843 425 804 q 433 858 433 852 q 425 878 433 873 q 421 879 423 879 q 383 854 409 879 q 302 755 345 817 q 265 697 287 732 q 225 635 243 663 q 208 604 208 606 q 214 606 208 604 q 229 615 220 610 q 247 627 237 621 m 138 216 q 217 300 182 254 q 236 329 227 313 q 251 355 245 345 q 256 368 256 365 q 255 368 256 368 q 244 366 253 368 q 224 359 235 363 q 206 353 214 356 q 91 271 130 323 q 68 225 70 239 q 66 208 66 211 q 81 187 66 190 l 84 187 q 138 216 102 187 z "},"c":{"ha":356,"x_min":-47,"x_max":404,"o":"m -45 312 q -47 341 -47 327 q -30 432 -47 388 q 8 504 -16 469 q 57 559 32 538 q 119 595 84 582 q 186 608 154 608 q 199 607 192 608 q 264 576 237 605 q 285 522 283 555 l 285 515 q 283 500 285 507 q 275 476 281 491 q 252 451 263 454 q 244 450 249 450 l 241 450 q 232 453 235 451 q 229 456 229 455 q 232 460 229 458 q 237 471 234 463 q 243 488 241 479 q 245 505 245 496 q 236 538 245 522 q 204 569 220 569 q 197 568 201 569 q 159 532 178 560 q 120 465 141 506 q 85 385 100 424 q 73 338 78 366 q 68 294 68 311 q 71 267 68 279 q 106 235 77 237 q 161 251 130 235 q 310 380 230 288 q 359 436 345 420 q 377 454 374 453 q 385 455 381 455 l 388 455 q 398 453 394 454 q 404 448 403 451 l 404 448 q 403 445 404 446 q 399 440 401 442 q 380 416 393 431 q 357 390 367 401 q 342 373 351 384 q 323 353 333 362 q 223 258 277 300 q 125 207 180 222 q 83 201 103 201 q 14 219 45 201 q -45 312 -33 248 z "},"d":{"ha":528,"x_min":-47,"x_max":684,"o":"m 163 307 l 165 313 l 147 296 q 132 282 140 289 q 119 271 123 275 q 68 246 90 250 q 35 242 45 242 q -7 252 13 242 q -45 304 -35 265 q -47 326 -47 315 q -47 342 -47 338 q -46 366 -47 356 q -5 475 -35 427 q 109 567 41 545 q 169 579 146 578 q 198 581 193 581 q 260 572 233 581 q 267 570 264 570 q 271 569 270 569 q 277 581 271 571 q 291 604 283 591 q 304 625 298 616 q 357 706 326 659 q 410 781 389 753 q 562 926 488 884 q 633 950 605 950 q 651 947 643 950 q 683 914 682 935 q 684 890 684 893 q 662 806 684 852 q 498 590 593 667 q 438 549 471 568 q 383 524 405 530 l 370 520 l 349 478 q 257 224 271 315 q 254 184 254 201 q 263 147 254 156 q 274 144 268 144 q 325 172 291 144 q 396 248 361 201 q 427 291 406 262 q 466 347 448 320 q 483 372 473 357 q 503 401 494 387 q 532 442 518 422 q 539 452 536 448 q 552 468 547 463 q 559 475 556 473 q 572 477 564 477 l 577 477 q 591 471 587 475 l 592 470 q 591 467 592 469 q 585 456 590 463 q 570 434 581 448 q 536 383 551 404 q 505 341 522 362 q 485 313 497 330 q 462 282 473 296 q 410 214 431 239 q 368 168 389 189 q 326 134 349 148 q 252 110 284 110 q 218 119 233 110 q 164 199 177 142 q 159 254 159 227 q 163 307 159 280 m 404 558 q 508 635 460 585 q 585 730 551 678 q 631 829 621 784 q 641 883 641 866 q 640 892 641 889 q 633 899 637 899 q 619 892 627 899 q 578 849 603 880 q 404 581 496 742 q 395 564 399 571 q 387 551 389 553 l 388 551 q 393 553 389 551 q 404 558 397 554 m 81 296 q 160 362 109 312 q 176 378 170 372 q 183 387 181 383 q 186 392 185 390 q 202 434 190 405 q 226 486 214 463 l 241 519 l 237 522 q 216 530 229 530 q 198 526 208 530 q 161 502 180 520 q 89 378 119 461 q 76 332 81 356 q 71 294 71 307 q 72 292 71 292 l 73 292 q 81 296 75 292 z "},"e":{"ha":354,"x_min":-47,"x_max":401,"o":"m -41 355 q 28 489 -21 426 q 55 518 38 502 q 81 543 71 534 q 102 556 91 549 q 123 568 114 564 q 169 582 144 577 q 212 586 195 586 q 239 584 226 586 q 286 553 278 577 q 288 536 288 545 q 281 506 288 522 q 253 457 271 480 q 217 421 235 435 q 121 385 172 387 l 104 385 l 99 370 q 77 269 77 306 q 85 232 77 240 q 102 224 93 224 q 111 224 106 224 q 142 237 125 228 q 245 318 199 271 q 335 416 292 365 q 366 450 351 433 q 370 453 368 452 q 375 454 372 454 q 383 454 378 454 q 393 454 389 454 q 398 452 396 454 q 401 447 401 450 q 399 441 401 444 q 296 325 351 384 q 181 224 241 265 q 78 191 130 191 q 66 191 72 191 q -20 230 8 195 q -47 307 -47 264 q -41 355 -47 329 m 140 410 q 205 450 172 418 q 223 472 216 461 q 236 497 231 482 q 243 526 243 513 q 237 543 243 536 q 227 549 234 549 q 195 532 216 549 q 148 473 171 510 q 138 457 144 468 q 127 435 133 447 q 118 416 121 424 q 114 407 114 408 l 119 407 q 129 408 123 407 q 140 410 135 408 z "},"f":{"ha":329,"x_min":-109,"x_max":532,"o":"m -108 115 q -109 132 -109 123 q -77 286 -109 205 q 41 503 -42 378 q 214 720 127 633 q 317 808 271 777 q 368 836 343 825 q 429 852 406 852 q 455 853 452 853 q 519 832 496 853 q 532 800 532 821 q 522 754 532 781 q 488 701 509 727 q 357 600 434 635 q 249 570 301 572 l 232 569 l 215 547 q 164 476 191 515 q 139 439 156 464 q 111 395 123 414 q 94 369 104 384 q 78 342 85 354 l 71 330 q 73 328 71 329 q 78 326 75 327 q 116 319 96 319 q 164 328 139 319 q 235 361 197 338 q 334 432 274 385 q 354 447 345 440 q 363 454 362 453 q 370 455 366 455 q 376 454 373 455 q 389 452 385 454 q 395 446 395 449 q 394 442 395 444 q 378 430 392 440 q 347 406 365 419 q 315 382 330 393 q 208 315 250 334 q 127 294 166 295 q 116 293 120 294 q 112 292 113 292 q 111 291 111 292 q 117 275 113 286 q 124 254 121 264 q 129 239 127 243 q 132 209 132 225 q 128 172 132 191 q 104 100 121 133 q 61 43 87 65 q 7 14 26 14 q -13 14 -12 14 q -77 39 -50 14 q -108 115 -104 64 m 265 595 q 347 627 304 604 q 421 682 389 650 q 460 733 443 703 q 479 776 477 763 q 481 793 481 789 q 469 807 481 807 l 467 807 q 404 766 450 806 q 331 692 374 740 q 251 595 288 644 l 251 593 q 255 594 252 593 q 265 595 258 594 m 49 94 q 81 182 71 126 q 84 213 84 196 q 81 241 84 231 q 70 276 77 260 q 58 297 63 292 l 54 300 l 52 297 q 40 276 49 293 q 23 239 32 258 q 9 210 14 220 q -20 96 -16 143 l -20 85 q -10 48 -20 54 q -3 46 -7 46 q 16 56 5 46 q 49 94 33 71 z "},"g":{"ha":408,"x_min":-183,"x_max":455,"o":"m -168 20 q -183 61 -183 39 q -182 71 -183 66 q -139 143 -175 114 q -55 191 -102 172 q 32 222 -8 210 q 51 228 42 225 q 84 239 66 233 q 115 250 102 245 l 145 261 l 161 289 q 179 324 168 302 q 200 366 191 347 q 212 390 210 385 q 207 385 212 390 q 193 372 201 380 q 140 325 163 343 q 85 296 113 304 q 41 288 58 288 q 8 294 24 288 q -30 345 -22 304 q -31 357 -31 351 q -5 446 -31 395 q 71 529 20 496 q 184 564 120 562 l 193 564 q 296 536 258 564 q 321 498 317 519 q 325 462 325 476 q 322 430 325 446 q 311 376 317 399 q 306 362 308 369 q 303 352 304 355 q 302 348 302 349 q 301 345 301 346 q 336 374 313 354 q 379 412 358 393 q 407 437 399 430 q 419 447 414 444 q 426 452 423 451 q 431 455 429 454 q 441 456 437 456 q 446 456 444 456 q 454 451 452 455 l 455 450 q 440 427 455 444 q 399 387 425 410 q 366 358 387 375 q 325 326 345 341 q 296 304 305 311 l 281 294 l 275 280 q 250 228 264 256 q 221 177 235 199 q -17 -23 111 6 q -56 -27 -36 -27 q -99 -22 -77 -27 q -168 20 -142 -14 m 110 354 q 159 393 138 374 q 181 412 168 399 q 207 438 194 425 q 230 460 220 451 q 239 471 239 470 q 208 494 229 494 l 201 494 q 134 450 166 488 q 87 383 102 413 q 66 334 66 345 l 67 332 q 70 330 67 330 q 110 354 78 330 m -14 52 q 96 184 36 96 q 119 220 119 218 l 119 221 q 114 219 118 221 q 102 215 109 218 q 85 208 95 212 q 67 201 75 204 q -37 155 -2 176 q -58 139 -47 149 q -75 124 -70 130 q -97 80 -96 97 q -98 62 -98 64 q -79 24 -98 33 q -69 22 -75 22 q -14 52 -49 22 z "},"h":{"ha":500,"x_min":-47,"x_max":548,"o":"m 235 84 q 170 123 193 91 q 157 172 157 140 q 166 234 157 198 q 184 293 172 262 q 224 377 197 323 q 236 397 229 385 q 257 437 248 418 q 266 465 266 456 q 265 469 266 467 q 259 473 264 473 q 236 465 252 473 q 201 445 218 455 q 114 375 159 416 q 58 313 69 334 q 46 295 52 303 q 37 283 41 287 q 12 274 25 276 q -7 273 -1 273 q -31 276 -20 273 q -38 279 -35 277 q -44 283 -41 281 q -47 288 -46 286 q -47 296 -47 291 q -18 410 -47 318 q 52 574 7 484 q 221 823 136 744 q 295 880 260 861 q 356 903 332 901 q 386 905 380 905 q 439 887 419 905 q 455 846 455 873 q 449 808 455 830 q 404 712 436 766 q 335 615 372 659 q 212 513 269 542 q 179 502 198 507 q 151 497 161 497 l 146 497 l 128 461 q 117 435 121 446 l 112 424 l 116 427 q 125 434 120 429 q 222 493 172 469 q 268 509 247 505 q 298 513 288 513 q 331 507 316 513 q 363 467 355 498 q 364 450 364 459 q 353 391 364 424 q 322 317 338 349 q 318 307 320 311 q 296 257 304 275 q 283 223 289 239 q 267 148 267 176 q 271 124 267 134 q 273 120 271 121 q 275 117 275 118 l 276 117 q 295 130 281 117 q 330 165 311 144 q 378 229 355 195 q 409 278 389 245 q 453 350 430 312 q 492 415 476 387 q 509 445 509 444 q 510 447 509 446 q 512 450 511 448 q 523 454 518 454 q 530 454 528 454 q 541 453 536 454 q 548 447 547 451 q 529 408 548 441 q 479 322 511 374 l 443 263 q 361 146 401 193 q 320 103 337 117 q 286 85 304 90 q 267 82 276 83 q 255 82 258 82 q 235 84 243 82 m 182 530 q 280 608 227 553 q 369 724 334 663 q 399 795 392 764 q 404 834 404 819 q 399 855 404 849 q 387 862 395 862 q 370 857 380 862 q 330 818 351 845 q 219 644 279 755 q 204 616 214 635 q 183 575 194 597 q 164 537 172 553 q 157 521 157 522 q 157 520 157 520 q 161 521 159 520 q 170 525 164 522 q 182 530 176 527 z "},"i":{"ha":313,"x_min":-47,"x_max":360,"o":"m 236 722 q 282 703 279 715 q 284 688 284 691 q 264 655 284 670 q 213 640 244 640 q 201 640 208 640 q 163 659 164 647 q 161 673 161 671 q 180 707 161 691 q 228 723 198 723 q 236 722 232 723 m -45 235 q -47 261 -47 248 q -47 277 -47 274 q -45 309 -47 295 q 2 440 -35 374 q 94 537 39 506 q 125 548 108 545 q 153 551 142 551 q 172 549 163 551 q 199 529 193 545 q 200 524 200 526 q 195 503 200 514 q 182 481 192 497 q 159 446 172 465 q 119 383 134 408 q 92 332 104 358 q 62 262 70 289 q 55 221 55 235 q 63 206 55 207 q 119 233 80 206 q 193 300 152 255 q 230 341 208 317 q 295 418 251 366 q 302 427 299 423 q 316 443 311 437 q 324 452 321 449 q 328 457 327 455 q 330 458 330 458 q 342 460 336 460 q 355 459 350 460 q 360 454 359 457 q 353 444 360 454 q 336 422 346 435 q 319 399 327 410 q 309 385 311 389 q 232 295 271 337 q 168 232 193 253 q 65 176 109 185 q 37 173 50 173 q -4 181 15 173 q -45 235 -35 195 z "},"j":{"ha":238,"x_min":-414,"x_max":286,"o":"m 108 642 q 86 655 93 646 q 79 673 79 665 q 82 684 79 678 q 102 703 87 697 q 129 707 112 707 q 161 702 146 707 q 181 684 176 697 q 182 674 182 679 q 174 654 182 663 q 148 642 161 644 q 126 640 134 640 q 108 642 117 640 m -412 -11 q -414 9 -414 -1 q -408 47 -414 26 q -323 155 -390 105 q -295 174 -309 165 q -262 191 -281 182 q -128 241 -213 216 q -111 246 -119 243 l -104 248 q -101 254 -104 248 q -92 268 -98 260 q -63 321 -78 292 q -22 401 -48 349 q 5 454 -7 431 q 20 481 17 477 q 68 517 40 512 q 81 517 75 517 q 121 490 112 517 q 123 471 123 483 q 100 368 123 437 q 94 350 97 359 q 87 334 90 340 q 83 323 84 328 q 81 319 81 319 q 145 359 111 332 q 209 414 180 387 q 250 450 236 439 q 255 452 252 451 q 260 454 258 454 q 274 456 266 456 q 283 454 281 456 q 286 451 286 452 q 279 441 286 448 q 256 418 271 432 q 228 391 242 404 q 209 373 214 378 q 150 327 176 345 q 85 292 123 310 l 62 281 l 58 273 q 54 264 56 269 q 47 253 51 260 l 43 247 q -124 20 -31 110 q -210 -43 -165 -21 q -270 -63 -240 -58 q -317 -68 -300 -68 q -363 -62 -341 -68 q -412 -11 -400 -52 m -275 13 q -229 66 -252 35 q -201 103 -218 80 q -169 149 -185 125 q -143 188 -153 172 q -132 205 -132 204 l -133 205 q -148 201 -135 205 q -179 189 -161 196 q -292 118 -248 161 q -333 55 -327 82 q -339 18 -339 28 q -330 -10 -339 -1 q -319 -14 -326 -14 q -275 13 -303 -14 z "},"k":{"ha":416,"x_min":-75,"x_max":498,"o":"m 62 239 q 62 256 62 246 q 67 324 62 283 q 70 343 68 334 q 71 355 71 352 l 73 361 l 64 353 q 30 311 39 326 q 21 299 26 307 q 10 286 16 292 q 2 275 5 279 q -12 259 -7 262 q -37 254 -24 254 l -39 254 q -64 259 -54 255 q -75 271 -75 264 q -70 290 -75 276 q -58 319 -64 304 q 172 722 29 530 q 281 846 227 796 q 380 909 332 890 q 414 917 399 916 q 436 918 429 918 q 460 916 450 918 q 497 885 492 909 q 498 880 498 882 q 458 786 498 849 q 336 640 408 707 q 262 576 295 600 q 193 535 229 553 l 171 525 l 155 500 q 144 482 149 489 l 140 475 l 146 478 l 160 488 q 279 545 232 535 q 304 548 292 548 q 328 546 315 548 q 368 526 353 541 q 380 495 380 511 q 372 470 380 482 q 321 420 354 441 q 264 391 288 398 q 230 381 245 385 q 199 378 216 378 l 180 377 l 179 353 q 176 292 179 328 q 172 230 172 256 q 173 208 172 218 q 182 166 176 172 q 193 161 189 161 q 209 167 200 161 q 243 198 224 178 q 258 212 250 205 q 286 242 271 224 q 328 293 302 260 q 371 349 354 326 q 404 395 388 372 q 444 450 440 448 q 452 454 448 454 q 458 454 456 454 q 468 454 463 454 q 476 448 475 452 q 468 435 475 447 q 450 406 460 423 q 427 373 438 389 q 411 349 416 357 q 321 222 384 304 q 267 161 294 186 q 195 118 219 120 q 168 116 171 116 q 100 144 127 116 q 62 239 68 176 m 218 587 q 249 610 232 597 q 279 633 266 623 q 325 676 298 649 q 366 720 353 704 q 421 805 401 766 q 441 866 441 844 l 440 869 q 439 879 440 878 q 437 880 437 880 q 431 877 435 880 q 410 859 422 870 q 386 834 397 847 q 237 627 326 766 q 226 612 230 618 q 218 600 222 605 q 213 591 215 595 q 209 585 211 587 q 207 582 208 583 l 206 581 q 207 580 206 580 l 210 582 q 218 587 214 584 m 281 479 q 294 505 294 496 q 292 509 294 507 q 287 511 290 511 q 246 496 275 511 q 146 429 196 469 l 136 422 q 175 415 156 415 q 216 425 197 415 q 281 479 252 442 z "},"l":{"ha":393,"x_min":-48,"x_max":569,"o":"m -45 204 q -48 246 -48 219 q -45 292 -48 273 q 109 641 -27 448 q 311 871 220 801 q 425 932 368 915 q 499 945 469 945 q 553 930 533 945 q 569 892 569 917 q 544 815 569 862 q 521 779 536 801 q 494 741 507 758 q 306 568 412 634 q 247 539 279 552 q 192 522 216 527 q 184 521 188 522 q 180 519 181 520 q 163 494 176 517 q 133 437 149 470 q 102 376 116 405 q 54 224 64 290 q 52 184 52 201 q 66 139 52 147 q 79 136 72 136 q 142 162 102 136 q 264 266 196 197 q 309 313 290 291 q 363 380 328 334 q 381 401 373 391 q 391 413 389 410 q 411 437 404 429 q 421 449 418 446 q 426 452 425 452 q 437 454 430 454 l 439 454 q 453 452 448 454 q 458 447 458 450 q 401 372 458 441 q 382 348 391 359 q 360 324 373 338 q 326 286 347 310 q 264 221 294 252 q 218 177 235 191 q 145 124 184 146 q 63 102 106 102 l 56 102 q -45 204 -27 111 m 241 569 q 399 688 323 610 q 489 810 456 745 q 511 880 511 857 q 509 893 511 888 q 498 899 506 899 q 441 866 481 899 q 284 683 372 806 q 261 649 275 670 q 232 606 246 628 q 208 568 218 584 q 198 551 198 553 q 204 553 199 551 q 220 560 210 555 q 241 569 230 564 z "},"m":{"ha":789,"x_min":-47,"x_max":836,"o":"m 488 115 q 436 147 450 121 q 431 163 433 156 q 430 178 430 171 q 431 190 430 184 q 436 230 431 209 q 453 280 441 250 q 486 356 466 313 q 519 421 506 398 q 527 437 522 427 q 536 455 532 446 q 542 467 541 464 l 542 469 q 533 466 541 469 q 518 459 526 463 q 505 453 509 455 q 403 383 458 428 q 380 365 392 375 q 349 337 368 354 q 324 317 332 321 q 288 309 309 309 l 283 309 q 239 338 239 313 l 239 340 q 258 391 241 359 q 315 483 275 423 q 392 616 392 600 q 391 618 392 618 q 389 617 391 618 q 384 616 387 617 q 376 612 381 614 q 74 325 241 548 q 58 304 65 313 q 48 292 51 295 q 3 277 35 277 q -44 296 -34 278 q -47 312 -47 301 q -40 359 -47 329 q 14 488 -23 424 q 44 527 31 515 q 77 545 58 540 q 104 547 87 547 q 132 545 122 547 q 157 524 157 536 q 154 511 157 519 q 142 486 151 503 q 134 470 137 477 q 130 462 130 463 l 136 467 q 153 483 142 473 q 209 535 184 513 q 261 578 233 557 q 415 653 358 653 l 420 653 q 460 645 443 653 q 481 623 477 636 q 484 608 484 616 l 483 605 q 481 584 483 593 q 418 452 469 536 q 409 437 412 443 l 406 431 q 410 432 406 431 q 418 437 413 434 q 509 488 473 473 q 545 498 529 496 q 570 500 560 500 q 587 499 578 500 q 621 476 613 494 q 624 471 623 473 q 625 465 625 469 q 624 455 625 462 q 616 419 623 440 q 590 351 610 397 q 552 254 564 291 q 534 191 539 218 q 532 177 533 183 q 532 168 532 171 l 532 163 q 533 159 532 159 q 544 165 535 159 q 565 181 553 172 q 586 201 576 191 q 637 256 610 224 q 715 352 665 289 q 802 450 794 450 q 814 452 808 452 l 817 452 q 830 450 824 452 q 836 444 836 448 q 813 414 836 442 q 757 345 792 390 q 668 234 702 275 q 607 168 633 194 q 534 117 563 123 q 515 114 524 115 q 504 114 507 114 q 488 115 495 114 z "},"n":{"ha":545,"x_min":-47,"x_max":592,"o":"m 159 186 q 184 259 167 223 q 216 318 201 295 q 249 370 229 339 q 292 432 270 401 q 335 495 323 475 q 352 529 347 515 q 354 536 353 533 q 355 539 355 538 q 353 540 355 540 q 348 538 352 540 q 336 532 344 536 q 192 438 284 509 q 129 388 154 410 q 75 337 104 367 q 58 319 66 328 q 30 292 45 302 q -3 281 16 281 q -12 282 -7 281 q -47 319 -47 288 q -47 330 -47 324 q -12 425 -41 372 q 50 509 18 477 q 76 528 63 523 q 107 532 90 532 l 114 532 q 151 522 140 532 q 159 508 159 517 q 158 500 159 505 q 132 449 154 486 q 122 432 125 439 l 118 425 q 123 429 119 426 q 134 437 128 432 q 268 527 191 479 q 332 563 310 554 q 375 571 355 571 l 381 571 q 431 551 416 569 q 442 521 442 541 q 419 447 442 493 q 401 413 412 432 q 365 353 390 393 q 319 276 336 305 q 290 224 302 248 q 267 174 274 193 q 258 141 260 155 l 257 134 l 262 138 q 317 179 284 151 q 382 241 351 208 q 451 319 415 276 q 541 431 488 362 q 562 453 557 452 q 570 454 565 454 q 577 454 572 454 q 587 453 582 454 q 592 448 592 450 l 592 447 q 587 437 592 444 q 479 301 553 388 q 354 161 406 214 q 281 100 307 113 q 228 87 254 87 q 216 88 222 87 q 170 113 184 92 q 156 159 156 134 q 159 186 156 172 z "},"o":{"ha":374,"x_min":-68,"x_max":422,"o":"m -64 262 q -68 294 -68 278 q -31 401 -68 345 q 7 436 -14 429 l 7 436 q 12 438 9 437 l 14 439 q 14 441 14 439 q 14 448 14 444 q 22 478 16 462 q 39 507 28 494 q 155 571 83 563 q 169 572 161 572 q 237 552 208 572 q 285 481 274 528 q 288 456 288 469 q 273 387 288 423 q 270 380 271 382 q 269 377 269 378 q 291 388 271 377 q 333 411 310 398 q 370 433 355 424 q 381 439 376 436 q 388 443 386 442 q 401 445 395 445 l 408 445 q 419 440 417 444 q 422 435 422 437 q 417 425 422 430 q 392 407 412 420 q 349 379 372 393 q 314 357 326 364 q 283 344 299 351 q 253 333 267 337 l 241 330 l 231 317 q 143 235 195 269 q 79 207 112 214 q 27 199 47 199 q -14 204 6 199 q -64 262 -52 216 m 204 363 q 234 435 228 401 q 235 452 235 444 q 235 467 235 459 q 228 496 234 483 q 196 530 218 516 q 181 534 189 534 q 168 531 174 534 q 143 509 154 524 q 125 479 132 494 q 115 431 115 455 q 117 407 115 419 q 144 368 124 384 q 188 352 164 353 l 197 352 l 204 363 m 94 255 q 142 291 117 269 q 156 303 150 297 q 167 315 163 310 q 172 321 172 320 q 168 322 172 321 q 159 323 165 322 q 111 333 136 324 q 69 352 86 341 q 65 355 66 354 q 62 356 63 356 q 58 349 62 356 q 50 332 55 342 q 42 314 45 323 q 37 301 38 305 q 29 261 29 277 q 35 241 29 248 q 47 236 39 236 q 94 255 64 236 z "},"p":{"ha":577,"x_min":-251,"x_max":645,"o":"m -231 -13 q -251 3 -251 -8 q -200 118 -251 15 q -105 288 -157 206 q -38 390 -68 348 q 30 478 -7 432 q 99 553 73 530 q 145 579 125 576 q 161 581 153 581 q 176 579 169 581 q 197 568 192 576 q 201 555 201 562 q 199 546 201 551 q 185 515 197 534 q 151 467 174 497 q 106 408 132 441 q 61 349 81 375 q 37 317 41 323 l 37 317 q 64 341 39 317 q 102 377 80 357 q 143 414 125 397 q 354 551 265 517 q 409 565 389 564 q 430 565 428 565 q 484 545 465 565 q 498 507 498 532 q 493 473 498 492 q 484 448 490 463 q 474 425 479 433 q 472 420 472 422 l 471 418 q 479 420 472 418 q 497 427 487 423 q 516 435 507 431 q 603 485 562 456 q 618 494 613 493 q 625 496 623 496 q 635 494 630 496 q 645 488 645 492 q 644 486 645 487 q 625 469 642 481 q 590 444 604 453 q 562 428 576 435 q 460 387 507 400 q 452 385 455 386 q 448 382 450 383 q 444 378 446 380 q 370 307 415 338 q 278 263 326 275 q 235 260 260 260 l 229 260 q 173 269 199 260 q 137 299 146 277 q 134 312 134 305 q 145 336 134 324 q 303 385 174 371 q 325 387 316 386 q 334 389 334 389 q 338 394 335 389 q 347 405 342 398 q 371 439 357 417 q 398 485 386 462 q 412 524 410 509 q 402 534 412 534 l 399 534 q 371 526 386 532 q 347 515 355 519 q 344 513 345 513 q 165 389 260 471 q -156 26 5 247 q -175 2 -167 12 q -184 -9 -182 -7 q -201 -14 -192 -13 q -214 -15 -210 -15 q -231 -13 -222 -15 m 235 306 q 268 327 250 314 q 301 354 286 340 l 309 361 l 303 360 q 244 348 269 355 q 210 334 220 341 q 203 319 203 327 l 203 317 q 211 305 205 308 q 221 302 216 302 q 235 306 227 302 z "},"q":{"ha":479,"x_min":-47,"x_max":527,"o":"m 21 -138 q -47 -45 -47 -130 q 22 165 -47 31 q 113 313 60 241 l 125 332 l 117 326 q 107 318 114 323 q 94 308 101 313 q 58 286 73 292 q 15 277 37 277 q 7 277 11 277 q -33 294 -18 279 q -47 334 -47 309 q -47 345 -47 339 q -39 377 -43 364 q -18 422 -33 397 q 14 469 -3 447 q 142 570 71 543 q 210 581 176 581 q 227 581 218 581 q 290 556 269 577 q 302 525 302 543 l 302 513 l 311 513 q 338 507 329 513 q 347 490 347 500 l 347 486 q 273 362 345 467 q 248 325 262 345 q 223 288 233 304 l 200 253 l 205 253 q 251 266 220 253 q 311 296 282 278 q 343 315 326 304 q 372 336 360 327 q 402 363 385 346 q 437 399 419 380 q 454 418 444 408 q 472 437 464 429 q 487 451 481 447 q 496 457 492 456 q 507 458 500 458 q 526 453 519 458 l 527 450 l 526 446 q 500 416 522 439 q 455 368 479 393 q 414 328 430 342 q 275 239 345 264 q 241 229 258 233 q 211 225 223 225 q 206 224 208 225 l 204 224 l 205 218 q 210 205 207 212 q 221 165 217 180 q 225 139 225 150 q 226 118 226 129 l 226 106 q 223 72 225 86 q 214 40 220 57 q 197 -1 208 22 q 174 -41 186 -24 q 146 -78 163 -60 q 115 -110 130 -97 q 39 -139 79 -139 q 21 -138 30 -139 m 69 339 q 123 378 94 355 q 202 441 153 401 l 207 446 q 229 466 221 456 q 237 484 237 476 q 236 491 237 487 q 210 519 222 519 q 173 496 198 519 q 75 375 125 455 q 62 354 68 365 q 53 336 56 342 q 50 327 50 329 l 50 326 q 56 330 50 326 q 69 339 62 334 m 60 -96 q 119 -37 89 -76 q 149 12 136 -15 q 169 63 162 39 q 175 97 174 83 q 176 117 176 112 q 173 148 176 134 q 170 165 172 155 q 165 182 168 174 q 162 190 163 190 q 152 175 161 190 q 131 139 143 161 q 111 98 119 118 q 49 -65 56 -9 q 47 -81 47 -73 q 48 -95 47 -90 q 52 -101 50 -101 q 54 -100 52 -101 q 60 -96 56 -98 z "},"r":{"ha":355,"x_min":-47,"x_max":368,"o":"m -41 60 q 3 170 -34 103 q 52 249 18 196 q 94 350 94 312 l 94 352 q 61 405 94 381 q 22 427 44 416 q -12 445 4 435 q -36 465 -27 454 q -47 500 -47 481 q -46 513 -47 507 q -7 586 -39 551 q 66 637 24 621 q 97 644 86 644 q 110 644 109 644 q 142 633 130 644 q 150 610 150 625 q 148 593 150 602 q 120 535 141 568 q 72 477 98 503 l 60 466 l 63 464 q 68 461 64 463 q 75 457 71 459 q 114 435 98 446 q 148 409 130 425 q 179 368 173 387 q 185 334 185 349 q 184 313 185 323 q 166 258 179 285 q 140 208 154 232 q 138 204 139 206 q 106 146 119 170 q 81 94 94 121 q 74 76 78 84 q 55 31 60 45 q 50 11 50 16 q 54 5 50 5 l 54 5 q 98 37 63 5 q 200 152 149 83 q 249 220 224 184 q 307 311 273 256 q 329 344 322 334 q 338 354 336 353 q 347 356 342 356 q 353 357 351 357 q 361 356 357 357 q 368 353 366 355 q 368 351 368 352 l 368 351 q 367 346 368 349 q 361 336 365 342 q 351 319 358 330 q 246 157 304 239 q 146 27 188 75 q 83 -21 119 -2 q 32 -40 48 -39 q 14 -40 15 -40 q -33 -18 -16 -40 q -43 28 -43 -2 q -41 60 -43 42 m 52 498 q 87 545 71 519 q 109 589 103 570 q 111 606 111 599 q 104 619 111 618 l 100 619 q 75 606 90 619 q 43 560 54 587 q 31 516 31 533 q 35 492 31 503 l 37 490 q 38 487 37 488 l 39 487 q 42 488 40 487 l 49 496 l 52 498 z "},"s":{"ha":317,"x_min":-183,"x_max":365,"o":"m -81 257 q -45 274 -68 264 q 2 294 -22 285 l 22 302 l 20 311 q 6 378 18 334 q -5 425 -3 410 q -7 448 -7 439 q -6 462 -7 456 q 62 549 1 512 q 112 571 87 565 q 153 576 137 576 q 186 572 170 576 q 233 531 217 563 q 238 503 238 517 q 235 481 238 492 q 232 473 233 479 q 227 462 230 468 q 223 450 225 455 q 220 444 220 444 q 214 439 220 440 q 201 437 208 437 l 198 437 q 186 440 190 437 q 182 444 182 443 l 182 446 q 185 450 182 447 q 198 475 197 463 q 198 489 198 487 q 193 521 198 507 q 161 548 181 548 q 155 547 159 548 q 110 519 132 544 q 85 463 85 491 l 85 455 q 90 434 87 446 q 102 399 94 422 q 115 364 109 381 q 122 340 121 347 q 123 338 123 339 q 125 336 124 336 q 223 377 165 347 q 310 431 281 408 l 324 442 q 336 452 332 450 q 347 454 340 454 q 365 448 365 454 q 363 444 365 447 q 358 438 361 441 q 260 370 328 410 q 131 312 192 331 q 130 311 130 312 q 130 307 130 310 q 130 299 130 304 q 131 276 131 288 q 123 212 131 242 q 96 155 115 184 q 55 107 77 126 q -14 69 22 81 q -83 58 -50 58 l -90 58 q -166 81 -149 61 q -183 121 -183 100 q -180 140 -183 130 q -145 205 -172 173 q -81 257 -117 237 m -52 113 q -7 170 -24 138 q 8 207 1 186 q 18 246 15 227 q 21 264 21 259 q 20 267 21 267 q 10 263 19 267 q -11 255 1 260 q -30 245 -22 250 q -85 207 -64 227 q -111 171 -104 189 q -117 140 -117 153 q -113 115 -117 128 q -96 97 -105 98 q -86 96 -87 96 q -52 113 -71 96 z "},"t":{"ha":340,"x_min":-109,"x_max":597,"o":"m -40 166 q -57 235 -57 192 l -57 247 q 4 448 -56 323 q 124 644 59 566 q 130 652 128 648 l 132 655 q 119 660 130 657 q 96 664 109 662 q 43 669 68 669 q -22 659 6 669 q -41 650 -33 654 q -60 637 -50 646 q -70 631 -65 634 q -76 627 -74 627 q -86 626 -80 626 l -90 626 q -102 627 -97 626 q -109 635 -109 630 q -97 650 -109 641 q -16 685 -66 674 q 46 690 14 690 q 134 682 87 690 q 147 679 142 680 q 153 678 152 678 q 163 689 155 680 q 183 710 172 699 q 202 730 194 722 q 382 852 300 828 q 407 857 396 856 q 420 857 418 857 q 451 853 436 857 q 484 830 484 842 q 484 817 484 817 q 469 768 484 793 q 370 644 435 707 q 353 628 359 634 q 347 620 347 621 q 353 618 347 619 q 367 616 359 618 q 404 613 386 613 q 494 633 452 613 q 512 644 500 637 q 536 657 524 650 q 558 670 550 666 q 571 675 567 675 q 577 676 574 676 q 584 675 581 676 q 597 667 597 673 q 578 650 597 663 q 536 624 559 637 q 495 606 512 611 q 407 589 454 592 l 397 589 q 376 590 387 589 q 339 594 361 591 q 327 596 332 595 q 319 597 321 597 q 315 595 319 597 q 308 589 312 593 q 239 542 274 562 q 163 511 205 522 l 155 498 q 89 375 119 439 q 46 268 59 312 q 34 198 34 224 q 47 164 34 171 q 58 162 52 162 q 144 212 86 162 q 216 284 172 237 q 300 378 260 330 q 361 450 357 446 q 380 454 369 454 l 385 454 q 401 446 401 453 q 400 443 401 444 q 382 419 397 438 q 346 375 366 399 q 309 332 326 351 q 288 308 299 321 q 274 292 279 299 q 187 200 233 244 q 128 153 155 170 q 80 133 104 138 q 42 127 56 127 q 9 132 25 127 q -40 166 -21 139 m 327 645 q 400 726 368 684 q 433 788 427 762 q 436 806 436 800 q 433 817 436 814 q 426 821 431 821 q 419 819 423 821 q 399 805 410 815 q 275 671 344 760 q 265 660 269 665 q 259 652 261 655 q 256 647 257 649 q 255 645 255 646 q 255 644 255 645 l 255 644 q 262 641 256 644 q 279 635 269 639 l 286 634 q 297 631 293 632 q 302 629 302 629 l 304 629 q 307 629 305 629 q 314 633 309 629 q 327 645 318 637 m 226 568 q 243 580 233 573 q 261 592 254 587 q 272 600 269 597 q 277 604 276 603 l 277 606 l 277 606 q 269 608 275 606 q 255 613 263 610 l 235 618 l 233 615 q 224 603 231 613 q 209 581 217 593 q 194 559 201 569 q 187 548 187 549 l 187 547 q 197 551 189 547 q 226 568 208 557 z "},"u":{"ha":418,"x_min":-47,"x_max":466,"o":"m 140 108 q 78 191 78 118 q 79 210 78 200 q 92 269 81 236 q 117 332 103 302 l 122 341 l 117 336 q 49 294 73 300 q 20 290 33 290 q -10 297 2 290 q -41 336 -33 309 q -47 377 -47 355 q -41 425 -47 400 q 0 505 -26 473 q 30 533 15 525 q 65 542 45 541 l 73 542 q 117 534 98 542 q 140 513 140 526 q 139 507 140 509 q 132 497 137 504 q 117 480 127 491 q 110 471 114 475 q 70 413 88 444 q 43 357 51 382 q 38 340 40 350 q 36 326 36 330 q 37 326 36 326 q 46 330 39 326 q 72 346 57 336 q 117 382 93 361 q 194 454 141 404 q 235 493 215 474 q 264 519 256 512 q 285 525 273 525 l 292 525 q 315 513 308 522 q 318 498 318 507 q 313 473 318 488 q 289 423 304 448 q 266 383 275 397 l 264 381 q 209 284 234 333 q 171 199 184 235 q 164 174 167 186 q 161 155 161 161 q 161 149 161 150 q 163 142 161 142 q 172 148 164 142 q 189 161 179 153 q 209 178 199 170 q 247 214 227 193 q 281 250 267 235 q 314 292 295 268 q 347 336 334 317 q 366 362 353 345 q 391 398 378 380 q 411 425 404 414 q 424 442 418 436 q 431 451 429 448 q 435 455 433 454 q 439 456 437 456 q 446 457 442 457 q 450 456 448 457 q 461 454 456 456 q 466 448 466 452 q 453 426 466 446 q 421 380 440 406 q 384 331 402 354 q 362 302 376 320 q 336 267 348 283 q 294 214 311 235 q 258 172 277 193 q 210 125 228 139 q 176 109 193 112 q 162 107 169 108 q 152 107 155 107 q 140 108 146 107 z "},"v":{"ha":404,"x_min":-47,"x_max":451,"o":"m -45 328 q -2 459 -36 385 q 8 482 4 473 q 22 508 13 492 q 56 553 42 544 q 97 563 72 563 q 145 553 122 563 q 170 522 168 543 q 165 497 170 512 q 146 453 160 482 q 106 373 132 424 q 78 316 88 336 q 64 286 68 296 q 54 252 54 260 q 56 249 54 250 q 58 248 56 248 q 88 264 64 248 q 184 349 140 299 q 201 369 195 361 q 208 378 208 377 l 205 380 q 201 386 203 382 q 181 420 187 401 q 178 431 179 426 q 178 446 178 436 l 177 450 q 179 469 177 461 q 187 492 182 479 q 241 539 206 531 q 254 540 247 540 q 267 540 258 540 q 283 537 275 540 q 319 494 319 527 q 279 401 319 460 q 273 392 275 396 q 271 387 271 387 q 271 385 271 386 q 273 383 272 385 q 282 382 277 382 q 306 386 292 382 q 350 403 328 393 q 390 423 373 414 q 408 435 406 433 q 415 440 410 440 q 423 441 420 441 q 434 440 429 441 q 448 433 443 438 q 451 425 451 430 q 450 420 451 422 q 444 415 448 418 q 429 406 439 412 l 425 403 q 355 367 390 380 q 288 354 319 354 q 248 357 269 354 l 235 340 q 149 251 192 287 q 109 220 127 232 q 38 198 76 198 q 20 199 29 198 q -38 239 -28 209 q -47 294 -47 269 q -45 328 -47 311 m 264 472 q 266 479 264 475 q 267 486 267 483 l 267 488 q 263 481 266 487 q 254 452 256 467 l 254 450 q 257 456 254 450 q 261 464 259 459 q 264 472 262 469 z "},"w":{"ha":664,"x_min":-34,"x_max":711,"o":"m 162 285 q 204 389 175 336 l 209 399 q 204 395 208 399 q 194 385 200 391 q 151 345 176 368 q 112 310 126 322 q 69 279 84 286 q 39 273 54 273 l 32 273 q -31 306 -17 276 q -34 332 -34 316 l -34 341 q -26 389 -33 364 q 85 577 6 497 q 108 595 98 591 q 130 600 118 600 q 140 599 134 600 q 158 597 151 598 q 175 592 165 595 q 198 568 198 582 l 198 564 q 195 556 197 560 q 187 543 193 551 q 172 521 182 535 q 87 378 123 450 q 73 347 78 359 q 67 334 67 336 q 79 341 68 334 q 103 359 90 349 q 127 378 117 370 q 165 411 142 390 q 214 454 189 431 q 237 475 227 465 q 251 488 247 484 q 260 495 255 491 q 271 504 266 500 q 287 515 281 512 q 301 517 292 517 q 326 512 315 517 q 341 498 337 507 q 342 486 342 494 l 342 483 q 340 462 342 473 q 333 443 338 456 q 323 416 328 430 q 305 372 315 395 l 299 357 q 260 245 271 289 q 253 203 253 220 q 263 176 253 183 q 276 172 269 172 q 323 193 294 172 q 454 342 393 241 q 464 362 458 351 q 473 381 469 374 q 476 391 476 389 l 476 391 q 472 394 475 391 q 463 399 469 396 q 427 438 439 416 q 417 477 417 458 q 429 519 417 499 q 460 545 445 542 q 482 548 475 548 q 518 540 500 548 q 552 475 551 526 l 552 467 q 545 418 552 441 q 543 410 544 413 q 543 406 543 407 l 543 406 q 550 407 543 406 q 566 411 557 408 q 583 416 575 414 q 603 425 589 419 q 632 436 617 430 q 658 448 648 444 q 672 453 667 452 q 680 454 677 454 l 683 455 l 686 454 q 706 449 701 453 q 711 442 711 445 q 709 437 711 440 q 691 427 706 435 q 656 410 675 419 q 623 395 637 401 q 576 380 596 385 q 530 374 557 375 l 522 359 q 485 293 508 328 q 439 229 463 258 q 355 158 400 183 q 297 138 319 138 q 274 138 275 138 q 203 157 234 138 q 165 205 172 179 q 158 250 158 232 q 162 285 158 267 m 493 454 q 493 474 494 463 q 492 493 493 485 q 490 504 491 502 l 489 504 q 486 500 487 504 q 485 489 485 495 q 484 480 484 483 q 485 467 484 473 q 487 451 486 458 q 491 444 488 444 l 492 447 q 493 454 493 450 z "},"x":{"ha":308,"x_min":-136,"x_max":355,"o":"m -130 154 q -136 160 -136 156 q -135 163 -136 161 q -79 224 -133 170 l -44 259 l -45 278 q 19 490 -43 374 q 35 516 26 503 q 50 534 44 529 q 96 549 65 548 l 103 549 q 136 545 122 549 q 156 529 153 538 q 157 525 157 527 l 157 524 q 154 515 156 521 q 149 504 153 511 q 142 490 146 497 q 127 459 136 478 q 112 425 119 440 q 105 407 105 410 q 130 431 106 407 l 192 492 q 282 581 279 581 q 292 583 287 583 l 295 582 q 309 580 302 582 q 317 576 315 578 l 317 574 q 316 570 317 572 q 311 566 314 568 q 304 559 311 566 q 288 543 297 553 q 257 511 279 534 q 211 465 235 489 q 160 415 186 441 q 117 371 133 388 l 79 333 l 73 308 q 63 243 63 268 l 63 239 q 74 211 64 212 q 85 210 83 210 q 141 237 103 210 q 281 374 195 275 q 304 399 296 391 q 316 411 312 408 q 323 414 320 414 q 332 416 329 416 q 342 415 336 416 q 351 412 347 414 q 355 406 355 409 q 339 383 355 404 q 297 331 323 362 q 237 267 273 302 q 176 210 201 231 q 117 179 149 189 q 62 169 85 169 q 35 172 48 169 q -25 212 -2 178 q -29 218 -27 216 q -31 220 -31 220 l -37 214 q -52 201 -43 209 q -85 169 -73 179 q -103 155 -97 158 q -116 152 -110 152 l -118 153 q -125 153 -121 153 q -130 154 -129 153 z "},"y":{"ha":534,"x_min":-217,"x_max":589,"o":"m -211 2 q -166 67 -198 39 q -103 112 -134 96 q 45 168 -50 138 q 89 182 72 176 q 132 198 105 188 q 158 208 144 203 q 182 216 172 212 l 204 223 l 212 239 q 265 347 235 279 q 291 406 278 376 q 307 444 304 435 l 308 447 q 306 445 307 447 q 301 439 305 444 q 292 429 297 435 q 201 340 241 372 q 156 310 180 323 q 100 288 127 294 q 57 281 73 281 q 21 288 38 281 q -20 338 -11 297 q -22 366 -22 350 l -22 372 q -18 408 -22 392 q 38 511 -4 465 q 95 546 66 541 q 119 549 107 549 q 149 545 135 549 q 174 524 174 537 q 155 488 174 517 q 90 355 104 407 q 85 330 85 338 q 89 321 85 322 l 90 321 q 125 335 99 321 q 183 375 153 349 q 261 454 214 401 q 298 494 286 480 q 318 513 311 507 q 330 520 325 518 q 357 527 342 527 q 368 526 362 527 q 410 475 410 524 q 409 459 410 468 q 395 385 406 429 q 370 307 383 341 q 367 300 368 303 q 366 297 366 298 q 374 302 367 297 q 392 313 382 307 q 412 326 403 320 q 457 362 437 345 q 508 412 477 379 q 533 439 522 428 q 546 452 545 450 q 552 454 549 453 q 564 454 556 454 l 572 454 q 577 454 575 454 q 582 452 580 454 q 589 447 589 449 l 589 445 q 583 435 589 441 q 557 407 577 427 q 517 368 538 387 q 488 341 496 348 q 359 258 422 290 l 347 253 l 334 229 q 243 85 293 146 q 138 -22 197 27 q 8 -97 79 -71 q -50 -109 -23 -107 q -86 -111 -76 -111 q -146 -104 -117 -111 q -201 -75 -185 -95 q -217 -32 -217 -54 q -211 2 -217 -17 m -35 -56 q 113 77 45 -16 q 133 106 121 89 q 155 141 144 123 q 174 171 167 159 q 181 184 181 183 l 172 181 q 149 172 163 178 q 121 161 136 166 q 97 152 106 155 q 85 147 92 150 q 60 138 71 142 q -4 112 31 128 q -61 82 -39 96 q -101 51 -81 71 q -132 12 -122 32 q -141 -24 -141 -7 q -138 -43 -141 -33 q -112 -70 -129 -68 q -90 -71 -95 -71 q -35 -56 -64 -71 z "},"z":{"ha":424,"x_min":-285,"x_max":451,"o":"m -248 -35 q -172 18 -223 -9 q -115 42 -142 32 q -43 64 -88 52 q -12 72 -23 69 q 9 78 0 75 q 33 85 18 81 q 46 90 41 88 q 53 93 51 92 q 56 95 56 94 q 58 97 57 96 q 58 106 58 98 q 59 125 58 115 l 59 138 q 51 193 59 180 l 49 197 l 22 197 q -9 198 0 197 q -24 206 -18 200 q -28 211 -27 209 q -29 216 -29 213 q 98 336 -29 241 q 130 360 115 349 q 149 374 144 371 q 156 379 153 377 q 159 382 159 382 q 155 384 159 383 q 142 387 150 385 q 44 412 83 397 q -20 462 -10 435 q -30 505 -30 488 q -19 549 -30 526 q 42 620 -1 589 q 138 659 90 654 q 157 661 148 661 q 186 658 172 661 q 229 638 211 653 q 250 597 248 624 l 250 593 q 232 534 250 564 q 100 443 195 477 q 100 442 100 443 q 114 433 100 440 q 141 422 124 428 q 175 412 159 416 q 200 408 192 408 q 209 409 204 408 q 218 410 214 410 q 239 412 229 412 q 254 412 247 412 q 283 399 273 408 q 288 390 288 395 q 287 386 288 388 q 269 366 284 378 q 236 337 258 355 q 191 301 214 319 q 157 274 169 283 q 118 247 138 260 q 90 227 98 233 l 78 221 l 85 219 q 158 146 137 205 q 161 138 160 141 q 163 134 163 134 q 173 138 164 134 q 195 148 182 142 q 216 159 207 154 q 335 255 285 202 q 418 342 386 307 q 426 343 421 343 q 433 342 429 343 q 446 340 441 342 q 450 336 450 337 l 451 334 q 448 328 451 332 q 393 268 444 323 q 296 176 342 212 q 208 120 250 140 q 183 108 194 113 q 172 102 173 103 q 171 100 171 102 q 170 97 170 98 l 171 92 l 171 78 q 142 -39 171 21 q 43 -151 107 -105 q -94 -207 -21 -197 q -123 -208 -108 -208 q -168 -205 -144 -208 q -241 -179 -209 -199 q -285 -111 -285 -149 l -285 -109 q -248 -35 -284 -71 m 96 469 q 180 527 155 495 q 199 580 199 551 l 199 582 q 187 618 199 610 q 178 622 183 622 q 149 610 167 622 q 97 551 115 584 q 79 491 79 518 q 79 481 79 486 q 84 465 81 465 q 88 466 85 465 q 96 469 92 467 m -99 -136 q -52 -99 -78 -123 q 31 10 1 -51 q 40 30 35 19 q 46 48 44 41 q 49 57 49 55 l 49 58 q 43 56 48 58 q 33 54 39 55 q 12 48 26 52 q -15 40 -1 44 q -62 26 -43 33 q -99 12 -81 20 q -212 -83 -199 -33 q -215 -103 -215 -94 q -205 -133 -215 -120 q -175 -154 -191 -153 q -156 -156 -159 -156 q -99 -136 -130 -156 z "},"{":{"ha":880,"x_min":68,"x_max":812,"o":"m 185 1 q 97 41 127 9 q 70 94 76 63 q 68 122 68 106 l 68 130 q 73 172 69 152 q 102 252 81 213 q 169 351 123 292 q 201 395 192 380 q 212 420 210 410 q 212 427 212 425 q 211 433 212 431 q 199 441 209 437 q 184 455 184 448 q 197 471 184 462 q 240 504 222 488 q 277 541 258 519 q 384 710 337 603 q 440 820 414 779 q 498 891 466 861 q 691 972 582 972 q 708 972 699 972 q 799 940 770 968 q 812 908 812 925 q 809 890 812 899 q 807 884 808 886 q 806 880 806 881 q 806 879 806 880 q 804 876 806 878 q 795 871 800 873 q 787 871 791 871 l 781 871 q 768 873 773 871 q 764 876 766 874 q 763 879 763 877 q 724 923 756 916 q 713 924 719 924 q 629 877 679 924 q 573 811 600 849 q 509 706 547 773 q 474 648 487 668 q 448 610 462 628 q 350 509 407 556 q 314 485 336 499 q 280 464 292 470 l 268 458 l 279 452 q 313 404 312 437 l 313 399 q 306 366 313 385 q 273 309 298 346 q 256 282 265 296 q 245 264 249 271 q 186 153 199 193 q 178 124 180 137 q 175 96 176 112 l 175 78 q 178 66 175 73 q 184 52 180 59 q 195 39 189 44 q 232 29 206 29 q 291 38 255 29 q 321 47 302 41 q 360 60 340 54 q 392 73 379 67 q 407 79 406 78 q 415 84 408 83 q 431 86 422 86 q 444 83 439 85 q 448 80 447 81 q 449 75 449 78 q 447 70 449 72 q 439 64 446 67 q 421 56 433 61 q 334 23 379 38 q 256 3 288 9 q 227 0 242 1 q 206 0 212 0 q 185 1 194 0 z "},"|":{"ha":209,"x_min":68,"x_max":141,"o":"m 97 2 q 87 -1 92 -1 q 81 1 83 -1 q 72 14 74 6 q 69 29 69 22 l 69 33 q 73 298 73 165 q 70 540 73 419 q 68 728 68 634 l 68 786 q 72 916 68 892 q 74 926 73 920 q 78 937 76 932 q 81 943 79 941 q 85 949 83 946 q 93 957 88 952 q 119 972 109 972 q 138 935 135 972 q 141 802 141 895 q 136 508 141 692 q 134 378 134 420 q 133 312 133 336 q 132 243 133 286 q 129 104 132 201 q 126 53 127 71 q 120 27 124 36 q 110 12 117 19 q 103 6 106 9 q 97 2 99 3 z "},"}":{"ha":772,"x_min":68,"x_max":704,"o":"m 207 2 q 165 15 186 5 q 118 43 145 24 q 90 67 104 53 q 71 90 75 81 q 68 102 68 97 q 93 122 68 119 l 97 122 q 115 119 108 122 q 125 109 125 115 q 142 85 125 98 q 179 59 158 71 q 213 43 199 47 q 227 41 220 41 q 288 63 252 41 q 404 189 348 98 q 424 224 415 208 q 443 264 433 241 q 473 324 460 304 q 500 359 486 345 q 558 397 525 383 q 623 412 591 412 l 632 412 l 631 416 q 624 429 630 418 q 610 453 618 440 q 595 476 602 466 q 554 538 566 517 q 536 577 543 558 q 519 667 519 623 q 521 697 519 682 q 530 745 524 722 q 549 810 536 769 q 565 863 560 844 q 570 897 570 883 q 568 918 570 910 q 561 932 566 926 q 547 942 554 940 q 527 945 541 945 q 510 944 517 945 q 495 941 504 943 q 483 936 489 939 q 475 932 477 934 q 470 930 472 930 q 464 929 468 929 q 454 928 460 928 q 443 929 447 928 q 437 930 439 929 q 434 932 435 930 q 429 939 429 935 q 434 946 429 943 q 479 965 449 958 q 537 972 509 972 q 618 955 585 972 q 663 904 651 937 q 669 886 667 894 q 672 865 671 879 q 673 847 673 857 q 672 825 673 837 q 662 755 669 802 q 648 660 648 680 q 647 637 647 640 q 656 561 647 603 q 669 509 661 532 q 696 444 677 486 q 702 431 700 436 q 704 423 703 427 q 704 415 704 420 q 703 405 704 408 q 700 398 703 402 q 678 384 693 389 q 645 377 663 378 q 638 376 641 377 q 632 373 635 375 q 564 264 600 350 q 475 111 525 168 q 277 2 395 22 q 241 0 262 0 q 207 2 221 0 z "},"¡":{"ha":707,"x_min":68,"x_max":640,"o":"m 640 814 q 613 782 634 793 q 575 771 591 771 q 559 773 567 771 q 531 790 538 781 q 524 806 524 800 q 538 827 524 816 q 570 840 553 838 q 595 842 587 842 q 623 838 610 842 q 640 818 640 833 l 640 814 m 529 726 q 543 721 536 724 q 553 715 550 718 q 556 711 555 713 q 557 706 557 709 q 547 684 556 699 q 516 635 538 668 q 490 596 504 616 q 468 562 477 575 q 301 323 376 418 q 266 280 290 309 q 217 221 241 250 q 181 177 193 191 q 141 137 154 144 q 120 131 130 132 q 109 131 111 131 q 84 134 95 131 q 68 153 68 139 q 73 170 68 160 q 89 199 77 181 q 124 250 100 216 q 191 340 148 283 q 243 410 218 375 q 283 464 269 445 q 315 507 297 482 q 349 552 334 532 q 392 611 377 590 q 417 646 408 631 q 443 680 431 665 q 460 702 454 696 q 513 726 481 725 l 529 726 z "},"¢":{"ha":569,"x_min":68,"x_max":501,"o":"m 122 127 q 116 130 118 127 q 113 134 113 132 q 114 137 113 135 q 116 140 115 138 q 122 149 117 141 q 132 168 126 157 q 142 185 138 178 q 146 194 146 193 q 144 195 146 195 q 140 197 142 196 q 81 248 102 210 q 72 277 75 262 q 68 313 68 292 l 68 326 q 97 444 68 385 q 250 601 151 557 q 332 617 288 617 q 389 609 366 617 q 397 607 395 607 q 399 606 399 606 l 401 606 q 402 607 401 606 q 412 621 404 610 q 428 646 419 632 q 442 670 436 660 q 458 695 452 687 q 470 706 465 703 q 484 708 475 708 q 501 702 498 708 l 501 701 q 448 602 501 687 q 438 585 442 592 q 434 578 434 578 q 435 575 434 577 q 437 571 436 573 q 444 553 441 564 q 448 533 447 543 l 448 530 q 438 491 448 511 q 429 480 434 483 q 417 477 425 477 l 414 477 q 401 479 405 477 q 398 482 399 481 q 397 485 397 483 l 397 487 q 399 496 398 490 q 401 511 401 503 q 399 522 401 518 q 385 503 397 522 q 211 224 244 283 q 209 219 210 220 q 208 218 208 218 l 208 217 q 210 216 208 216 q 218 218 212 216 q 233 223 225 220 q 247 230 241 227 q 322 285 277 245 q 335 294 330 292 q 346 296 340 296 l 350 296 q 365 288 363 294 q 359 279 365 286 q 343 264 353 273 q 324 248 334 255 q 241 200 282 214 q 216 194 229 197 q 196 191 202 191 q 193 190 195 191 q 190 187 192 189 q 185 180 189 185 q 177 166 182 175 q 158 137 164 145 q 147 127 151 128 q 135 125 142 125 q 122 127 127 125 m 179 253 q 239 357 208 308 q 336 506 269 406 q 336 507 336 507 q 360 543 351 528 q 370 559 370 557 l 370 559 q 368 563 370 561 q 358 569 363 566 q 349 573 353 572 q 344 575 345 574 q 342 575 342 575 l 340 574 q 334 572 338 574 q 303 553 321 567 q 269 522 285 539 q 201 420 231 483 q 159 279 159 334 q 164 243 159 258 q 166 237 165 239 q 168 235 168 235 l 172 240 q 179 253 175 245 z "},"£":{"ha":657,"x_min":68,"x_max":589,"o":"m 94 140 q 75 146 82 142 q 68 156 68 151 l 68 157 q 71 163 68 160 q 83 173 74 167 q 109 191 92 179 q 225 328 184 237 q 237 352 231 340 q 245 372 242 364 q 248 380 248 379 l 248 381 l 210 381 q 185 381 193 381 q 173 382 176 382 q 165 385 169 383 q 149 397 149 391 q 159 408 149 403 q 168 411 163 410 q 182 412 172 412 q 202 411 189 412 q 228 410 215 411 q 247 409 240 409 q 255 409 253 409 l 258 409 q 262 419 258 410 q 270 444 265 429 q 272 450 271 447 q 282 481 277 465 q 292 511 288 498 q 319 583 307 557 q 346 627 331 609 q 418 681 374 663 q 485 694 446 694 q 560 671 536 694 q 589 601 589 644 l 589 599 q 588 576 589 585 q 581 554 586 568 q 573 536 578 546 q 563 519 568 526 q 555 510 558 511 q 547 509 552 509 l 545 509 q 534 511 539 509 q 529 516 530 513 q 530 522 529 517 q 534 534 532 528 q 541 568 541 559 q 541 581 541 577 q 538 606 541 593 q 500 656 528 643 q 496 657 498 657 l 495 657 q 490 656 494 657 q 475 644 484 652 q 460 627 467 635 q 450 608 454 617 q 440 581 446 598 q 427 530 435 563 q 409 463 417 489 q 394 415 401 437 q 389 400 391 406 q 387 394 387 395 q 394 393 388 394 q 408 391 399 392 q 471 368 471 379 q 469 363 471 366 q 450 359 461 359 q 430 361 441 359 q 417 365 426 363 q 399 368 408 366 q 384 369 391 369 q 376 370 377 370 q 373 363 376 369 q 365 348 370 357 q 295 248 335 290 q 221 190 263 214 q 210 183 214 186 l 206 180 l 212 181 q 226 182 218 181 q 274 184 241 183 q 340 185 307 185 q 391 184 374 185 q 436 179 423 182 q 450 168 450 175 q 445 163 450 165 q 435 159 440 161 l 432 159 q 417 161 426 159 q 406 163 412 162 q 386 163 399 163 q 346 163 372 163 q 269 162 292 163 q 132 143 209 156 q 111 140 117 140 q 102 140 105 140 q 94 140 98 140 z "},"¥":{"ha":593,"x_min":68,"x_max":525,"o":"m 153 131 q 141 136 146 133 q 134 141 136 138 q 134 146 134 143 q 141 172 134 155 q 155 203 144 181 q 179 250 166 225 q 200 290 191 274 q 208 305 204 299 l 210 311 q 208 311 210 311 q 203 311 207 311 q 189 309 198 311 q 140 307 159 307 q 117 308 126 307 q 91 319 94 312 q 90 322 90 321 q 92 326 90 324 q 98 331 93 328 q 120 336 104 334 q 176 339 137 338 q 211 340 197 340 q 226 341 225 341 q 230 349 227 342 q 239 366 234 356 q 291 457 264 414 q 298 468 295 463 q 302 475 302 473 q 301 474 302 475 q 296 471 299 473 q 268 447 283 460 q 240 426 252 434 q 189 395 209 403 q 148 387 169 387 l 140 387 q 124 389 130 388 q 113 391 118 389 q 72 422 82 401 l 68 431 l 68 454 q 68 470 68 464 q 69 480 68 475 q 71 490 70 484 q 174 665 98 583 q 209 693 193 684 q 245 704 225 702 q 256 705 251 705 q 286 700 273 705 q 308 684 304 694 q 309 679 309 682 q 308 673 309 677 q 300 659 307 668 q 281 633 294 649 q 224 554 245 587 q 184 483 203 522 q 161 422 161 437 l 161 414 l 170 418 q 324 530 212 433 q 350 551 336 540 q 372 570 363 563 q 393 589 382 578 q 412 606 404 599 q 475 650 450 648 q 486 651 481 651 q 511 646 500 651 q 525 627 525 640 q 522 611 525 620 q 468 519 512 584 q 424 455 446 485 q 357 366 402 426 q 340 341 340 343 q 345 340 340 340 q 353 340 349 340 q 388 333 378 338 q 399 323 399 328 q 397 319 399 321 q 393 317 396 318 q 388 315 391 315 q 379 313 385 313 l 376 313 q 353 315 368 313 q 341 316 348 316 q 331 317 335 317 l 321 316 l 298 283 q 272 243 288 268 q 241 194 256 218 q 215 155 226 171 q 203 136 205 138 q 171 129 193 129 q 160 130 165 129 q 153 131 155 130 z "},"§":{"ha":1078,"x_min":68,"x_max":1010,"o":"m 569 216 q 585 239 578 228 q 623 328 617 288 q 629 393 629 368 q 623 457 629 425 q 610 512 618 481 q 586 593 602 542 l 585 598 q 566 665 574 632 q 558 730 558 697 l 558 735 q 536 676 543 707 q 530 627 530 651 q 533 593 530 610 q 551 511 539 552 q 553 502 551 507 q 578 378 569 441 q 583 316 583 347 q 569 216 583 264 m 654 905 q 774 961 719 949 q 863 972 830 972 q 926 965 897 972 q 993 926 977 952 q 1010 878 1010 901 q 998 826 1010 855 q 859 715 964 760 q 840 710 847 710 q 837 711 838 710 q 831 718 831 713 l 831 720 q 836 733 831 726 q 846 743 840 740 q 899 777 876 758 q 943 855 943 814 q 920 912 941 906 q 886 919 899 919 q 838 908 864 919 q 747 840 787 886 q 695 740 707 795 q 690 690 690 715 q 692 657 690 674 q 710 575 699 616 q 712 566 711 570 q 731 418 731 491 q 727 349 731 384 q 648 166 713 243 q 456 68 583 89 q 356 19 413 37 q 245 1 300 1 l 233 1 q 128 32 173 2 q 70 127 83 62 q 68 149 68 138 q 90 216 68 184 q 98 227 94 221 q 106 236 102 233 q 201 298 143 276 q 313 326 258 320 l 318 326 q 340 315 340 326 l 340 315 q 313 296 340 302 q 161 223 214 279 q 124 142 124 186 q 156 63 125 81 q 217 45 186 45 q 243 47 229 45 q 331 81 290 55 q 426 175 390 121 q 464 264 458 225 q 469 327 469 304 q 463 394 469 360 q 441 481 454 436 q 416 592 422 549 q 410 652 410 635 q 430 747 410 701 q 523 854 463 813 q 654 905 584 895 z "},"©":{"ha":595,"x_min":68,"x_max":528,"o":"m 283 644 q 355 635 320 642 q 445 597 406 625 q 507 523 484 569 q 528 427 528 475 q 512 342 528 385 q 450 249 492 291 q 358 182 408 206 q 262 160 309 160 q 197 171 229 160 q 82 283 119 197 q 68 357 68 319 l 68 367 q 96 504 68 438 q 148 596 113 547 q 224 667 182 646 q 253 673 238 673 q 277 669 264 673 q 287 664 281 667 q 293 656 292 661 l 293 654 q 292 651 293 652 q 289 648 291 649 q 288 647 288 648 l 283 644 m 268 631 l 259 622 q 174 496 204 568 q 144 405 152 448 q 136 336 136 363 q 142 281 136 308 q 185 206 156 226 q 248 186 214 186 q 262 186 255 186 q 349 214 304 191 q 476 351 437 260 q 491 429 491 390 q 481 490 491 459 q 423 572 463 542 q 330 613 382 602 q 320 615 326 614 q 268 631 294 619 m 174 335 q 172 354 172 345 q 184 413 172 385 q 207 458 192 435 q 239 495 222 481 q 291 523 267 518 q 323 527 315 527 q 374 505 353 527 q 388 471 387 490 l 388 467 q 387 455 388 460 q 381 441 385 449 q 375 431 378 436 q 366 424 371 425 l 359 424 q 353 425 355 424 q 350 429 350 427 q 352 432 350 430 q 356 440 354 434 q 359 449 358 446 q 360 459 360 454 q 355 481 360 470 q 334 499 345 499 q 330 498 332 499 q 307 476 319 494 q 280 431 293 456 q 260 382 268 405 q 252 353 255 370 q 249 325 249 336 q 250 307 249 315 q 273 287 254 288 q 290 290 281 287 q 307 297 299 294 q 358 334 332 311 q 402 380 383 357 q 406 385 403 381 q 420 401 412 391 q 436 418 429 410 q 446 427 443 426 q 452 428 448 428 q 460 427 456 428 q 464 423 463 426 l 464 422 q 463 420 464 421 q 461 417 463 418 q 434 385 448 401 l 412 361 q 348 300 382 328 q 285 267 319 277 q 258 263 271 263 q 213 275 233 263 q 174 335 182 293 z "},"ª":{"ha":381,"x_min":68,"x_max":314,"o":"m 224 802 q 208 812 212 806 q 206 821 206 815 q 210 844 206 829 l 214 856 l 204 848 q 169 826 183 831 q 139 821 155 821 l 132 821 q 72 852 87 824 q 68 871 68 861 q 69 882 68 876 q 87 919 73 900 q 120 951 101 939 q 195 973 154 973 q 217 972 205 973 q 272 941 259 964 q 274 937 273 938 q 276 936 275 936 q 280 935 277 935 q 311 924 302 935 q 313 920 313 922 q 314 917 314 918 l 313 913 q 311 900 313 906 q 301 882 309 894 q 292 867 298 877 q 281 846 286 857 q 273 830 275 836 q 269 821 270 824 q 268 816 268 818 q 267 810 268 812 q 264 807 267 809 q 259 805 262 806 q 255 803 257 804 q 243 802 249 802 q 234 802 237 802 q 224 802 229 802 m 174 859 q 214 886 191 868 q 220 891 218 890 q 222 895 222 893 l 223 895 l 222 896 q 221 899 222 897 q 218 905 220 902 q 213 921 216 916 q 205 931 210 926 l 201 935 l 193 926 q 172 897 182 914 q 159 866 162 880 q 157 857 157 861 q 160 852 157 852 q 164 854 161 852 q 174 859 168 857 z "},"«":{"ha":702,"x_min":68,"x_max":634,"o":"m 146 280 q 87 342 122 295 q 68 388 68 368 q 74 408 68 399 q 132 460 90 433 q 170 488 149 472 q 200 511 180 496 q 238 538 220 526 q 264 556 256 551 q 314 569 286 569 q 326 568 320 569 q 359 559 347 566 q 370 544 370 553 q 356 520 370 534 q 297 473 338 503 q 207 410 257 443 q 184 396 195 403 q 170 386 174 389 q 162 370 162 379 l 162 367 q 170 345 164 357 q 213 288 191 304 q 220 278 220 282 q 218 273 220 275 q 194 264 208 264 q 182 266 189 264 q 146 280 161 271 m 410 280 q 351 342 386 295 q 332 387 332 368 q 338 408 332 399 q 395 460 354 433 q 433 488 413 472 q 464 511 444 496 q 501 538 483 526 q 528 556 519 551 q 577 569 549 569 q 590 568 583 569 q 622 559 610 566 q 634 544 634 553 q 619 520 634 534 q 561 473 601 503 q 471 410 520 443 q 448 396 458 403 q 433 386 437 389 q 425 370 425 379 l 425 367 q 433 345 427 357 q 476 288 454 304 q 484 278 484 282 q 481 273 484 275 q 458 264 472 264 q 446 266 452 264 q 410 280 424 271 z "},"®":{"ha":339,"x_min":68,"x_max":271,"o":"m 167 888 l 168 889 q 190 906 176 897 q 215 918 203 916 q 220 918 218 918 q 224 918 222 918 q 233 914 229 917 q 236 909 235 912 q 237 908 237 909 q 237 905 237 907 l 237 903 q 236 898 237 901 q 225 878 233 887 q 210 863 219 869 q 182 846 198 852 l 182 845 q 185 840 184 843 q 186 836 186 838 q 186 832 186 833 q 182 815 184 823 q 178 801 179 808 q 176 794 176 798 q 176 789 176 790 q 176 784 176 786 q 178 781 178 782 q 176 777 178 779 q 171 777 174 777 l 168 777 q 159 781 163 777 q 158 784 159 782 q 156 787 157 785 q 155 796 155 791 q 156 806 155 802 q 163 827 159 817 q 165 833 164 829 q 167 841 167 838 l 167 842 l 166 842 q 160 843 163 842 q 157 845 158 844 q 156 846 156 846 q 157 848 156 848 q 160 850 158 850 q 165 851 163 851 q 167 851 166 851 q 168 852 168 851 q 182 861 176 856 q 212 893 201 874 q 216 901 214 896 q 218 908 218 905 l 218 910 l 218 911 q 213 910 216 911 q 208 907 210 909 q 176 887 191 899 l 170 880 q 163 873 165 877 l 161 872 l 159 867 q 148 848 154 857 q 128 819 139 833 q 117 806 123 812 q 113 803 115 804 q 108 802 111 802 q 102 802 105 802 q 100 804 101 803 q 99 806 99 804 l 100 806 l 100 808 q 106 821 102 814 q 112 831 109 826 q 134 869 124 849 l 135 871 q 144 892 140 882 q 147 899 146 895 q 149 906 148 903 q 153 912 151 910 q 159 914 155 914 l 160 914 q 167 910 163 913 q 169 900 170 905 q 167 888 169 894 m 119 734 q 114 737 117 735 q 107 741 110 739 q 68 825 68 768 q 68 840 68 832 q 75 869 70 852 q 86 896 80 885 q 140 955 106 935 q 174 969 157 966 q 189 970 181 970 q 204 969 196 970 q 233 958 220 966 q 271 874 271 930 q 271 859 271 867 q 264 831 269 847 q 255 805 260 815 q 204 746 233 764 q 149 728 175 728 q 133 730 141 728 q 126 732 130 730 q 119 734 122 733 m 153 749 q 221 790 193 754 q 251 874 250 827 q 238 924 251 905 q 212 945 226 942 q 190 949 198 949 q 165 944 178 949 q 124 915 143 936 q 90 851 91 876 q 89 823 89 826 q 118 759 89 781 q 123 755 121 756 q 128 753 125 754 q 136 751 131 752 q 145 750 141 750 q 153 749 149 749 z "},"°":{"ha":357,"x_min":68,"x_max":290,"o":"m 136 531 q 68 607 68 544 q 85 660 68 636 q 131 692 103 683 q 177 700 153 699 q 220 693 201 700 q 237 688 228 690 q 272 674 256 684 q 290 640 288 665 q 277 595 290 618 q 248 559 264 573 q 187 531 222 537 q 161 529 176 529 q 136 531 146 529 m 190 563 q 221 592 208 572 q 234 633 234 612 q 216 659 231 659 l 212 659 q 179 635 194 656 q 165 602 168 615 q 163 585 163 589 q 170 561 163 570 q 175 559 172 559 l 176 559 q 190 563 180 559 z "},"²":{"ha":340,"x_min":68,"x_max":272,"o":"m 90 803 q 68 819 68 808 q 103 850 68 827 q 123 865 113 857 q 140 877 134 872 q 175 910 159 892 q 195 941 190 928 l 197 945 l 197 947 l 196 947 q 189 945 194 947 q 175 938 183 942 q 163 929 168 933 q 155 922 159 926 q 149 916 151 918 q 144 910 146 912 q 140 907 142 907 q 133 905 137 905 l 130 905 q 119 907 124 905 q 111 917 111 911 q 120 932 111 924 q 154 957 133 946 q 197 972 176 968 q 217 974 208 974 q 241 970 230 974 q 268 951 260 965 q 272 935 272 943 q 271 928 272 931 q 243 882 267 907 q 186 835 220 857 q 183 833 184 834 q 176 827 176 829 q 176 827 176 827 q 197 825 178 825 q 203 824 200 825 q 240 821 224 823 q 262 818 257 819 q 267 816 264 817 q 270 814 269 814 q 272 811 272 812 q 271 808 272 810 q 265 804 269 805 q 251 803 261 803 q 219 804 240 803 q 163 806 182 806 q 131 804 145 806 q 106 801 116 801 q 90 803 96 801 z "},"³":{"ha":311,"x_min":68,"x_max":243,"o":"m 134 803 q 104 813 119 806 q 83 827 90 820 q 80 835 80 831 q 83 842 80 839 q 103 849 90 849 q 118 846 113 849 q 123 840 123 843 l 123 838 q 125 836 123 837 q 131 832 126 834 q 142 828 139 828 q 145 827 144 827 q 150 829 148 827 q 160 838 155 831 q 171 854 166 846 q 178 869 176 863 q 178 872 178 871 q 178 874 178 873 q 172 878 176 876 q 162 880 168 880 q 143 876 154 880 q 125 873 133 873 q 115 873 117 873 q 98 876 105 873 q 87 883 90 879 q 85 889 85 887 q 87 897 85 893 q 92 901 89 898 q 100 906 96 903 q 110 913 104 909 q 120 921 115 918 q 131 929 124 924 q 142 936 137 933 l 155 943 l 130 943 q 99 944 111 943 q 80 949 88 945 q 68 961 68 956 q 81 972 68 967 q 101 974 89 974 q 131 972 113 974 q 150 970 138 971 q 173 969 162 970 q 220 964 214 968 q 229 957 225 962 q 233 949 233 952 q 221 930 233 943 q 193 905 209 917 l 183 899 l 196 896 q 233 880 219 890 q 243 858 243 871 l 243 854 q 227 825 241 840 q 191 806 212 811 q 155 801 171 801 q 134 803 145 801 z "},"·":{"ha":226,"x_min":68,"x_max":158,"o":"m 68 418 q 83 446 73 439 q 109 452 93 452 l 113 452 q 145 445 132 452 q 158 427 158 439 q 155 413 158 420 q 107 382 141 382 q 79 389 90 382 q 68 410 68 397 q 68 418 68 414 z "},"∙":{"ha":226,"x_min":68,"x_max":158,"o":"m 68 418 q 83 446 73 439 q 109 452 93 452 l 113 452 q 145 445 132 452 q 158 427 158 439 q 155 413 158 420 q 107 382 141 382 q 79 389 90 382 q 68 410 68 397 q 68 418 68 414 z "},"¹":{"ha":292,"x_min":68,"x_max":224,"o":"m 87 809 q 69 817 75 811 q 68 823 68 819 q 73 841 68 829 q 134 933 79 854 q 145 949 140 942 q 152 958 150 956 q 171 965 161 964 q 186 966 181 966 q 205 964 196 966 q 224 954 218 961 q 224 951 224 952 q 216 935 224 945 q 160 867 184 898 q 127 825 136 837 q 121 816 123 819 q 115 812 118 813 q 96 808 106 808 q 87 809 92 808 z "},"º":{"ha":357,"x_min":68,"x_max":290,"o":"m 135 804 q 68 880 68 817 q 68 894 68 889 q 72 905 69 899 q 96 944 79 929 q 111 957 103 952 q 131 965 119 962 q 177 972 153 972 q 220 966 201 972 q 226 964 222 965 q 231 964 229 964 q 242 962 236 964 q 252 958 248 960 q 260 953 254 956 q 265 949 263 951 q 284 933 279 941 q 290 913 289 926 q 289 902 290 906 q 286 889 288 897 q 270 858 280 873 q 248 832 260 842 q 187 804 222 810 q 161 802 176 802 q 135 804 146 802 m 189 836 q 209 851 199 841 q 224 872 219 862 q 233 905 233 891 q 226 926 233 918 l 221 931 l 210 930 l 198 929 l 191 923 q 168 884 172 903 q 163 857 163 865 q 170 834 163 844 q 175 831 172 831 l 176 831 q 189 836 180 831 z "},"»":{"ha":587,"x_min":68,"x_max":519,"o":"m 81 256 q 68 264 71 260 q 68 267 68 265 l 68 269 q 74 276 69 271 q 91 292 79 281 q 122 318 102 302 q 201 385 175 362 q 213 395 208 391 q 221 402 220 400 q 223 406 223 405 q 222 410 223 408 q 211 422 219 414 q 198 436 205 429 q 186 450 191 444 q 125 517 165 476 q 103 541 110 532 q 96 552 96 549 q 96 556 96 555 q 100 565 96 561 q 130 578 113 578 q 149 579 146 579 q 196 569 174 579 q 231 543 214 560 q 258 507 248 526 q 270 481 263 499 q 284 445 277 464 q 294 416 293 422 q 295 408 295 410 q 290 393 295 399 q 269 375 285 386 q 248 359 260 369 q 132 271 176 302 q 111 258 121 263 q 94 254 101 254 q 81 256 87 254 m 305 256 q 292 264 294 260 q 292 267 292 265 l 292 269 q 298 276 293 271 q 315 292 303 281 q 347 318 326 302 q 425 385 399 362 q 437 395 432 391 q 447 406 447 401 q 435 422 447 410 q 422 436 429 429 q 410 450 415 444 q 349 517 389 476 q 327 541 334 532 q 320 552 320 549 q 320 556 320 555 q 323 565 320 561 q 353 578 337 578 q 372 579 370 579 q 420 569 398 579 q 454 543 437 560 q 482 507 471 526 q 494 481 487 499 q 509 445 502 464 q 518 416 517 422 q 519 406 519 409 q 515 393 519 399 q 493 375 509 386 q 472 359 484 369 q 356 271 399 302 q 335 258 345 263 q 317 254 325 254 q 305 256 311 254 z "},"¿":{"ha":665,"x_min":68,"x_max":597,"o":"m 559 877 q 597 843 597 870 q 585 813 597 824 q 561 798 574 802 q 537 795 547 795 q 524 796 530 795 q 493 811 502 800 q 484 834 484 822 l 484 839 q 509 871 490 863 q 545 878 529 878 q 559 877 552 878 m 509 730 q 529 713 529 726 q 528 703 529 709 q 522 686 526 697 q 511 656 518 675 q 502 630 506 642 q 496 612 497 618 q 492 600 494 607 q 487 589 490 593 q 462 541 479 571 q 431 490 445 510 q 299 350 393 434 q 251 304 277 330 q 214 264 226 279 q 161 157 161 195 q 163 140 161 147 q 203 121 172 121 q 216 122 209 121 q 325 159 264 126 q 494 310 447 224 q 505 340 503 330 q 507 354 507 351 q 502 367 507 364 q 499 371 499 369 l 499 372 q 504 378 499 375 q 510 380 507 380 q 520 380 513 380 q 536 378 530 380 q 546 371 542 376 q 553 347 553 363 l 553 344 q 543 305 551 326 q 402 163 509 233 q 358 139 384 153 q 314 119 333 126 q 226 96 271 102 q 189 94 210 94 q 155 96 168 94 q 81 135 102 106 q 68 179 68 155 q 125 309 68 232 q 190 382 146 337 q 295 495 256 450 q 364 584 334 540 q 378 602 370 592 q 391 620 385 612 q 411 647 400 631 q 439 690 422 663 q 464 726 458 722 q 480 731 471 730 q 493 732 489 732 q 509 730 502 732 z "},"À":{"ha":878,"x_min":-47,"x_max":925,"o":"m 481 19 q 407 121 407 30 q 418 204 407 157 q 614 612 448 351 q 630 639 624 628 q 637 650 637 650 l 631 652 q 618 653 626 652 q 585 659 602 656 q 545 667 568 661 q 500 675 525 671 q 454 682 475 679 q 428 685 433 685 q 425 684 427 685 q 419 680 422 683 q 410 670 416 676 q 393 654 404 664 q 74 273 222 476 q 39 225 53 244 q 16 194 24 205 q 2 176 7 182 q -5 168 -3 170 q -9 165 -7 165 q -22 163 -15 163 l -25 163 q -41 166 -34 163 q -47 174 -47 170 q -26 209 -47 178 q 27 282 -5 239 q 93 369 59 326 q 223 526 151 444 q 288 598 257 565 q 361 675 318 631 l 373 688 l 357 687 q 229 655 310 685 q 211 649 217 651 q 202 647 205 647 q 192 646 198 646 l 187 646 q 176 648 180 646 q 165 653 170 649 q 162 659 162 656 q 165 665 162 661 q 197 681 172 670 q 245 699 221 691 q 372 719 310 719 l 404 719 l 409 724 q 420 734 414 728 q 751 960 608 910 q 819 972 788 972 q 875 960 850 972 q 911 901 911 944 q 896 834 911 873 q 833 707 871 772 q 827 695 829 700 q 823 690 824 690 q 824 689 823 689 q 850 696 828 689 q 873 704 866 702 q 886 706 880 706 q 908 700 902 706 q 910 696 910 698 q 902 688 910 692 q 877 679 894 685 q 842 666 859 672 q 817 659 825 661 l 802 654 l 796 645 q 785 629 792 639 q 779 621 782 625 q 762 593 775 613 q 734 551 749 574 q 593 328 637 404 q 523 186 549 252 q 504 131 509 152 q 499 89 499 110 q 500 67 499 75 q 505 54 502 60 l 507 52 l 516 56 q 639 157 564 81 q 768 311 709 232 q 879 443 821 380 q 890 452 885 450 q 901 454 895 454 l 904 454 q 913 452 909 454 q 922 449 918 451 q 925 445 925 446 q 908 422 925 444 q 870 374 892 401 q 831 326 849 347 q 802 290 819 311 q 770 254 784 270 q 737 215 756 237 q 702 174 718 193 q 650 115 671 138 q 612 77 629 93 q 559 35 581 48 q 516 19 538 22 q 503 18 509 18 l 499 18 q 481 19 492 18 m 655 677 q 662 688 656 679 q 675 710 668 698 q 793 930 786 889 l 793 931 q 794 934 794 933 q 793 936 794 935 q 791 937 793 937 l 790 937 q 779 934 787 936 l 778 934 q 714 909 752 928 q 543 795 633 870 q 506 762 526 780 q 471 730 486 744 q 455 714 456 717 q 466 711 455 713 q 515 703 484 709 q 568 692 546 696 q 589 687 579 689 l 600 684 q 610 683 602 684 q 626 680 617 682 q 643 677 635 678 q 652 675 650 675 q 653 676 652 675 q 655 677 654 677 m 848 1005 q 783 1080 820 1013 q 773 1097 778 1088 q 764 1111 768 1105 q 758 1122 761 1117 q 753 1131 755 1128 q 750 1136 751 1133 q 749 1139 749 1138 q 764 1154 750 1148 q 794 1159 777 1159 l 798 1159 q 841 1133 838 1156 q 856 1088 843 1122 q 888 1025 875 1040 q 893 1019 891 1021 l 895 1016 q 887 1006 895 1011 q 873 1003 881 1004 q 863 1003 865 1003 q 848 1005 854 1003 z "},"Á":{"ha":878,"x_min":-47,"x_max":1055,"o":"m 481 19 q 407 121 407 30 q 418 204 407 157 q 614 612 448 351 q 630 639 624 628 q 637 650 637 650 l 631 652 q 618 653 626 652 q 585 659 602 656 q 545 667 568 661 q 500 675 525 671 q 454 682 475 679 q 428 685 433 685 q 425 684 427 685 q 419 680 422 683 q 410 670 416 676 q 393 654 404 664 q 74 273 222 476 q 39 225 53 244 q 16 194 24 205 q 2 176 7 182 q -5 168 -3 170 q -9 165 -7 165 q -22 163 -15 163 l -25 163 q -41 166 -34 163 q -47 174 -47 170 q -26 209 -47 178 q 27 282 -5 239 q 93 369 59 326 q 223 526 151 444 q 288 598 257 565 q 361 675 318 631 l 373 688 l 357 687 q 229 655 310 685 q 211 649 217 651 q 202 647 205 647 q 192 646 198 646 l 187 646 q 176 648 180 646 q 165 653 170 649 q 162 659 162 656 q 165 665 162 661 q 197 681 172 670 q 245 699 221 691 q 372 719 310 719 l 404 719 l 409 724 q 420 734 414 728 q 751 960 608 910 q 819 972 788 972 q 875 960 850 972 q 911 901 911 944 q 896 834 911 873 q 833 707 871 772 q 827 695 829 700 q 823 690 824 690 q 824 689 823 689 q 850 696 828 689 q 873 704 866 702 q 886 706 880 706 q 908 700 902 706 q 910 696 910 698 q 902 688 910 692 q 877 679 894 685 q 842 666 859 672 q 817 659 825 661 l 802 654 l 796 645 q 785 629 792 639 q 779 621 782 625 q 762 593 775 613 q 734 551 749 574 q 593 328 637 404 q 523 186 549 252 q 504 131 509 152 q 499 89 499 110 q 500 67 499 75 q 505 54 502 60 l 507 52 l 516 56 q 639 157 564 81 q 768 311 709 232 q 879 443 821 380 q 890 452 885 450 q 901 454 895 454 l 904 454 q 913 452 909 454 q 922 449 918 451 q 925 445 925 446 q 908 422 925 444 q 870 374 892 401 q 831 326 849 347 q 802 290 819 311 q 770 254 784 270 q 737 215 756 237 q 702 174 718 193 q 650 115 671 138 q 612 77 629 93 q 559 35 581 48 q 516 19 538 22 q 503 18 509 18 l 499 18 q 481 19 492 18 m 655 677 q 662 688 656 679 q 675 710 668 698 q 793 930 786 889 l 793 931 q 794 934 794 933 q 793 936 794 935 q 791 937 793 937 l 790 937 q 779 934 787 936 l 778 934 q 714 909 752 928 q 543 795 633 870 q 506 762 526 780 q 471 730 486 744 q 455 714 456 717 q 466 711 455 713 q 515 703 484 709 q 568 692 546 696 q 589 687 579 689 l 600 684 q 610 683 602 684 q 626 680 617 682 q 643 677 635 678 q 652 675 650 675 q 653 676 652 675 q 655 677 654 677 m 877 1012 q 862 1019 863 1015 q 860 1025 860 1023 q 865 1040 860 1031 q 870 1049 866 1043 q 879 1060 875 1055 q 905 1086 886 1068 q 941 1122 923 1105 q 963 1142 959 1139 q 969 1145 965 1143 q 977 1148 972 1147 q 987 1151 982 1150 q 1005 1152 992 1152 q 1023 1151 1018 1152 q 1034 1148 1029 1150 q 1047 1142 1042 1145 q 1054 1134 1053 1138 q 1055 1131 1055 1133 q 1053 1126 1055 1128 q 1046 1118 1051 1122 q 1013 1095 1025 1103 q 988 1076 1000 1086 q 928 1025 943 1042 q 912 1013 918 1015 q 899 1011 905 1011 q 889 1010 892 1010 q 877 1012 882 1010 z "},"Â":{"ha":878,"x_min":-47,"x_max":970,"o":"m 481 19 q 407 121 407 30 q 418 204 407 157 q 614 612 448 351 q 630 639 624 628 q 637 650 637 650 l 631 652 q 618 653 626 652 q 585 659 602 656 q 545 667 568 661 q 500 675 525 671 q 454 682 475 679 q 428 685 433 685 q 425 684 427 685 q 419 680 422 683 q 410 670 416 676 q 393 654 404 664 q 74 273 222 476 q 39 225 53 244 q 16 194 24 205 q 2 176 7 182 q -5 168 -3 170 q -9 165 -7 165 q -22 163 -15 163 l -25 163 q -41 166 -34 163 q -47 174 -47 170 q -26 209 -47 178 q 27 282 -5 239 q 93 369 59 326 q 223 526 151 444 q 288 598 257 565 q 361 675 318 631 l 373 688 l 357 687 q 229 655 310 685 q 211 649 217 651 q 202 647 205 647 q 192 646 198 646 l 187 646 q 176 648 180 646 q 165 653 170 649 q 162 659 162 656 q 165 665 162 661 q 197 681 172 670 q 245 699 221 691 q 372 719 310 719 l 404 719 l 409 724 q 420 734 414 728 q 751 960 608 910 q 819 972 788 972 q 875 960 850 972 q 911 901 911 944 q 896 834 911 873 q 833 707 871 772 q 827 695 829 700 q 823 690 824 690 q 824 689 823 689 q 850 696 828 689 q 873 704 866 702 q 886 706 880 706 q 908 700 902 706 q 910 696 910 698 q 902 688 910 692 q 877 679 894 685 q 842 666 859 672 q 817 659 825 661 l 802 654 l 796 645 q 785 629 792 639 q 779 621 782 625 q 762 593 775 613 q 734 551 749 574 q 593 328 637 404 q 523 186 549 252 q 504 131 509 152 q 499 89 499 110 q 500 67 499 75 q 505 54 502 60 l 507 52 l 516 56 q 639 157 564 81 q 768 311 709 232 q 879 443 821 380 q 890 452 885 450 q 901 454 895 454 l 904 454 q 913 452 909 454 q 922 449 918 451 q 925 445 925 446 q 908 422 925 444 q 870 374 892 401 q 831 326 849 347 q 802 290 819 311 q 770 254 784 270 q 737 215 756 237 q 702 174 718 193 q 650 115 671 138 q 612 77 629 93 q 559 35 581 48 q 516 19 538 22 q 503 18 509 18 l 499 18 q 481 19 492 18 m 655 677 q 662 688 656 679 q 675 710 668 698 q 793 930 786 889 l 793 931 q 794 934 794 933 q 793 936 794 935 q 791 937 793 937 l 790 937 q 779 934 787 936 l 778 934 q 714 909 752 928 q 543 795 633 870 q 506 762 526 780 q 471 730 486 744 q 455 714 456 717 q 466 711 455 713 q 515 703 484 709 q 568 692 546 696 q 589 687 579 689 l 600 684 q 610 683 602 684 q 626 680 617 682 q 643 677 635 678 q 652 675 650 675 q 653 676 652 675 q 655 677 654 677 m 930 1006 q 899 1026 909 1010 q 877 1088 888 1043 l 872 1108 l 863 1100 q 833 1075 850 1090 q 797 1042 815 1059 q 781 1027 788 1034 q 771 1020 773 1021 q 760 1018 766 1018 q 751 1017 754 1017 q 742 1018 746 1017 q 734 1022 737 1019 q 730 1027 730 1025 q 810 1098 730 1034 q 835 1120 823 1109 q 854 1137 848 1131 q 865 1148 861 1144 q 873 1153 869 1152 q 882 1156 877 1155 q 897 1158 889 1158 q 914 1156 905 1158 q 939 1143 930 1152 q 944 1136 942 1139 q 946 1124 945 1132 q 948 1103 947 1117 q 956 1038 951 1057 q 959 1028 958 1031 q 965 1023 961 1025 q 969 1018 968 1019 q 970 1016 970 1017 l 970 1014 q 959 1006 968 1008 q 945 1004 950 1004 q 930 1006 937 1004 z "},"Ã":{"ha":878,"x_min":-47,"x_max":991,"o":"m 481 19 q 407 121 407 30 q 418 204 407 157 q 614 612 448 351 q 630 639 624 628 q 637 650 637 650 l 631 652 q 618 653 626 652 q 585 659 602 656 q 545 667 568 661 q 500 675 525 671 q 454 682 475 679 q 428 685 433 685 q 425 684 427 685 q 419 680 422 683 q 410 670 416 676 q 393 654 404 664 q 74 273 222 476 q 39 225 53 244 q 16 194 24 205 q 2 176 7 182 q -5 168 -3 170 q -9 165 -7 165 q -22 163 -15 163 l -25 163 q -41 166 -34 163 q -47 174 -47 170 q -26 209 -47 178 q 27 282 -5 239 q 93 369 59 326 q 223 526 151 444 q 288 598 257 565 q 361 675 318 631 l 373 688 l 357 687 q 229 655 310 685 q 211 649 217 651 q 202 647 205 647 q 192 646 198 646 l 187 646 q 176 648 180 646 q 165 653 170 649 q 162 659 162 656 q 165 665 162 661 q 197 681 172 670 q 245 699 221 691 q 372 719 310 719 l 404 719 l 409 724 q 420 734 414 728 q 751 960 608 910 q 819 972 788 972 q 875 960 850 972 q 911 901 911 944 q 896 834 911 873 q 833 707 871 772 q 827 695 829 700 q 823 690 824 690 q 824 689 823 689 q 850 696 828 689 q 873 704 866 702 q 886 706 880 706 q 908 700 902 706 q 910 696 910 698 q 902 688 910 692 q 877 679 894 685 q 842 666 859 672 q 817 659 825 661 l 802 654 l 796 645 q 785 629 792 639 q 779 621 782 625 q 762 593 775 613 q 734 551 749 574 q 593 328 637 404 q 523 186 549 252 q 504 131 509 152 q 499 89 499 110 q 500 67 499 75 q 505 54 502 60 l 507 52 l 516 56 q 639 157 564 81 q 768 311 709 232 q 879 443 821 380 q 890 452 885 450 q 901 454 895 454 l 904 454 q 913 452 909 454 q 922 449 918 451 q 925 445 925 446 q 908 422 925 444 q 870 374 892 401 q 831 326 849 347 q 802 290 819 311 q 770 254 784 270 q 737 215 756 237 q 702 174 718 193 q 650 115 671 138 q 612 77 629 93 q 559 35 581 48 q 516 19 538 22 q 503 18 509 18 l 499 18 q 481 19 492 18 m 655 677 q 662 688 656 679 q 675 710 668 698 q 793 930 786 889 l 793 931 q 794 934 794 933 q 793 936 794 935 q 791 937 793 937 l 790 937 q 779 934 787 936 l 778 934 q 714 909 752 928 q 543 795 633 870 q 506 762 526 780 q 471 730 486 744 q 455 714 456 717 q 466 711 455 713 q 515 703 484 709 q 568 692 546 696 q 589 687 579 689 l 600 684 q 610 683 602 684 q 626 680 617 682 q 643 677 635 678 q 652 675 650 675 q 653 676 652 675 q 655 677 654 677 m 720 1041 q 748 1084 725 1062 q 793 1115 772 1107 q 827 1122 815 1122 q 855 1115 842 1122 q 889 1085 876 1100 q 906 1068 897 1077 q 916 1063 911 1063 q 919 1063 918 1063 q 930 1074 924 1066 q 938 1087 935 1081 q 943 1100 941 1093 q 954 1114 947 1113 q 964 1116 961 1116 q 981 1112 972 1116 q 989 1102 987 1108 q 991 1090 991 1095 q 989 1080 991 1085 q 965 1040 983 1059 q 934 1017 948 1021 q 913 1013 920 1013 q 877 1027 896 1013 q 860 1044 869 1033 q 840 1063 850 1055 q 822 1073 830 1072 q 820 1074 821 1074 q 818 1073 819 1074 q 814 1072 816 1073 l 813 1072 q 801 1063 807 1069 q 789 1053 795 1058 l 788 1052 q 769 1029 777 1042 l 768 1026 q 755 1013 762 1014 q 745 1011 747 1011 q 729 1017 736 1011 q 720 1039 720 1024 l 720 1041 z "},"Ä":{"ha":878,"x_min":-47,"x_max":1002,"o":"m 481 19 q 407 121 407 30 q 418 204 407 157 q 614 612 448 351 q 630 639 624 628 q 637 650 637 650 l 631 652 q 618 653 626 652 q 585 659 602 656 q 545 667 568 661 q 500 675 525 671 q 454 682 475 679 q 428 685 433 685 q 425 684 427 685 q 419 680 422 683 q 410 670 416 676 q 393 654 404 664 q 74 273 222 476 q 39 225 53 244 q 16 194 24 205 q 2 176 7 182 q -5 168 -3 170 q -9 165 -7 165 q -22 163 -15 163 l -25 163 q -41 166 -34 163 q -47 174 -47 170 q -26 209 -47 178 q 27 282 -5 239 q 93 369 59 326 q 223 526 151 444 q 288 598 257 565 q 361 675 318 631 l 373 688 l 357 687 q 229 655 310 685 q 211 649 217 651 q 202 647 205 647 q 192 646 198 646 l 187 646 q 176 648 180 646 q 165 653 170 649 q 162 659 162 656 q 165 665 162 661 q 197 681 172 670 q 245 699 221 691 q 372 719 310 719 l 404 719 l 409 724 q 420 734 414 728 q 751 960 608 910 q 819 972 788 972 q 875 960 850 972 q 911 901 911 944 q 896 834 911 873 q 833 707 871 772 q 827 695 829 700 q 823 690 824 690 q 824 689 823 689 q 850 696 828 689 q 873 704 866 702 q 886 706 880 706 q 908 700 902 706 q 910 696 910 698 q 902 688 910 692 q 877 679 894 685 q 842 666 859 672 q 817 659 825 661 l 802 654 l 796 645 q 785 629 792 639 q 779 621 782 625 q 762 593 775 613 q 734 551 749 574 q 593 328 637 404 q 523 186 549 252 q 504 131 509 152 q 499 89 499 110 q 500 67 499 75 q 505 54 502 60 l 507 52 l 516 56 q 639 157 564 81 q 768 311 709 232 q 879 443 821 380 q 890 452 885 450 q 901 454 895 454 l 904 454 q 913 452 909 454 q 922 449 918 451 q 925 445 925 446 q 908 422 925 444 q 870 374 892 401 q 831 326 849 347 q 802 290 819 311 q 770 254 784 270 q 737 215 756 237 q 702 174 718 193 q 650 115 671 138 q 612 77 629 93 q 559 35 581 48 q 516 19 538 22 q 503 18 509 18 l 499 18 q 481 19 492 18 m 655 677 q 662 688 656 679 q 675 710 668 698 q 793 930 786 889 l 793 931 q 794 934 794 933 q 793 936 794 935 q 791 937 793 937 l 790 937 q 779 934 787 936 l 778 934 q 714 909 752 928 q 543 795 633 870 q 506 762 526 780 q 471 730 486 744 q 455 714 456 717 q 466 711 455 713 q 515 703 484 709 q 568 692 546 696 q 589 687 579 689 l 600 684 q 610 683 602 684 q 626 680 617 682 q 643 677 635 678 q 652 675 650 675 q 653 676 652 675 q 655 677 654 677 m 937 1013 q 912 1029 915 1019 q 910 1043 910 1040 q 920 1068 910 1057 q 961 1083 934 1083 q 995 1070 988 1081 q 1002 1051 1002 1060 q 1000 1039 1002 1045 q 977 1016 991 1021 q 951 1011 962 1011 q 937 1013 944 1011 m 792 1013 q 768 1029 770 1019 q 766 1043 766 1040 q 776 1068 766 1057 q 816 1083 789 1083 q 850 1070 844 1081 q 857 1051 857 1060 q 854 1039 857 1045 q 832 1016 847 1021 q 806 1011 817 1011 q 792 1013 799 1011 z "},"Å":{"ha":878,"x_min":-47,"x_max":1032,"o":"m 481 19 q 407 121 407 30 q 418 204 407 157 q 614 612 448 351 q 630 639 624 628 q 637 650 637 650 l 631 652 q 618 653 626 652 q 585 659 602 656 q 545 667 568 661 q 500 675 525 671 q 454 682 475 679 q 428 685 433 685 q 425 684 427 685 q 419 680 422 683 q 410 670 416 676 q 393 654 404 664 q 74 273 222 476 q 39 225 53 244 q 16 194 24 205 q 2 176 7 182 q -5 168 -3 170 q -9 165 -7 165 q -22 163 -15 163 l -25 163 q -41 166 -34 163 q -47 174 -47 170 q -26 209 -47 178 q 27 282 -5 239 q 93 369 59 326 q 223 526 151 444 q 288 598 257 565 q 361 675 318 631 l 373 688 l 357 687 q 229 655 310 685 q 211 649 217 651 q 202 647 205 647 q 192 646 198 646 l 187 646 q 176 648 180 646 q 165 653 170 649 q 162 659 162 656 q 165 665 162 661 q 197 681 172 670 q 245 699 221 691 q 372 719 310 719 l 404 719 l 409 724 q 420 734 414 728 q 751 960 608 910 q 819 972 788 972 q 875 960 850 972 q 911 901 911 944 q 896 834 911 873 q 833 707 871 772 q 827 695 829 700 q 823 690 824 690 q 824 689 823 689 q 850 696 828 689 q 873 704 866 702 q 886 706 880 706 q 908 700 902 706 q 910 696 910 698 q 902 688 910 692 q 877 679 894 685 q 842 666 859 672 q 817 659 825 661 l 802 654 l 796 645 q 785 629 792 639 q 779 621 782 625 q 762 593 775 613 q 734 551 749 574 q 593 328 637 404 q 523 186 549 252 q 504 131 509 152 q 499 89 499 110 q 500 67 499 75 q 505 54 502 60 l 507 52 l 516 56 q 639 157 564 81 q 768 311 709 232 q 879 443 821 380 q 890 452 885 450 q 901 454 895 454 l 904 454 q 913 452 909 454 q 922 449 918 451 q 925 445 925 446 q 908 422 925 444 q 870 374 892 401 q 831 326 849 347 q 802 290 819 311 q 770 254 784 270 q 737 215 756 237 q 702 174 718 193 q 650 115 671 138 q 612 77 629 93 q 559 35 581 48 q 516 19 538 22 q 503 18 509 18 l 499 18 q 481 19 492 18 m 655 677 q 662 688 656 679 q 675 710 668 698 q 793 930 786 889 l 793 931 q 794 934 794 933 q 793 936 794 935 q 791 937 793 937 l 790 937 q 779 934 787 936 l 778 934 q 714 909 752 928 q 543 795 633 870 q 506 762 526 780 q 471 730 486 744 q 455 714 456 717 q 466 711 455 713 q 515 703 484 709 q 568 692 546 696 q 589 687 579 689 l 600 684 q 610 683 602 684 q 626 680 617 682 q 643 677 635 678 q 652 675 650 675 q 653 676 652 675 q 655 677 654 677 m 907 1009 q 890 1013 897 1011 q 876 1019 884 1015 q 839 1078 839 1037 q 842 1101 839 1088 q 886 1164 852 1147 q 905 1171 896 1169 q 926 1174 913 1173 l 935 1174 q 964 1170 950 1174 q 972 1168 967 1169 q 983 1165 977 1166 q 1018 1148 1006 1160 q 1031 1122 1031 1135 q 1032 1107 1032 1109 q 1023 1065 1032 1087 q 956 1010 1002 1021 q 937 1008 946 1008 q 922 1008 927 1008 q 907 1009 913 1008 m 948 1039 q 969 1061 960 1046 q 983 1093 979 1076 q 984 1103 984 1099 q 983 1114 984 1107 q 981 1124 983 1119 q 977 1134 979 1130 q 974 1138 975 1138 q 971 1136 973 1138 q 966 1132 969 1135 q 943 1093 955 1119 q 932 1053 932 1067 q 933 1044 932 1049 q 937 1036 935 1040 q 940 1036 938 1036 q 948 1039 943 1036 z "},"Æ":{"ha":1234,"x_min":-47,"x_max":1316,"o":"m 451 136 q 436 212 437 169 l 436 222 q 456 329 436 274 q 509 433 476 390 l 509 433 q 614 612 551 512 q 630 638 624 627 q 637 650 637 649 q 631 651 636 650 q 618 653 626 652 q 585 658 602 655 q 545 666 568 661 q 499 674 524 670 q 454 681 475 678 q 427 684 433 684 q 424 683 426 684 q 419 679 422 682 q 410 670 416 676 q 393 653 404 663 q 74 273 222 476 q 39 224 53 243 q 16 194 24 205 q 2 176 7 182 q -5 168 -3 170 q -9 165 -7 165 q -22 163 -15 163 l -25 163 q -41 166 -34 163 q -47 174 -47 169 q -26 208 -47 177 q 27 282 -5 239 q 93 369 59 326 q 223 526 151 444 q 288 598 257 565 q 361 675 318 631 l 372 687 l 357 686 q 229 654 310 684 q 211 648 217 650 q 201 646 205 646 q 192 646 197 646 q 176 647 182 646 q 165 652 170 648 q 162 658 162 655 q 165 664 162 661 q 197 681 172 670 q 245 699 221 691 q 368 718 308 718 l 403 718 q 409 723 404 718 q 420 733 414 727 q 751 960 607 910 q 819 972 788 972 q 875 960 850 972 q 906 929 897 949 q 996 968 949 954 q 1135 989 1071 989 q 1246 970 1196 989 q 1301 924 1286 951 q 1316 873 1316 897 q 1312 846 1316 860 q 1294 806 1307 829 q 1264 763 1280 783 q 1222 721 1245 741 q 1181 693 1198 701 q 1172 690 1176 690 q 1162 689 1168 689 q 1136 696 1142 689 q 1135 699 1135 698 q 1136 702 1135 701 q 1147 709 1139 705 q 1166 722 1156 714 q 1192 745 1177 730 q 1259 853 1253 806 l 1259 857 q 1242 905 1259 882 q 1197 941 1224 931 q 1176 943 1187 943 q 1097 922 1143 943 q 998 841 1039 892 q 944 728 958 789 q 941 699 941 713 q 941 679 941 684 q 942 650 941 663 q 958 594 945 621 q 1002 523 970 568 q 1026 485 1023 494 q 1030 472 1030 476 q 1026 463 1030 466 q 982 450 1015 450 q 929 465 951 450 q 910 475 923 469 q 886 485 897 481 q 854 492 869 490 q 822 494 839 494 l 817 494 q 713 450 754 494 q 606 246 640 372 q 594 159 594 197 q 623 73 594 102 q 682 50 644 50 q 798 81 728 50 q 1038 244 910 134 q 1119 317 1093 291 q 1148 348 1132 330 q 1198 402 1164 365 q 1209 412 1204 408 q 1217 418 1214 417 q 1234 422 1224 422 q 1253 419 1244 422 q 1263 411 1261 416 q 1262 407 1263 410 q 1259 401 1261 405 q 1251 389 1256 397 q 1205 334 1233 366 q 1155 279 1177 302 q 1068 199 1122 245 q 965 118 1014 154 q 838 45 911 79 q 718 6 766 12 q 652 -1 670 -1 q 551 21 598 -1 q 451 136 487 51 m 733 551 q 745 551 739 551 q 766 552 755 552 q 788 551 777 552 q 829 548 812 551 q 838 547 834 547 q 842 547 842 547 q 839 551 842 547 q 831 562 836 555 q 787 631 804 594 l 779 620 q 762 593 774 613 q 733 551 749 574 m 654 677 q 662 688 656 679 q 675 710 667 697 q 793 930 786 888 q 794 933 794 932 q 793 935 794 935 q 791 936 793 936 l 789 936 q 779 934 786 936 q 777 933 778 933 q 714 908 752 927 q 543 794 633 869 q 506 761 526 779 q 471 730 486 743 q 455 713 456 716 q 466 711 455 712 q 514 702 484 708 q 568 692 545 696 q 585 688 576 690 q 600 684 596 685 q 609 682 602 684 q 626 679 617 681 q 643 676 635 677 q 651 675 650 675 q 653 676 652 675 q 654 677 654 676 z "},"Ç":{"ha":626,"x_min":-47,"x_max":673,"o":"m 119 20 q -3 100 41 33 q -40 195 -28 138 q -46 229 -44 214 q -47 267 -47 243 l -47 306 q -43 346 -47 322 q 7 515 -32 422 q 103 690 47 608 q 217 828 155 767 q 416 958 314 926 q 503 972 458 970 l 517 972 q 595 960 562 972 q 671 892 660 939 q 673 873 673 885 l 673 867 q 671 838 673 852 q 637 747 663 798 q 578 655 612 696 q 547 625 556 629 q 537 623 543 623 q 529 624 533 623 q 516 629 519 625 q 515 631 515 630 q 516 634 515 632 q 521 638 517 635 q 551 675 534 651 q 581 722 568 700 q 615 813 606 773 q 617 842 617 826 q 614 869 617 858 q 551 926 602 915 q 534 928 543 928 q 445 894 496 928 q 209 627 319 807 q 77 295 103 446 q 72 231 72 261 q 108 92 72 148 q 129 68 117 78 q 154 54 142 58 q 166 52 159 52 q 241 75 192 52 q 464 241 319 110 q 516 291 479 255 q 593 370 553 328 q 613 390 605 381 q 625 399 622 398 q 640 401 629 401 q 654 399 649 401 q 660 396 658 397 q 661 392 661 394 q 598 323 661 390 q 536 261 564 288 q 460 190 509 234 q 351 97 394 129 q 270 45 309 64 q 224 27 245 33 q 204 -1 218 16 q 173 -37 191 -18 q 160 -50 165 -45 q 155 -56 156 -54 q 153 -58 153 -58 l 153 -59 q 155 -60 153 -60 q 200 -77 181 -66 q 229 -109 229 -96 q 229 -123 229 -121 q 212 -166 229 -145 q 169 -200 195 -188 q 98 -215 135 -215 q 79 -214 89 -215 q 47 -209 62 -213 q 25 -197 32 -204 q 22 -189 22 -193 q 23 -183 22 -186 q 35 -173 26 -176 q 49 -171 42 -171 q 60 -172 55 -171 q 75 -182 73 -175 q 84 -188 77 -188 l 85 -188 q 102 -182 94 -186 q 115 -176 111 -178 q 146 -127 141 -158 q 147 -115 147 -120 q 140 -93 147 -99 q 107 -85 130 -85 q 83 -83 91 -85 q 69 -77 75 -81 q 63 -65 63 -72 q 64 -60 63 -63 q 113 3 69 -43 l 117 7 q 128 18 123 14 q 119 20 123 19 z "},"È":{"ha":751,"x_min":-47,"x_max":832,"o":"m 156 1 q 112 9 135 3 q -33 136 9 40 q -47 212 -46 170 l -47 222 q -28 330 -47 275 q 54 465 0 412 q 262 551 132 546 q 282 552 271 552 q 304 551 293 552 q 346 549 328 551 q 355 548 351 548 q 359 547 358 547 l 356 551 q 347 562 353 555 q 295 653 305 612 q 284 718 284 694 q 298 793 284 755 q 383 903 324 858 q 513 969 441 947 q 651 990 587 990 q 763 970 712 990 q 818 924 803 951 q 832 873 832 897 q 829 846 832 860 q 811 806 824 829 q 781 764 798 783 q 739 721 762 741 q 698 693 715 702 q 689 690 692 691 q 678 689 685 689 q 653 696 659 689 q 652 699 652 698 q 653 702 652 701 q 663 709 655 705 q 683 723 673 714 q 709 746 693 731 q 775 853 770 806 l 775 859 q 759 906 775 883 q 713 941 741 932 q 692 944 704 944 q 614 922 660 944 q 515 842 555 893 q 460 728 474 790 q 457 699 458 713 q 457 680 457 685 q 458 650 457 663 q 475 594 462 621 q 519 524 488 568 q 543 485 540 494 q 547 473 547 477 q 543 463 547 467 q 499 450 532 450 q 446 465 467 450 q 426 475 439 469 q 403 485 413 481 q 372 492 385 490 q 345 494 359 494 l 333 494 q 230 450 271 494 q 123 246 157 372 q 111 165 111 200 q 119 115 111 136 q 170 52 134 70 q 177 48 174 50 q 183 47 180 47 q 193 47 186 47 q 246 56 214 47 q 555 244 381 95 q 636 317 610 292 q 665 348 648 330 q 715 402 682 365 q 726 413 721 408 q 733 419 731 418 q 751 422 741 422 q 769 419 761 422 q 779 412 778 416 q 780 410 780 411 q 779 408 780 409 q 776 401 779 406 q 767 389 773 397 q 722 335 750 367 q 671 279 694 302 q 585 199 638 245 q 481 119 531 154 q 234 2 345 19 q 211 1 226 1 q 185 0 195 0 q 170 0 174 0 q 156 1 161 0 m 621 1029 q 555 1104 593 1038 q 546 1121 551 1112 q 537 1135 541 1130 q 531 1147 534 1141 q 526 1155 528 1152 q 523 1160 524 1158 q 522 1163 522 1162 q 536 1178 523 1173 q 567 1183 550 1183 l 571 1183 q 614 1157 610 1181 q 629 1113 616 1147 q 661 1049 648 1065 q 666 1043 664 1046 l 668 1040 q 660 1031 668 1036 q 646 1028 654 1028 q 636 1027 638 1027 q 621 1029 627 1027 z "},"É":{"ha":751,"x_min":-47,"x_max":832,"o":"m 156 1 q 112 9 135 3 q -33 136 9 40 q -47 212 -46 170 l -47 222 q -28 330 -47 275 q 54 465 0 412 q 262 551 132 546 q 282 552 271 552 q 304 551 293 552 q 346 549 328 551 q 355 548 351 548 q 359 547 358 547 l 356 551 q 347 562 353 555 q 295 653 305 612 q 284 718 284 694 q 298 793 284 755 q 383 903 324 858 q 513 969 441 947 q 651 990 587 990 q 763 970 712 990 q 818 924 803 951 q 832 873 832 897 q 829 846 832 860 q 811 806 824 829 q 781 764 798 783 q 739 721 762 741 q 698 693 715 702 q 689 690 692 691 q 678 689 685 689 q 653 696 659 689 q 652 699 652 698 q 653 702 652 701 q 663 709 655 705 q 683 723 673 714 q 709 746 693 731 q 775 853 770 806 l 775 859 q 759 906 775 883 q 713 941 741 932 q 692 944 704 944 q 614 922 660 944 q 515 842 555 893 q 460 728 474 790 q 457 699 458 713 q 457 680 457 685 q 458 650 457 663 q 475 594 462 621 q 519 524 488 568 q 543 485 540 494 q 547 473 547 477 q 543 463 547 467 q 499 450 532 450 q 446 465 467 450 q 426 475 439 469 q 403 485 413 481 q 372 492 385 490 q 345 494 359 494 l 333 494 q 230 450 271 494 q 123 246 157 372 q 111 165 111 200 q 119 115 111 136 q 170 52 134 70 q 177 48 174 50 q 183 47 180 47 q 193 47 186 47 q 246 56 214 47 q 555 244 381 95 q 636 317 610 292 q 665 348 648 330 q 715 402 682 365 q 726 413 721 408 q 733 419 731 418 q 751 422 741 422 q 769 419 761 422 q 779 412 778 416 q 780 410 780 411 q 779 408 780 409 q 776 401 779 406 q 767 389 773 397 q 722 335 750 367 q 671 279 694 302 q 585 199 638 245 q 481 119 531 154 q 234 2 345 19 q 211 1 226 1 q 185 0 195 0 q 170 0 174 0 q 156 1 161 0 m 631 1036 q 615 1044 617 1040 q 614 1050 614 1048 q 618 1064 614 1055 q 624 1074 620 1067 q 633 1084 629 1080 q 659 1111 640 1093 q 695 1146 677 1129 q 717 1166 713 1164 q 723 1170 719 1168 q 730 1173 726 1171 q 741 1175 736 1175 q 759 1176 746 1176 q 777 1175 772 1176 q 788 1173 783 1175 q 801 1166 795 1170 q 808 1158 806 1162 q 808 1156 808 1157 q 807 1150 808 1153 q 800 1143 805 1146 q 766 1119 779 1128 q 742 1101 754 1110 q 682 1050 697 1067 q 666 1038 671 1040 q 652 1035 659 1036 q 643 1035 646 1035 q 631 1036 635 1035 z "},"Ê":{"ha":751,"x_min":-47,"x_max":832,"o":"m 156 1 q 112 9 135 3 q -33 136 9 40 q -47 212 -46 170 l -47 222 q -28 330 -47 275 q 54 465 0 412 q 262 551 132 546 q 282 552 271 552 q 304 551 293 552 q 346 549 328 551 q 355 548 351 548 q 359 547 358 547 l 356 551 q 347 562 353 555 q 295 653 305 612 q 284 718 284 694 q 298 793 284 755 q 383 903 324 858 q 513 969 441 947 q 651 990 587 990 q 763 970 712 990 q 818 924 803 951 q 832 873 832 897 q 829 846 832 860 q 811 806 824 829 q 781 764 798 783 q 739 721 762 741 q 698 693 715 702 q 689 690 692 691 q 678 689 685 689 q 653 696 659 689 q 652 699 652 698 q 653 702 652 701 q 663 709 655 705 q 683 723 673 714 q 709 746 693 731 q 775 853 770 806 l 775 859 q 759 906 775 883 q 713 941 741 932 q 692 944 704 944 q 614 922 660 944 q 515 842 555 893 q 460 728 474 790 q 457 699 458 713 q 457 680 457 685 q 458 650 457 663 q 475 594 462 621 q 519 524 488 568 q 543 485 540 494 q 547 473 547 477 q 543 463 547 467 q 499 450 532 450 q 446 465 467 450 q 426 475 439 469 q 403 485 413 481 q 372 492 385 490 q 345 494 359 494 l 333 494 q 230 450 271 494 q 123 246 157 372 q 111 165 111 200 q 119 115 111 136 q 170 52 134 70 q 177 48 174 50 q 183 47 180 47 q 193 47 186 47 q 246 56 214 47 q 555 244 381 95 q 636 317 610 292 q 665 348 648 330 q 715 402 682 365 q 726 413 721 408 q 733 419 731 418 q 751 422 741 422 q 769 419 761 422 q 779 412 778 416 q 780 410 780 411 q 779 408 780 409 q 776 401 779 406 q 767 389 773 397 q 722 335 750 367 q 671 279 694 302 q 585 199 638 245 q 481 119 531 154 q 234 2 345 19 q 211 1 226 1 q 185 0 195 0 q 170 0 174 0 q 156 1 161 0 m 767 1030 q 736 1051 747 1034 q 714 1113 726 1067 l 709 1133 l 700 1124 q 670 1099 688 1115 q 634 1067 652 1084 q 618 1052 625 1058 q 608 1044 610 1045 q 597 1042 604 1042 q 589 1042 591 1042 q 579 1042 583 1042 q 571 1046 574 1044 q 568 1051 568 1049 q 647 1122 568 1058 q 672 1145 660 1134 q 691 1162 685 1156 q 702 1172 698 1168 q 710 1178 707 1176 q 719 1181 714 1179 q 734 1182 726 1182 q 751 1180 743 1182 q 776 1168 767 1177 q 781 1160 779 1164 q 784 1149 783 1156 q 785 1127 785 1141 q 793 1062 789 1081 q 797 1053 795 1056 q 802 1047 798 1050 q 807 1043 806 1044 q 808 1040 808 1042 l 807 1038 q 796 1030 805 1032 q 782 1029 787 1029 q 767 1030 774 1029 z "},"Ë":{"ha":751,"x_min":-47,"x_max":832,"o":"m 156 1 q 112 9 135 3 q -33 136 9 40 q -47 212 -46 170 l -47 222 q -28 330 -47 275 q 54 465 0 412 q 262 551 132 546 q 282 552 271 552 q 304 551 293 552 q 346 549 328 551 q 355 548 351 548 q 359 547 358 547 l 356 551 q 347 562 353 555 q 295 653 305 612 q 284 718 284 694 q 298 793 284 755 q 383 903 324 858 q 513 969 441 947 q 651 990 587 990 q 763 970 712 990 q 818 924 803 951 q 832 873 832 897 q 829 846 832 860 q 811 806 824 829 q 781 764 798 783 q 739 721 762 741 q 698 693 715 702 q 689 690 692 691 q 678 689 685 689 q 653 696 659 689 q 652 699 652 698 q 653 702 652 701 q 663 709 655 705 q 683 723 673 714 q 709 746 693 731 q 775 853 770 806 l 775 859 q 759 906 775 883 q 713 941 741 932 q 692 944 704 944 q 614 922 660 944 q 515 842 555 893 q 460 728 474 790 q 457 699 458 713 q 457 680 457 685 q 458 650 457 663 q 475 594 462 621 q 519 524 488 568 q 543 485 540 494 q 547 473 547 477 q 543 463 547 467 q 499 450 532 450 q 446 465 467 450 q 426 475 439 469 q 403 485 413 481 q 372 492 385 490 q 345 494 359 494 l 333 494 q 230 450 271 494 q 123 246 157 372 q 111 165 111 200 q 119 115 111 136 q 170 52 134 70 q 177 48 174 50 q 183 47 180 47 q 193 47 186 47 q 246 56 214 47 q 555 244 381 95 q 636 317 610 292 q 665 348 648 330 q 715 402 682 365 q 726 413 721 408 q 733 419 731 418 q 751 422 741 422 q 769 419 761 422 q 779 412 778 416 q 780 410 780 411 q 779 408 780 409 q 776 401 779 406 q 767 389 773 397 q 722 335 750 367 q 671 279 694 302 q 585 199 638 245 q 481 119 531 154 q 234 2 345 19 q 211 1 226 1 q 185 0 195 0 q 170 0 174 0 q 156 1 161 0 m 737 1027 q 712 1044 715 1034 q 710 1057 710 1054 q 720 1082 710 1071 q 761 1097 734 1097 q 795 1085 788 1095 q 802 1065 802 1074 q 800 1053 802 1059 q 777 1030 791 1036 q 751 1025 762 1025 q 737 1027 744 1025 m 592 1027 q 568 1044 570 1034 q 566 1057 566 1054 q 576 1082 566 1071 q 616 1097 589 1097 q 650 1085 644 1095 q 657 1065 657 1074 q 654 1053 657 1059 q 632 1030 647 1036 q 606 1025 616 1025 q 592 1027 599 1025 z "},"Ì":{"ha":505,"x_min":-47,"x_max":573,"o":"m 15 18 q -16 39 -16 25 q -2 81 -16 47 q 19 120 5 98 q 34 144 25 130 q 52 172 43 159 q 69 199 60 185 q 83 223 78 214 q 142 313 123 283 q 171 357 161 342 q 188 383 178 367 q 208 414 199 399 q 234 453 218 429 q 264 500 250 478 q 392 704 351 633 q 448 817 433 774 q 463 885 463 857 q 437 937 463 922 q 401 943 425 943 q 344 937 378 943 q 58 806 195 908 q 32 783 45 795 q 13 762 20 770 q 6 751 6 754 q 7 751 6 751 q 9 749 8 751 q 12 747 11 748 q 13 745 13 746 q 8 740 13 743 q -4 736 3 738 q -18 735 -12 735 q -38 740 -29 735 q -47 750 -47 745 q -44 761 -47 753 q -37 774 -41 768 q 28 835 -19 800 q 135 899 76 869 q 369 970 255 958 q 394 972 378 972 q 425 972 410 972 q 446 972 439 972 q 530 941 500 964 q 572 866 567 913 q 573 853 573 860 q 488 617 573 770 q 409 484 459 565 q 326 356 358 403 q 268 275 303 324 q 200 183 232 226 q 164 135 181 157 q 142 103 148 112 q 121 76 132 88 q 90 46 110 64 q 62 24 71 28 q 30 17 48 17 q 15 18 22 17 m 470 1023 q 404 1098 441 1031 q 394 1115 399 1106 q 386 1129 389 1124 q 379 1141 382 1135 q 374 1149 376 1146 q 372 1154 373 1152 q 371 1157 371 1156 q 385 1172 372 1166 q 416 1177 399 1177 l 420 1177 q 463 1151 459 1175 q 477 1107 465 1141 q 510 1043 496 1059 q 515 1037 513 1040 l 517 1034 q 509 1025 517 1029 q 495 1022 503 1022 q 485 1021 487 1021 q 470 1023 476 1021 z "},"Í":{"ha":505,"x_min":-47,"x_max":628,"o":"m 15 18 q -16 39 -16 25 q -2 81 -16 47 q 19 120 5 98 q 34 144 25 130 q 52 172 43 159 q 69 199 60 185 q 83 223 78 214 q 142 313 123 283 q 171 357 161 342 q 188 383 178 367 q 208 414 199 399 q 234 453 218 429 q 264 500 250 478 q 392 704 351 633 q 448 817 433 774 q 463 885 463 857 q 437 937 463 922 q 401 943 425 943 q 344 937 378 943 q 58 806 195 908 q 32 783 45 795 q 13 762 20 770 q 6 751 6 754 q 7 751 6 751 q 9 749 8 751 q 12 747 11 748 q 13 745 13 746 q 8 740 13 743 q -4 736 3 738 q -18 735 -12 735 q -38 740 -29 735 q -47 750 -47 745 q -44 761 -47 753 q -37 774 -41 768 q 28 835 -19 800 q 135 899 76 869 q 369 970 255 958 q 394 972 378 972 q 425 972 410 972 q 446 972 439 972 q 530 941 500 964 q 572 866 567 913 q 573 853 573 860 q 488 617 573 770 q 409 484 459 565 q 326 356 358 403 q 268 275 303 324 q 200 183 232 226 q 164 135 181 157 q 142 103 148 112 q 121 76 132 88 q 90 46 110 64 q 62 24 71 28 q 30 17 48 17 q 15 18 22 17 m 450 1030 q 435 1038 437 1034 q 433 1044 433 1042 q 438 1058 433 1049 q 444 1067 439 1061 q 452 1078 448 1074 q 478 1105 460 1086 q 514 1140 496 1123 q 536 1160 532 1158 q 542 1163 538 1162 q 550 1166 546 1165 q 561 1169 555 1168 q 578 1170 566 1170 q 597 1169 591 1170 q 608 1166 602 1168 q 621 1160 615 1164 q 627 1152 626 1156 q 628 1149 628 1151 q 627 1144 628 1147 q 619 1137 625 1140 q 586 1113 598 1122 q 562 1095 574 1104 q 501 1044 517 1061 q 486 1031 491 1034 q 472 1029 479 1029 q 463 1029 465 1029 q 450 1030 455 1029 z "},"Î":{"ha":505,"x_min":-47,"x_max":614,"o":"m 15 18 q -16 39 -16 25 q -2 81 -16 47 q 19 120 5 98 q 34 144 25 130 q 52 172 43 159 q 69 199 60 185 q 83 223 78 214 q 142 313 123 283 q 171 357 161 342 q 188 383 178 367 q 208 414 199 399 q 234 453 218 429 q 264 500 250 478 q 392 704 351 633 q 448 817 433 774 q 463 885 463 857 q 437 937 463 922 q 401 943 425 943 q 344 937 378 943 q 58 806 195 908 q 32 783 45 795 q 13 762 20 770 q 6 751 6 754 q 7 751 6 751 q 9 749 8 751 q 12 747 11 748 q 13 745 13 746 q 8 740 13 743 q -4 736 3 738 q -18 735 -12 735 q -38 740 -29 735 q -47 750 -47 745 q -44 761 -47 753 q -37 774 -41 768 q 28 835 -19 800 q 135 899 76 869 q 369 970 255 958 q 394 972 378 972 q 425 972 410 972 q 446 972 439 972 q 530 941 500 964 q 572 866 567 913 q 573 853 573 860 q 488 617 573 770 q 409 484 459 565 q 326 356 358 403 q 268 275 303 324 q 200 183 232 226 q 164 135 181 157 q 142 103 148 112 q 121 76 132 88 q 90 46 110 64 q 62 24 71 28 q 30 17 48 17 q 15 18 22 17 m 573 1024 q 542 1045 553 1028 q 520 1107 532 1061 l 515 1126 l 506 1118 q 476 1093 494 1109 q 440 1061 458 1078 q 424 1045 431 1052 q 414 1038 416 1039 q 404 1036 410 1036 q 395 1036 397 1036 q 385 1036 389 1036 q 377 1040 380 1038 q 374 1045 374 1043 q 453 1116 374 1052 q 478 1139 466 1128 q 497 1156 491 1149 q 508 1166 504 1162 q 516 1172 513 1170 q 525 1175 520 1173 q 540 1176 532 1176 q 557 1174 549 1176 q 582 1162 573 1171 q 587 1154 585 1158 q 590 1143 589 1150 q 591 1121 591 1135 q 600 1056 595 1075 q 603 1047 601 1050 q 608 1041 604 1044 q 613 1037 612 1038 q 614 1034 614 1036 l 613 1032 q 602 1024 611 1026 q 588 1023 593 1023 q 573 1024 581 1023 z "},"Ï":{"ha":505,"x_min":-47,"x_max":626,"o":"m 15 18 q -16 39 -16 25 q -2 81 -16 47 q 19 120 5 98 q 34 144 25 130 q 52 172 43 159 q 69 199 60 185 q 83 223 78 214 q 142 313 123 283 q 171 357 161 342 q 188 383 178 367 q 208 414 199 399 q 234 453 218 429 q 264 500 250 478 q 392 704 351 633 q 448 817 433 774 q 463 885 463 857 q 437 937 463 922 q 401 943 425 943 q 344 937 378 943 q 58 806 195 908 q 32 783 45 795 q 13 762 20 770 q 6 751 6 754 q 7 751 6 751 q 9 749 8 751 q 12 747 11 748 q 13 745 13 746 q 8 740 13 743 q -4 736 3 738 q -18 735 -12 735 q -38 740 -29 735 q -47 750 -47 745 q -44 761 -47 753 q -37 774 -41 768 q 28 835 -19 800 q 135 899 76 869 q 369 970 255 958 q 394 972 378 972 q 425 972 410 972 q 446 972 439 972 q 530 941 500 964 q 572 866 567 913 q 573 853 573 860 q 488 617 573 770 q 409 484 459 565 q 326 356 358 403 q 268 275 303 324 q 200 183 232 226 q 164 135 181 157 q 142 103 148 112 q 121 76 132 88 q 90 46 110 64 q 62 24 71 28 q 30 17 48 17 q 15 18 22 17 m 561 1021 q 536 1038 538 1027 q 534 1051 534 1048 q 544 1076 534 1065 q 585 1091 557 1091 q 619 1079 612 1089 q 626 1059 626 1068 q 623 1047 626 1053 q 600 1024 615 1029 q 574 1019 585 1019 q 561 1021 568 1019 m 416 1021 q 391 1038 393 1027 q 389 1051 389 1048 q 399 1076 389 1065 q 439 1091 412 1091 q 474 1079 467 1089 q 481 1059 481 1068 q 478 1047 481 1053 q 455 1024 471 1029 q 429 1019 440 1019 q 416 1021 422 1019 z "},"Ñ":{"ha":1095,"x_min":-47,"x_max":1143,"o":"m 587 19 q 509 66 528 26 q 497 117 497 88 q 570 306 497 190 q 636 399 591 340 q 784 587 681 458 q 899 740 856 677 q 963 847 947 808 q 979 892 977 878 q 981 910 981 906 q 968 935 981 927 q 954 938 963 938 q 910 927 938 938 q 661 738 808 886 q 445 494 592 669 q 429 474 437 485 q 414 458 420 464 q 334 363 366 399 q 273 299 302 328 q 196 225 225 248 q 146 197 167 201 q 121 194 136 194 q 96 197 106 194 q 62 224 68 204 q 60 243 60 231 l 60 250 q 62 280 60 266 q 104 386 71 323 q 208 560 137 449 q 236 604 220 580 q 254 631 246 620 q 271 659 263 647 q 280 673 278 670 q 304 713 286 682 q 343 777 323 744 q 372 822 363 809 q 393 862 385 844 q 410 915 410 897 q 406 929 410 924 q 380 938 399 938 q 342 932 365 938 q 231 888 288 919 q 36 741 124 829 q 13 715 21 726 q 1 696 5 705 q -3 686 -3 688 q -3 684 -3 684 q -1 677 -3 680 l 1 675 l -2 672 q -18 667 -7 667 q -37 671 -28 667 q -47 688 -47 677 q -31 725 -47 702 q 2 760 -21 737 q 44 799 24 782 q 327 957 196 924 q 403 966 359 966 l 409 966 q 489 946 456 966 q 521 882 521 926 q 520 871 521 876 q 449 701 516 817 q 384 593 416 643 q 304 476 351 543 q 267 424 280 444 q 242 388 253 404 q 214 348 231 372 q 189 308 201 328 q 170 275 176 288 q 163 261 163 263 q 205 300 167 261 q 292 388 244 338 q 373 474 339 437 q 399 504 388 491 q 425 533 410 516 q 465 581 440 551 q 622 751 546 676 q 806 911 732 862 q 901 960 854 944 q 950 971 929 970 q 977 972 971 972 q 1030 963 1005 972 q 1076 922 1061 952 q 1086 878 1086 903 q 1055 772 1086 835 q 836 463 1016 684 q 810 431 824 448 q 787 402 797 414 q 595 102 609 182 q 594 94 594 99 q 593 83 593 88 l 593 81 q 602 54 593 62 l 607 49 l 616 50 q 649 59 629 51 q 688 77 669 66 q 837 189 749 113 q 1006 351 930 273 q 1080 425 1040 385 q 1095 440 1089 433 l 1101 447 q 1106 451 1101 450 q 1118 454 1112 453 l 1122 454 q 1135 452 1130 454 q 1143 443 1143 448 q 1098 390 1143 435 q 994 287 1054 344 q 881 181 933 229 q 809 117 829 133 q 625 20 700 30 q 606 18 617 18 q 587 19 594 18 m 626 1041 q 654 1084 631 1062 q 699 1115 677 1107 q 732 1122 721 1122 q 761 1115 748 1122 q 795 1085 782 1100 q 812 1068 802 1077 q 822 1063 817 1063 q 825 1063 823 1063 q 836 1074 829 1066 q 844 1087 841 1081 q 849 1100 846 1093 q 860 1114 852 1113 q 869 1116 867 1116 q 886 1112 878 1116 q 895 1102 892 1108 q 897 1090 897 1095 q 895 1080 897 1085 q 871 1040 888 1059 q 840 1017 854 1021 q 819 1013 825 1013 q 783 1027 802 1013 q 766 1044 775 1033 q 746 1063 756 1055 q 728 1073 736 1072 q 726 1074 726 1074 q 724 1073 724 1074 q 720 1072 722 1073 l 719 1072 q 707 1063 713 1069 q 695 1053 701 1058 l 694 1052 q 675 1029 682 1042 l 673 1026 q 661 1013 668 1014 q 651 1011 653 1011 q 635 1017 642 1011 q 626 1039 626 1024 l 626 1041 z "},"Ò":{"ha":781,"x_min":-47,"x_max":700,"o":"m -47 192 q -32 300 -47 253 q 23 424 -14 361 l 33 441 l 30 448 q -4 573 -2 500 l -4 588 q 26 722 -4 661 q 60 776 41 751 q 106 829 78 800 q 139 859 125 847 q 172 884 153 871 q 303 950 231 927 q 438 972 376 972 q 475 971 456 972 q 612 906 555 964 q 685 772 669 842 q 700 648 700 703 q 696 583 700 616 q 655 418 685 494 q 635 375 648 401 q 612 330 623 349 q 402 97 531 191 q 271 28 345 55 q 128 1 197 1 l 121 1 q 2 46 50 1 q -47 192 -45 90 m 177 41 q 401 160 281 61 q 445 200 418 174 q 485 242 471 226 q 615 480 579 355 q 636 632 636 557 q 630 713 636 673 q 560 877 609 836 q 461 917 511 917 q 413 910 438 917 q 251 798 334 888 q 131 604 155 694 q 126 583 128 595 q 122 563 123 570 q 121 553 121 556 q 122 551 121 551 l 125 553 q 134 560 130 556 q 160 578 145 570 q 185 590 174 586 q 233 597 207 597 l 241 597 q 304 578 286 596 q 311 564 311 572 q 309 554 311 559 q 277 506 304 539 q 237 453 258 481 q 201 405 216 425 q 186 382 186 384 q 192 377 186 380 q 204 373 197 375 q 220 370 212 370 q 231 369 225 369 q 331 396 265 369 l 353 405 l 370 405 q 391 397 389 405 l 391 395 q 389 392 391 393 q 380 386 387 389 q 359 375 373 382 q 310 353 330 360 q 263 342 290 346 q 247 340 256 340 q 221 339 238 339 q 191 340 201 339 q 165 345 181 341 q 139 300 161 344 q 90 165 100 224 q 88 136 88 152 l 88 128 q 91 94 88 107 q 111 55 98 68 q 154 38 126 38 q 177 41 164 38 m 441 1029 q 376 1104 413 1038 q 366 1121 371 1112 q 357 1135 361 1130 q 351 1147 354 1141 q 346 1155 348 1152 q 343 1160 345 1158 q 342 1163 342 1162 q 357 1178 343 1173 q 387 1183 370 1183 l 391 1183 q 434 1157 431 1181 q 449 1113 436 1147 q 481 1049 468 1065 q 486 1043 484 1046 l 488 1040 q 480 1031 488 1036 q 466 1028 474 1028 q 456 1027 458 1027 q 441 1029 448 1027 z "},"Ó":{"ha":781,"x_min":-47,"x_max":700,"o":"m -47 192 q -32 300 -47 253 q 23 424 -14 361 l 33 441 l 30 448 q -4 573 -2 500 l -4 588 q 26 722 -4 661 q 60 776 41 751 q 106 829 78 800 q 139 859 125 847 q 172 884 153 871 q 303 950 231 927 q 438 972 376 972 q 475 971 456 972 q 612 906 555 964 q 685 772 669 842 q 700 648 700 703 q 696 583 700 616 q 655 418 685 494 q 635 375 648 401 q 612 330 623 349 q 402 97 531 191 q 271 28 345 55 q 128 1 197 1 l 121 1 q 2 46 50 1 q -47 192 -45 90 m 177 41 q 401 160 281 61 q 445 200 418 174 q 485 242 471 226 q 615 480 579 355 q 636 632 636 557 q 630 713 636 673 q 560 877 609 836 q 461 917 511 917 q 413 910 438 917 q 251 798 334 888 q 131 604 155 694 q 126 583 128 595 q 122 563 123 570 q 121 553 121 556 q 122 551 121 551 l 125 553 q 134 560 130 556 q 160 578 145 570 q 185 590 174 586 q 233 597 207 597 l 241 597 q 304 578 286 596 q 311 564 311 572 q 309 554 311 559 q 277 506 304 539 q 237 453 258 481 q 201 405 216 425 q 186 382 186 384 q 192 377 186 380 q 204 373 197 375 q 220 370 212 370 q 231 369 225 369 q 331 396 265 369 l 353 405 l 370 405 q 391 397 389 405 l 391 395 q 389 392 391 393 q 380 386 387 389 q 359 375 373 382 q 310 353 330 360 q 263 342 290 346 q 247 340 256 340 q 221 339 238 339 q 191 340 201 339 q 165 345 181 341 q 139 300 161 344 q 90 165 100 224 q 88 136 88 152 l 88 128 q 91 94 88 107 q 111 55 98 68 q 154 38 126 38 q 177 41 164 38 m 467 1036 q 452 1044 454 1040 q 450 1050 450 1048 q 455 1064 450 1055 q 461 1074 456 1067 q 469 1084 465 1080 q 495 1111 477 1093 q 531 1146 513 1129 q 553 1166 549 1164 q 559 1170 555 1168 q 567 1173 563 1171 q 577 1175 572 1175 q 595 1176 583 1176 q 614 1175 608 1176 q 625 1173 619 1175 q 637 1166 632 1170 q 644 1158 643 1162 q 645 1156 645 1157 q 644 1150 645 1153 q 636 1143 642 1146 q 603 1119 615 1128 q 578 1101 591 1110 q 518 1050 534 1067 q 503 1038 508 1040 q 489 1035 496 1036 q 479 1035 482 1035 q 467 1036 472 1035 z "},"Ô":{"ha":781,"x_min":-47,"x_max":700,"o":"m -47 192 q -32 300 -47 253 q 23 424 -14 361 l 33 441 l 30 448 q -4 573 -2 500 l -4 588 q 26 722 -4 661 q 60 776 41 751 q 106 829 78 800 q 139 859 125 847 q 172 884 153 871 q 303 950 231 927 q 438 972 376 972 q 475 971 456 972 q 612 906 555 964 q 685 772 669 842 q 700 648 700 703 q 696 583 700 616 q 655 418 685 494 q 635 375 648 401 q 612 330 623 349 q 402 97 531 191 q 271 28 345 55 q 128 1 197 1 l 121 1 q 2 46 50 1 q -47 192 -45 90 m 177 41 q 401 160 281 61 q 445 200 418 174 q 485 242 471 226 q 615 480 579 355 q 636 632 636 557 q 630 713 636 673 q 560 877 609 836 q 461 917 511 917 q 413 910 438 917 q 251 798 334 888 q 131 604 155 694 q 126 583 128 595 q 122 563 123 570 q 121 553 121 556 q 122 551 121 551 l 125 553 q 134 560 130 556 q 160 578 145 570 q 185 590 174 586 q 233 597 207 597 l 241 597 q 304 578 286 596 q 311 564 311 572 q 309 554 311 559 q 277 506 304 539 q 237 453 258 481 q 201 405 216 425 q 186 382 186 384 q 192 377 186 380 q 204 373 197 375 q 220 370 212 370 q 231 369 225 369 q 331 396 265 369 l 353 405 l 370 405 q 391 397 389 405 l 391 395 q 389 392 391 393 q 380 386 387 389 q 359 375 373 382 q 310 353 330 360 q 263 342 290 346 q 247 340 256 340 q 221 339 238 339 q 191 340 201 339 q 165 345 181 341 q 139 300 161 344 q 90 165 100 224 q 88 136 88 152 l 88 128 q 91 94 88 107 q 111 55 98 68 q 154 38 126 38 q 177 41 164 38 m 551 1030 q 520 1051 530 1034 q 498 1113 509 1067 l 493 1133 l 484 1124 q 454 1099 471 1115 q 418 1067 436 1084 q 401 1052 409 1058 q 392 1044 394 1045 q 381 1042 387 1042 q 372 1042 375 1042 q 363 1042 367 1042 q 355 1046 358 1044 q 351 1051 351 1049 q 431 1122 351 1058 q 456 1145 444 1134 q 475 1162 469 1156 q 486 1172 481 1168 q 494 1178 490 1176 q 503 1181 498 1179 q 517 1182 510 1182 q 535 1180 526 1182 q 559 1168 551 1177 q 565 1160 563 1164 q 567 1149 566 1156 q 569 1127 568 1141 q 577 1062 572 1081 q 580 1053 578 1056 q 586 1047 582 1050 q 590 1043 589 1044 q 591 1040 591 1042 l 591 1038 q 580 1030 589 1032 q 566 1029 571 1029 q 551 1030 558 1029 z "},"Õ":{"ha":781,"x_min":-47,"x_max":700,"o":"m -47 192 q -32 300 -47 253 q 23 424 -14 361 l 33 441 l 30 448 q -4 573 -2 500 l -4 588 q 26 722 -4 661 q 60 776 41 751 q 106 829 78 800 q 139 859 125 847 q 172 884 153 871 q 303 950 231 927 q 438 972 376 972 q 475 971 456 972 q 612 906 555 964 q 685 772 669 842 q 700 648 700 703 q 696 583 700 616 q 655 418 685 494 q 635 375 648 401 q 612 330 623 349 q 402 97 531 191 q 271 28 345 55 q 128 1 197 1 l 121 1 q 2 46 50 1 q -47 192 -45 90 m 177 41 q 401 160 281 61 q 445 200 418 174 q 485 242 471 226 q 615 480 579 355 q 636 632 636 557 q 630 713 636 673 q 560 877 609 836 q 461 917 511 917 q 413 910 438 917 q 251 798 334 888 q 131 604 155 694 q 126 583 128 595 q 122 563 123 570 q 121 553 121 556 q 122 551 121 551 l 125 553 q 134 560 130 556 q 160 578 145 570 q 185 590 174 586 q 233 597 207 597 l 241 597 q 304 578 286 596 q 311 564 311 572 q 309 554 311 559 q 277 506 304 539 q 237 453 258 481 q 201 405 216 425 q 186 382 186 384 q 192 377 186 380 q 204 373 197 375 q 220 370 212 370 q 231 369 225 369 q 331 396 265 369 l 353 405 l 370 405 q 391 397 389 405 l 391 395 q 389 392 391 393 q 380 386 387 389 q 359 375 373 382 q 310 353 330 360 q 263 342 290 346 q 247 340 256 340 q 221 339 238 339 q 191 340 201 339 q 165 345 181 341 q 139 300 161 344 q 90 165 100 224 q 88 136 88 152 l 88 128 q 91 94 88 107 q 111 55 98 68 q 154 38 126 38 q 177 41 164 38 m 334 1055 q 362 1099 339 1076 q 408 1129 386 1121 q 441 1137 429 1137 q 469 1129 456 1137 q 503 1099 490 1114 q 520 1082 511 1091 q 530 1077 526 1077 q 533 1078 532 1077 q 544 1088 538 1080 q 552 1101 549 1095 q 557 1114 555 1107 q 568 1128 561 1127 q 578 1130 575 1130 q 595 1126 586 1130 q 603 1116 601 1122 q 605 1104 605 1109 q 604 1094 605 1099 q 579 1054 597 1073 q 548 1031 562 1035 q 528 1027 534 1027 q 491 1041 510 1027 q 474 1058 484 1047 q 454 1078 465 1069 q 436 1087 444 1086 q 434 1088 435 1088 q 432 1087 433 1088 q 428 1086 430 1087 l 427 1086 q 415 1078 421 1083 q 404 1067 409 1072 l 402 1066 q 383 1043 391 1056 l 382 1040 q 369 1027 376 1028 q 359 1025 361 1025 q 343 1031 351 1025 q 334 1053 334 1038 l 334 1055 z "},"Ö":{"ha":781,"x_min":-47,"x_max":700,"o":"m -47 192 q -32 300 -47 253 q 23 424 -14 361 l 33 441 l 30 448 q -4 573 -2 500 l -4 588 q 26 722 -4 661 q 60 776 41 751 q 106 829 78 800 q 139 859 125 847 q 172 884 153 871 q 303 950 231 927 q 438 972 376 972 q 475 971 456 972 q 612 906 555 964 q 685 772 669 842 q 700 648 700 703 q 696 583 700 616 q 655 418 685 494 q 635 375 648 401 q 612 330 623 349 q 402 97 531 191 q 271 28 345 55 q 128 1 197 1 l 121 1 q 2 46 50 1 q -47 192 -45 90 m 177 41 q 401 160 281 61 q 445 200 418 174 q 485 242 471 226 q 615 480 579 355 q 636 632 636 557 q 630 713 636 673 q 560 877 609 836 q 461 917 511 917 q 413 910 438 917 q 251 798 334 888 q 131 604 155 694 q 126 583 128 595 q 122 563 123 570 q 121 553 121 556 q 122 551 121 551 l 125 553 q 134 560 130 556 q 160 578 145 570 q 185 590 174 586 q 233 597 207 597 l 241 597 q 304 578 286 596 q 311 564 311 572 q 309 554 311 559 q 277 506 304 539 q 237 453 258 481 q 201 405 216 425 q 186 382 186 384 q 192 377 186 380 q 204 373 197 375 q 220 370 212 370 q 231 369 225 369 q 331 396 265 369 l 353 405 l 370 405 q 391 397 389 405 l 391 395 q 389 392 391 393 q 380 386 387 389 q 359 375 373 382 q 310 353 330 360 q 263 342 290 346 q 247 340 256 340 q 221 339 238 339 q 191 340 201 339 q 165 345 181 341 q 139 300 161 344 q 90 165 100 224 q 88 136 88 152 l 88 128 q 91 94 88 107 q 111 55 98 68 q 154 38 126 38 q 177 41 164 38 m 525 1027 q 500 1044 503 1034 q 498 1057 498 1054 q 508 1082 498 1071 q 549 1097 522 1097 q 583 1085 576 1095 q 590 1065 590 1074 q 587 1053 590 1059 q 564 1030 579 1036 q 538 1025 549 1025 q 525 1027 532 1025 m 380 1027 q 355 1044 357 1034 q 353 1057 353 1054 q 363 1082 353 1071 q 404 1097 376 1097 q 438 1085 431 1095 q 445 1065 445 1074 q 442 1053 445 1059 q 419 1030 435 1036 q 393 1025 404 1025 q 380 1027 387 1025 z "},"×":{"ha":411,"x_min":68,"x_max":343,"o":"m 80 298 q 72 302 75 300 q 68 307 68 304 q 95 336 68 311 q 163 397 121 361 l 168 401 l 158 425 q 130 518 130 494 q 160 536 130 533 l 165 536 q 194 529 181 536 q 209 516 203 525 q 218 488 214 507 q 227 455 225 455 q 235 461 229 456 q 251 474 241 466 q 282 501 271 492 q 300 512 294 509 q 316 514 307 514 q 343 503 343 514 q 333 490 343 500 q 307 467 322 480 q 288 451 299 460 q 265 432 276 441 q 245 415 252 421 l 240 411 l 240 410 q 241 404 240 409 q 247 387 243 397 q 254 369 250 378 q 263 348 259 355 q 273 336 268 340 q 277 328 277 331 q 262 317 277 321 q 248 316 256 316 q 234 317 241 316 q 191 353 208 323 l 184 363 l 176 357 q 156 340 168 351 l 148 333 q 121 311 132 320 q 107 300 109 302 q 97 298 102 298 q 89 298 92 298 q 80 298 83 298 z "}}}
